{
	"asset":{
		"generator":"Khronos glTF Blender I/O v4.4.56",
		"version":"2.0"
	},
	"scene":0,
	"scenes":[
		{
			"name":"Scene",
			"nodes":[
				0
			]
		}
	],
	"nodes":[
		{
			"mesh":0,
			"name":"Cube.001"
		}
	],
	"materials":[
		{
			"doubleSided":true,
			"name":"Cube.001",
			"normalTexture":{
				"index":0
			},
			"pbrMetallicRoughness":{
				"baseColorTexture":{
					"index":1
				},
				"metallicRoughnessTexture":{
					"index":2
				}
			}
		}
	],
	"meshes":[
		{
			"name":"Cube.003",
			"primitives":[
				{
					"attributes":{
						"POSITION":0,
						"NORMAL":1,
						"TEXCOORD_0":2,
						"COLOR_0":3,
						"COLOR_1":4
					},
					"indices":5,
					"material":0
				}
			]
		}
	],
	"textures":[
		{
			"sampler":0,
			"source":0
		},
		{
			"sampler":0,
			"source":1
		},
		{
			"sampler":0,
			"source":2
		}
	],
	"images": [
		{
			"mimeType": "image/png",
			"name": "Gate_top_normal",
			"uri": "Gate_top_normal.png"
		},
		{
			"mimeType": "image/png",
			"name": "Gate_top_diffuse",
			"uri": "Gate_top_diffuse.png"
		},
		{
			"mimeType": "image/png",
			"name": "Gate_top_specular",
			"uri": "Gate_top_specular.png"
		}
	],
	"accessors":[
		{
			"bufferView":0,
			"componentType":5126,
			"count":981,
			"max":[
				3,
				7,
				1
			],
			"min":[
				-3,
				2.4390716552734375,
				-1
			],
			"type":"VEC3"
		},
		{
			"bufferView":1,
			"componentType":5126,
			"count":981,
			"type":"VEC3"
		},
		{
			"bufferView":2,
			"componentType":5126,
			"count":981,
			"type":"VEC2"
		},
		{
			"bufferView":3,
			"componentType":5121,
			"count":981,
			"normalized":true,
			"type":"VEC4"
		},
		{
			"bufferView":4,
			"componentType":5123,
			"count":981,
			"normalized":true,
			"type":"VEC4"
		},
		{
			"bufferView":5,
			"componentType":5123,
			"count":3240,
			"type":"SCALAR"
		}
	],
	"bufferViews":[
		{
			"buffer":0,
			"byteLength":11772,
			"byteOffset":0,
			"target":34962
		},
		{
			"buffer":0,
			"byteLength":11772,
			"byteOffset":11772,
			"target":34962
		},
		{
			"buffer":0,
			"byteLength":7848,
			"byteOffset":23544,
			"target":34962
		},
		{
			"buffer":0,
			"byteLength":3924,
			"byteOffset":31392,
			"target":34962
		},
		{
			"buffer":0,
			"byteLength":7848,
			"byteOffset":35316,
			"target":34962
		},
		{
			"buffer":0,
			"byteLength":6480,
			"byteOffset":43164,
			"target":34963
		}
	],
	"samplers":[
		{
			"magFilter":9729,
			"minFilter":9987
		}
	],
	"buffers":[
		{
			"byteLength":49644,
			"uri":"Gate_top.bin"
		}
	]
}
