{
	"asset":{
		"generator":"Khronos glTF Blender I/O v4.2.69",
		"version":"2.0"
	},
	"extensionsUsed":[
		"KHR_materials_specular"
	],
	"scene":0,
	"scenes":[
		{
			"name":"Scene",
			"nodes":[
				0
			]
		}
	],
	"nodes":[
		{
			"mesh":0,
			"name":"Cube.001"
		}
	],
	"materials":[
		{
			"doubleSided":true,
			"extensions":{
				"KHR_materials_specular":{
					"specularColorTexture":{
						"index":0
					}
				}
			},
			"name":"Material",
			"normalTexture":{
				"index":1
			},
			"pbrMetallicRoughness":{
				"baseColorTexture":{
					"index":2
				},
				"metallicFactor":0,
				"metallicRoughnessTexture":{
					"index":3
				}
			}
		}
	],
	"meshes":[
		{
			"name":"Cube.003",
			"primitives":[
				{
					"attributes":{
						"POSITION":0,
						"NORMAL":1,
						"TEXCOORD_0":2,
						"COLOR_0":3,
						"COLOR_1":4
					},
					"indices":5,
					"material":0
				}
			]
		}
	],
	"textures":[
		{
			"sampler":0,
			"source":0
		},
		{
			"sampler":0,
			"source":1
		},
		{
			"sampler":0,
			"source":2
		},
		{
			"sampler":0,
			"source":3
		}
	],
	"images":[
		{
			"mimeType":"image/png",
			"name":"Gate_top_Specular.png.001",
			"uri":"Gate_top_Specular.png"
		},
		{
			"mimeType":"image/png",
			"name":"Gate_top_Normal.png.001",
			"uri":"Gate_top_Normal.png"
		},
		{
			"mimeType":"image/png",
			"name":"Gate_top_Diffuse.png.001",
			"uri":"Gate_top_Diffuse.png"
		},
		{
			"mimeType":"image/png",
			"name":"Gate_top_Glossiness.png.001",
			"uri":"Gate_top_Glossiness.png"
		}
	],
	"accessors":[
		{
			"bufferView":0,
			"componentType":5126,
			"count":1957,
			"max":[
				1.5,
				5.992000102996826,
				0.9260348677635193
			],
			"min":[
				-1.5,
				1.8268647193908691,
				-0.9260348677635193
			],
			"type":"VEC3"
		},
		{
			"bufferView":1,
			"componentType":5126,
			"count":1957,
			"type":"VEC3"
		},
		{
			"bufferView":2,
			"componentType":5126,
			"count":1957,
			"type":"VEC2"
		},
		{
			"bufferView":3,
			"componentType":5121,
			"count":1957,
			"normalized":true,
			"type":"VEC4"
		},
		{
			"bufferView":4,
			"componentType":5126,
			"count":1957,
			"type":"VEC3"
		},
		{
			"bufferView":5,
			"componentType":5123,
			"count":5760,
			"type":"SCALAR"
		}
	],
	"bufferViews":[
		{
			"buffer":0,
			"byteLength":23484,
			"byteOffset":0,
			"target":34962
		},
		{
			"buffer":0,
			"byteLength":23484,
			"byteOffset":23484,
			"target":34962
		},
		{
			"buffer":0,
			"byteLength":15656,
			"byteOffset":46968,
			"target":34962
		},
		{
			"buffer":0,
			"byteLength":7828,
			"byteOffset":62624,
			"target":34962
		},
		{
			"buffer":0,
			"byteLength":23484,
			"byteOffset":70452,
			"target":34962
		},
		{
			"buffer":0,
			"byteLength":11520,
			"byteOffset":93936,
			"target":34963
		}
	],
	"samplers":[
		{
			"magFilter":9729,
			"minFilter":9987
		}
	],
	"buffers":[
		{
			"byteLength":105456,
			"uri":"Gate_top.bin"
		}
	]
}
