{
	"asset":{
		"generator":"Khronos glTF Blender I/O v4.4.56",
		"version":"2.0"
	},
	"scene":0,
	"scenes":[
		{
			"name":"Scene",
			"nodes":[
				0
			]
		}
	],
	"nodes":[
		{
			"mesh":0,
			"name":"Cube"
		}
	],
	"materials":[
		{
			"doubleSided":true,
			"name":"Cube",
			"normalTexture":{
				"index":0
			},
			"pbrMetallicRoughness":{
				"baseColorTexture":{
					"index":1
				},
				"metallicRoughnessTexture":{
					"index":2
				}
			}
		}
	],
	"meshes":[
		{
			"name":"Cube.002",
			"primitives":[
				{
					"attributes":{
						"POSITION":0,
						"NORMAL":1,
						"TEXCOORD_0":2
					},
					"indices":3,
					"material":0
				}
			]
		}
	],
	"textures":[
		{
			"sampler":0,
			"source":0
		},
		{
			"sampler":0,
			"source":1
		},
		{
			"sampler":0,
			"source":2
		}
	],
	"images":[
		{
			"mimeType": "image/png",
			"name": "Gate_bottom_normal",
			"uri": "Gate_bottom_normal.png"
		},
		{
			"mimeType": "image/png",
			"name": "Gate_bottom_diffuse",
			"uri": "Gate_bottom_diffuse.png"
		},
		{
			"mimeType": "image/png",
			"name": "Gate_bottom_specular",
			"uri": "Gate_bottom_specular.png"
		}
	],
	"accessors":[
		{
			"bufferView":0,
			"componentType":5126,
			"count":963,
			"max":[
				3,
				4.055138111114502,
				1
			],
			"min":[
				-3,
				0,
				-1
			],
			"type":"VEC3"
		},
		{
			"bufferView":1,
			"componentType":5126,
			"count":963,
			"type":"VEC3"
		},
		{
			"bufferView":2,
			"componentType":5126,
			"count":963,
			"type":"VEC2"
		},
		{
			"bufferView":3,
			"componentType":5123,
			"count":3360,
			"type":"SCALAR"
		}
	],
	"bufferViews":[
		{
			"buffer":0,
			"byteLength":11556,
			"byteOffset":0,
			"target":34962
		},
		{
			"buffer":0,
			"byteLength":11556,
			"byteOffset":11556,
			"target":34962
		},
		{
			"buffer":0,
			"byteLength":7704,
			"byteOffset":23112,
			"target":34962
		},
		{
			"buffer":0,
			"byteLength":6720,
			"byteOffset":30816,
			"target":34963
		}
	],
	"samplers":[
		{
			"magFilter":9729,
			"minFilter":9987
		}
	],
	"buffers":[
		{
			"byteLength":37536,
			"uri":"Gate_bottom.bin"
		}
	]
}
