{
	"asset":{
		"generator":"Khronos glTF Blender I/O v4.2.69",
		"version":"2.0"
	},
	"extensionsUsed":[
		"KHR_materials_specular"
	],
	"scene":0,
	"scenes":[
		{
			"name":"Scene",
			"nodes":[
				0
			]
		}
	],
	"nodes":[
		{
			"mesh":0,
			"name":"Cube"
		}
	],
	"materials":[
		{
			"doubleSided":true,
			"extensions":{
				"KHR_materials_specular":{
					"specularColorTexture":{
						"index":0
					}
				}
			},
			"name":"Material.001",
			"normalTexture":{
				"index":1
			},
			"pbrMetallicRoughness":{
				"baseColorTexture":{
					"index":2
				},
				"metallicFactor":0,
				"metallicRoughnessTexture":{
					"index":3
				}
			}
		}
	],
	"meshes":[
		{
			"name":"Cube.002",
			"primitives":[
				{
					"attributes":{
						"POSITION":0,
						"NORMAL":1,
						"TEXCOORD_0":2
					},
					"indices":3,
					"material":0
				}
			]
		}
	],
	"textures":[
		{
			"sampler":0,
			"source":0
		},
		{
			"sampler":0,
			"source":1
		},
		{
			"sampler":0,
			"source":2
		},
		{
			"sampler":0,
			"source":3
		}
	],
	"images":[
		{
			"mimeType":"image/png",
			"name":"Gate_bottom_Specular.png",
			"uri":"Gate_bottom_Specular.png"
		},
		{
			"mimeType":"image/png",
			"name":"Gate_bottom_Normal.png",
			"uri":"Gate_bottom_Normal.png"
		},
		{
			"mimeType":"image/png",
			"name":"Gate_bottom_Diffuse.png",
			"uri":"Gate_bottom_Diffuse.png"
		},
		{
			"mimeType":"image/png",
			"name":"Gate_bottom_Glossiness.png",
			"uri":"Gate_bottom_Glossiness.png"
		}
	],
	"accessors":[
		{
			"bufferView":0,
			"componentType":5126,
			"count":1939,
			"max":[
				1.5,
				3.0372984409332275,
				0.9158749580383301
			],
			"min":[
				-1.5,
				0,
				-0.9158749580383301
			],
			"type":"VEC3"
		},
		{
			"bufferView":1,
			"componentType":5126,
			"count":1939,
			"type":"VEC3"
		},
		{
			"bufferView":2,
			"componentType":5126,
			"count":1939,
			"type":"VEC2"
		},
		{
			"bufferView":3,
			"componentType":5123,
			"count":5880,
			"type":"SCALAR"
		}
	],
	"bufferViews":[
		{
			"buffer":0,
			"byteLength":23268,
			"byteOffset":0,
			"target":34962
		},
		{
			"buffer":0,
			"byteLength":23268,
			"byteOffset":23268,
			"target":34962
		},
		{
			"buffer":0,
			"byteLength":15512,
			"byteOffset":46536,
			"target":34962
		},
		{
			"buffer":0,
			"byteLength":11760,
			"byteOffset":62048,
			"target":34963
		}
	],
	"samplers":[
		{
			"magFilter":9729,
			"minFilter":9987
		}
	],
	"buffers":[
		{
			"byteLength":73808,
			"uri":"Gate_bottom.bin"
		}
	]
}
