{
	"asset":{
		"generator":"Khronos glTF Blender I/O v4.4.56",
		"version":"2.0"
	},
	"scene":0,
	"scenes":[
		{
			"name":"Scene",
			"nodes":[
				6
			]
		}
	],
	"nodes":[
		{
			"name":"Bone.004",
			"rotation":[
				-0.0021586224902421236,
				-0.01065007597208023,
				0.1986033320426941,
				0.980019748210907
			],
			"scale":[
				0.9999998807907104,
				0.9999998211860657,
				1
			],
			"translation":[
				-3.3429935797357757e-07,
				0.34285759925842285,
				-6.719375278407824e-09
			]
		},
		{
			"children":[
				0
			],
			"name":"Bone.003",
			"rotation":[
				-0.003512504743412137,
				0.0082533685490489,
				0.26671749353408813,
				0.9637330770492554
			],
			"scale":[
				1,
				1,
				0.9999999403953552
			],
			"translation":[
				3.893584477054901e-08,
				1.358317255973816,
				6.163105581435957e-10
			]
		},
		{
			"children":[
				1
			],
			"name":"Bone.002",
			"rotation":[
				-0.0005843977560289204,
				0.002666213782504201,
				0.7093207240104675,
				0.7048805952072144
			],
			"scale":[
				1,
				0.9999999403953552,
				0.9999999403953552
			],
			"translation":[
				1.0980727438436588e-10,
				1.2068641185760498,
				-2.2247093056648737e-11
			]
		},
		{
			"children":[
				2
			],
			"name":"Bone.001",
			"rotation":[
				-0.0007756156264804304,
				-0.0012596524320542812,
				-0.5243105292320251,
				0.8515259027481079
			],
			"scale":[
				0.9999999403953552,
				0.9999998211860657,
				0.9999998807907104
			],
			"translation":[
				-0.47808244824409485,
				1.4574648141860962,
				1.1470463467944114e-09
			]
		},
		{
			"name":"neutral_bone",
			"rotation":[
				-0.7071067690849304,
				0,
				0,
				0.7071067690849304
			]
		},
		{
			"mesh":0,
			"name":"Cube.002",
			"skin":0
		},
		{
			"children":[
				5,
				3,
				4
			],
			"name":"Armature.002",
			"scale":[
				2,
				2,
				2
			],
			"translation":[
				0,
				0.008052924647927284,
				0
			]
		}
	],
	"animations":[
		{
			"channels":[
				{
					"sampler":0,
					"target":{
						"node":3,
						"path":"translation"
					}
				},
				{
					"sampler":1,
					"target":{
						"node":3,
						"path":"rotation"
					}
				},
				{
					"sampler":2,
					"target":{
						"node":3,
						"path":"scale"
					}
				},
				{
					"sampler":3,
					"target":{
						"node":2,
						"path":"translation"
					}
				},
				{
					"sampler":4,
					"target":{
						"node":2,
						"path":"rotation"
					}
				},
				{
					"sampler":5,
					"target":{
						"node":2,
						"path":"scale"
					}
				},
				{
					"sampler":6,
					"target":{
						"node":1,
						"path":"translation"
					}
				},
				{
					"sampler":7,
					"target":{
						"node":1,
						"path":"rotation"
					}
				},
				{
					"sampler":8,
					"target":{
						"node":1,
						"path":"scale"
					}
				},
				{
					"sampler":9,
					"target":{
						"node":0,
						"path":"translation"
					}
				},
				{
					"sampler":10,
					"target":{
						"node":0,
						"path":"rotation"
					}
				},
				{
					"sampler":11,
					"target":{
						"node":0,
						"path":"scale"
					}
				}
			],
			"name":"ArmatureAction.001",
			"samplers":[
				{
					"input":7,
					"interpolation":"STEP",
					"output":8
				},
				{
					"input":9,
					"interpolation":"LINEAR",
					"output":10
				},
				{
					"input":7,
					"interpolation":"STEP",
					"output":11
				},
				{
					"input":7,
					"interpolation":"STEP",
					"output":12
				},
				{
					"input":9,
					"interpolation":"LINEAR",
					"output":13
				},
				{
					"input":7,
					"interpolation":"STEP",
					"output":14
				},
				{
					"input":7,
					"interpolation":"STEP",
					"output":15
				},
				{
					"input":9,
					"interpolation":"LINEAR",
					"output":16
				},
				{
					"input":7,
					"interpolation":"STEP",
					"output":17
				},
				{
					"input":7,
					"interpolation":"STEP",
					"output":18
				},
				{
					"input":7,
					"interpolation":"STEP",
					"output":19
				},
				{
					"input":7,
					"interpolation":"STEP",
					"output":20
				}
			]
		}
	],
	"materials":[
		{
			"doubleSided":true,
			"name":"Material.005",
			"normalTexture":{
				"index":0
			},
			"pbrMetallicRoughness":{
				"baseColorTexture":{
					"index":1
				},
				"metallicFactor":0,
				"roughnessFactor":0.5
			}
		}
	],
	"meshes":[
		{
			"name":"Cube.002",
			"primitives":[
				{
					"attributes":{
						"POSITION":0,
						"NORMAL":1,
						"TEXCOORD_0":2,
						"JOINTS_0":3,
						"WEIGHTS_0":4
					},
					"indices":5,
					"material":0
				}
			]
		}
	],
	"textures":[
		{
			"sampler":0,
			"source":0
		},
		{
			"sampler":0,
			"source":1
		}
	],
	"images":[
		{
			"mimeType":"image/png",
			"name":"DefaultMaterial_Normal",
			"uri":"DefaultMaterial_Normal.png"
		},
		{
			"mimeType":"image/png",
			"name":"DefaultMaterial_BaseColor",
			"uri":"DefaultMaterial_BaseColor.png"
		}
	],
	"skins":[
		{
			"inverseBindMatrices":6,
			"joints":[
				3,
				2,
				1,
				0,
				4
			],
			"name":"Armature.002"
		}
	],
	"accessors":[
		{
			"bufferView":0,
			"componentType":5126,
			"count":5630,
			"max":[
				2.442868232727051,
				7.274176597595215,
				2.442659616470337
			],
			"min":[
				-3.5686757564544678,
				-6.385787969520607e-07,
				-2.442659616470337
			],
			"type":"VEC3"
		},
		{
			"bufferView":1,
			"componentType":5126,
			"count":5630,
			"type":"VEC3"
		},
		{
			"bufferView":2,
			"componentType":5126,
			"count":5630,
			"type":"VEC2"
		},
		{
			"bufferView":3,
			"componentType":5121,
			"count":5630,
			"type":"VEC4"
		},
		{
			"bufferView":4,
			"componentType":5126,
			"count":5630,
			"type":"VEC4"
		},
		{
			"bufferView":5,
			"componentType":5123,
			"count":14700,
			"type":"SCALAR"
		},
		{
			"bufferView":6,
			"componentType":5126,
			"count":5,
			"type":"MAT4"
		},
		{
			"bufferView":7,
			"componentType":5126,
			"count":2,
			"max":[
				1.6666666666666667
			],
			"min":[
				0.016666666666666666
			],
			"type":"SCALAR"
		},
		{
			"bufferView":8,
			"componentType":5126,
			"count":2,
			"type":"VEC3"
		},
		{
			"bufferView":9,
			"componentType":5126,
			"count":100,
			"max":[
				1.6666666666666667
			],
			"min":[
				0.016666666666666666
			],
			"type":"SCALAR"
		},
		{
			"bufferView":10,
			"componentType":5126,
			"count":100,
			"type":"VEC4"
		},
		{
			"bufferView":11,
			"componentType":5126,
			"count":2,
			"type":"VEC3"
		},
		{
			"bufferView":12,
			"componentType":5126,
			"count":2,
			"type":"VEC3"
		},
		{
			"bufferView":13,
			"componentType":5126,
			"count":100,
			"type":"VEC4"
		},
		{
			"bufferView":14,
			"componentType":5126,
			"count":2,
			"type":"VEC3"
		},
		{
			"bufferView":15,
			"componentType":5126,
			"count":2,
			"type":"VEC3"
		},
		{
			"bufferView":16,
			"componentType":5126,
			"count":100,
			"type":"VEC4"
		},
		{
			"bufferView":17,
			"componentType":5126,
			"count":2,
			"type":"VEC3"
		},
		{
			"bufferView":18,
			"componentType":5126,
			"count":2,
			"type":"VEC3"
		},
		{
			"bufferView":19,
			"componentType":5126,
			"count":2,
			"type":"VEC4"
		},
		{
			"bufferView":20,
			"componentType":5126,
			"count":2,
			"type":"VEC3"
		}
	],
	"bufferViews":[
		{
			"buffer":0,
			"byteLength":67560,
			"byteOffset":0,
			"target":34962
		},
		{
			"buffer":0,
			"byteLength":67560,
			"byteOffset":67560,
			"target":34962
		},
		{
			"buffer":0,
			"byteLength":45040,
			"byteOffset":135120,
			"target":34962
		},
		{
			"buffer":0,
			"byteLength":22520,
			"byteOffset":180160,
			"target":34962
		},
		{
			"buffer":0,
			"byteLength":90080,
			"byteOffset":202680,
			"target":34962
		},
		{
			"buffer":0,
			"byteLength":29400,
			"byteOffset":292760,
			"target":34963
		},
		{
			"buffer":0,
			"byteLength":320,
			"byteOffset":322160
		},
		{
			"buffer":0,
			"byteLength":8,
			"byteOffset":322480
		},
		{
			"buffer":0,
			"byteLength":24,
			"byteOffset":322488
		},
		{
			"buffer":0,
			"byteLength":400,
			"byteOffset":322512
		},
		{
			"buffer":0,
			"byteLength":1600,
			"byteOffset":322912
		},
		{
			"buffer":0,
			"byteLength":24,
			"byteOffset":324512
		},
		{
			"buffer":0,
			"byteLength":24,
			"byteOffset":324536
		},
		{
			"buffer":0,
			"byteLength":1600,
			"byteOffset":324560
		},
		{
			"buffer":0,
			"byteLength":24,
			"byteOffset":326160
		},
		{
			"buffer":0,
			"byteLength":24,
			"byteOffset":326184
		},
		{
			"buffer":0,
			"byteLength":1600,
			"byteOffset":326208
		},
		{
			"buffer":0,
			"byteLength":24,
			"byteOffset":327808
		},
		{
			"buffer":0,
			"byteLength":24,
			"byteOffset":327832
		},
		{
			"buffer":0,
			"byteLength":32,
			"byteOffset":327856
		},
		{
			"buffer":0,
			"byteLength":24,
			"byteOffset":327888
		}
	],
	"samplers":[
		{
			"magFilter":9729,
			"minFilter":9987
		}
	],
	"buffers":[
		{
			"byteLength":327912,
			"uri":"checkpoint.bin"
		}
	]
}
