{
	"asset":{
		"generator":"Khronos glTF Blender I/O v4.2.70",
		"version":"2.0"
	},
	"scene":0,
	"scenes":[
		{
			"name":"Scene",
			"nodes":[
				0
			]
		}
	],
	"nodes":[
		{
			"mesh":0,
			"name":"Cube.007",
			"rotation":[
				0,
				0,
				-0.5496243834495544,
				0.8354119062423706
			],
			"translation":[
				3.8511040210723877,
				5.048351764678955,
				1.2833821773529053
			]
		}
	],
	"materials":[
		{
			"doubleSided":true,
			"name":"Material.013",
			"pbrMetallicRoughness":{
				"baseColorTexture":{
					"index":0
				},
				"metallicFactor":0,
				"roughnessFactor":0.5
			}
		}
	],
	"meshes":[
		{
			"name":"Cube.009",
			"primitives":[
				{
					"attributes":{
						"POSITION":0,
						"NORMAL":1,
						"TEXCOORD_0":2
					},
					"indices":3,
					"material":0
				}
			]
		}
	],
	"textures":[
		{
			"sampler":0,
			"source":0
		}
	],
	"images":[
		{
			"mimeType":"image/png",
			"name":"GoudaOutline",
			"uri":"GoudaOutline.png"
		}
	],
	"accessors":[
		{
			"bufferView":0,
			"componentType":5126,
			"count":2084,
			"max":[
				0.5476611852645874,
				0.3996124863624573,
				0.3210855722427368
			],
			"min":[
				-0.43692803382873535,
				-0.3902142345905304,
				-0.3442831337451935
			],
			"type":"VEC3"
		},
		{
			"bufferView":1,
			"componentType":5126,
			"count":2084,
			"type":"VEC3"
		},
		{
			"bufferView":2,
			"componentType":5126,
			"count":2084,
			"type":"VEC2"
		},
		{
			"bufferView":3,
			"componentType":5123,
			"count":3636,
			"type":"SCALAR"
		}
	],
	"bufferViews":[
		{
			"buffer":0,
			"byteLength":25008,
			"byteOffset":0,
			"target":34962
		},
		{
			"buffer":0,
			"byteLength":25008,
			"byteOffset":25008,
			"target":34962
		},
		{
			"buffer":0,
			"byteLength":16672,
			"byteOffset":50016,
			"target":34962
		},
		{
			"buffer":0,
			"byteLength":7272,
			"byteOffset":66688,
			"target":34963
		}
	],
	"samplers":[
		{
			"magFilter":9729,
			"minFilter":9987
		}
	],
	"buffers":[
		{
			"byteLength":73960,
			"uri":"GoJustGo.bin"
		}
	]
}
