{
	"asset":{
		"generator":"Khronos glTF Blender I/O v4.2.69",
		"version":"2.0"
	},
	"scene":0,
	"scenes":[
		{
			"name":"Scene",
			"nodes":[
				8
			]
		}
	],
	"nodes":[
		{
			"name":"Bone.002",
			"rotation":[
				-2.0976119685656158e-07,
				2.6924654505933177e-08,
				-0.4671128988265991,
				0.8841976523399353
			],
			"scale":[
				1.0000001192092896,
				0.9999999403953552,
				1.0000001192092896
			],
			"translation":[
				-1.4901159772762185e-07,
				2.6201038360595703,
				1.3500311979441904e-13
			]
		},
		{
			"name":"Bone.004",
			"rotation":[
				-0.7071067094802856,
				-2.100075002786639e-09,
				1.5595055913308897e-07,
				0.7071068286895752
			],
			"scale":[
				1.0000001192092896,
				1.0000001192092896,
				1.0000001192092896
			],
			"translation":[
				-1.4901159772762185e-07,
				2.6201038360595703,
				1.3500311979441904e-13
			]
		},
		{
			"children":[
				0,
				1
			],
			"name":"Bone.001",
			"rotation":[
				-2.482444756424229e-07,
				-5.828513849337469e-08,
				-0.8839579224586487,
				0.46756646037101746
			],
			"scale":[
				0.9999998807907104,
				1,
				1
			],
			"translation":[
				-2.9802293965985882e-08,
				2.4641616344451904,
				2.1316282072803006e-14
			]
		},
		{
			"name":"Bone.003",
			"rotation":[
				-0.70710688829422,
				1.8197644280348868e-08,
				1.0249135584672331e-07,
				0.7071066498756409
			],
			"scale":[
				0.9999999403953552,
				1,
				0.9999999403953552
			],
			"translation":[
				-2.9802293965985882e-08,
				2.4641616344451904,
				2.1316282072803006e-14
			]
		},
		{
			"children":[
				2,
				3
			],
			"name":"Bone",
			"rotation":[
				0.6990123391151428,
				-0.10668560117483139,
				0.10668554902076721,
				0.699012279510498
			],
			"scale":[
				0.9999999403953552,
				1.0000001192092896,
				1.0000001192092896
			]
		},
		{
			"name":"Bone.005"
		},
		{
			"name":"Bone.006",
			"rotation":[
				-0.7071067690849304,
				0,
				0,
				0.7071067690849304
			]
		},
		{
			"mesh":0,
			"name":"Cube",
			"skin":0
		},
		{
			"children":[
				7,
				4,
				5,
				6
			],
			"name":"Armature",
			"translation":[
				-0.18901397287845612,
				0,
				1.8903138637542725
			]
		}
	],
	"animations":[
		{
			"channels":[
				{
					"sampler":0,
					"target":{
						"node":4,
						"path":"translation"
					}
				},
				{
					"sampler":1,
					"target":{
						"node":4,
						"path":"rotation"
					}
				},
				{
					"sampler":2,
					"target":{
						"node":4,
						"path":"scale"
					}
				},
				{
					"sampler":3,
					"target":{
						"node":2,
						"path":"translation"
					}
				},
				{
					"sampler":4,
					"target":{
						"node":2,
						"path":"rotation"
					}
				},
				{
					"sampler":5,
					"target":{
						"node":2,
						"path":"scale"
					}
				},
				{
					"sampler":6,
					"target":{
						"node":0,
						"path":"translation"
					}
				},
				{
					"sampler":7,
					"target":{
						"node":0,
						"path":"rotation"
					}
				},
				{
					"sampler":8,
					"target":{
						"node":0,
						"path":"scale"
					}
				},
				{
					"sampler":9,
					"target":{
						"node":1,
						"path":"translation"
					}
				},
				{
					"sampler":10,
					"target":{
						"node":1,
						"path":"rotation"
					}
				},
				{
					"sampler":11,
					"target":{
						"node":1,
						"path":"scale"
					}
				},
				{
					"sampler":12,
					"target":{
						"node":3,
						"path":"translation"
					}
				},
				{
					"sampler":13,
					"target":{
						"node":3,
						"path":"rotation"
					}
				},
				{
					"sampler":14,
					"target":{
						"node":3,
						"path":"scale"
					}
				},
				{
					"sampler":15,
					"target":{
						"node":5,
						"path":"translation"
					}
				},
				{
					"sampler":16,
					"target":{
						"node":5,
						"path":"rotation"
					}
				},
				{
					"sampler":17,
					"target":{
						"node":5,
						"path":"scale"
					}
				},
				{
					"sampler":18,
					"target":{
						"node":6,
						"path":"translation"
					}
				},
				{
					"sampler":19,
					"target":{
						"node":6,
						"path":"rotation"
					}
				},
				{
					"sampler":20,
					"target":{
						"node":6,
						"path":"scale"
					}
				},
				{
					"sampler":21,
					"target":{
						"node":8,
						"path":"translation"
					}
				},
				{
					"sampler":22,
					"target":{
						"node":8,
						"path":"rotation"
					}
				},
				{
					"sampler":23,
					"target":{
						"node":8,
						"path":"scale"
					}
				}
			],
			"name":"ArmatureAction",
			"samplers":[
				{
					"input":7,
					"interpolation":"STEP",
					"output":8
				},
				{
					"input":9,
					"interpolation":"LINEAR",
					"output":10
				},
				{
					"input":7,
					"interpolation":"STEP",
					"output":11
				},
				{
					"input":7,
					"interpolation":"STEP",
					"output":12
				},
				{
					"input":9,
					"interpolation":"LINEAR",
					"output":13
				},
				{
					"input":7,
					"interpolation":"STEP",
					"output":14
				},
				{
					"input":7,
					"interpolation":"STEP",
					"output":15
				},
				{
					"input":9,
					"interpolation":"LINEAR",
					"output":16
				},
				{
					"input":7,
					"interpolation":"STEP",
					"output":17
				},
				{
					"input":7,
					"interpolation":"STEP",
					"output":18
				},
				{
					"input":7,
					"interpolation":"STEP",
					"output":19
				},
				{
					"input":7,
					"interpolation":"STEP",
					"output":20
				},
				{
					"input":7,
					"interpolation":"STEP",
					"output":21
				},
				{
					"input":7,
					"interpolation":"STEP",
					"output":22
				},
				{
					"input":7,
					"interpolation":"STEP",
					"output":23
				},
				{
					"input":7,
					"interpolation":"STEP",
					"output":24
				},
				{
					"input":7,
					"interpolation":"STEP",
					"output":25
				},
				{
					"input":7,
					"interpolation":"STEP",
					"output":26
				},
				{
					"input":7,
					"interpolation":"STEP",
					"output":27
				},
				{
					"input":7,
					"interpolation":"STEP",
					"output":28
				},
				{
					"input":7,
					"interpolation":"STEP",
					"output":29
				},
				{
					"input":7,
					"interpolation":"STEP",
					"output":30
				},
				{
					"input":7,
					"interpolation":"STEP",
					"output":31
				},
				{
					"input":7,
					"interpolation":"STEP",
					"output":32
				}
			]
		},
		{
			"channels":[
				{
					"sampler":0,
					"target":{
						"node":7,
						"path":"translation"
					}
				},
				{
					"sampler":1,
					"target":{
						"node":7,
						"path":"rotation"
					}
				},
				{
					"sampler":2,
					"target":{
						"node":7,
						"path":"scale"
					}
				}
			],
			"name":"CubeAction.001",
			"samplers":[
				{
					"input":33,
					"interpolation":"LINEAR",
					"output":34
				},
				{
					"input":33,
					"interpolation":"LINEAR",
					"output":35
				},
				{
					"input":33,
					"interpolation":"LINEAR",
					"output":36
				}
			]
		}
	],
	"materials":[
		{
			"doubleSided":true,
			"name":"Material",
			"pbrMetallicRoughness":{
				"baseColorTexture":{
					"index":0
				},
				"metallicFactor":0,
				"roughnessFactor":0.5
			}
		}
	],
	"meshes":[
		{
			"name":"Cube.001",
			"primitives":[
				{
					"attributes":{
						"POSITION":0,
						"NORMAL":1,
						"TEXCOORD_0":2,
						"JOINTS_0":3,
						"WEIGHTS_0":4
					},
					"indices":5,
					"material":0
				}
			]
		}
	],
	"textures":[
		{
			"sampler":0,
			"source":0
		}
	],
	"images":[
		{
			"mimeType":"image/png",
			"name":"mecha_ramie_diffuse.png",
			"uri":"mecha_ramie_diffuse.png"
		}
	],
	"skins":[
		{
			"inverseBindMatrices":6,
			"joints":[
				4,
				2,
				0,
				1,
				3,
				5,
				6
			],
			"name":"Armature"
		}
	],
	"accessors":[
		{
			"bufferView":0,
			"componentType":5126,
			"count":1114,
			"max":[
				2.1852097511291504,
				1,
				5.096189975738525
			],
			"min":[
				-1.778404712677002,
				-1,
				2.9802322387695312e-08
			],
			"type":"VEC3"
		},
		{
			"bufferView":1,
			"componentType":5126,
			"count":1114,
			"type":"VEC3"
		},
		{
			"bufferView":2,
			"componentType":5126,
			"count":1114,
			"type":"VEC2"
		},
		{
			"bufferView":3,
			"componentType":5121,
			"count":1114,
			"type":"VEC4"
		},
		{
			"bufferView":4,
			"componentType":5126,
			"count":1114,
			"type":"VEC4"
		},
		{
			"bufferView":5,
			"componentType":5123,
			"count":2706,
			"type":"SCALAR"
		},
		{
			"bufferView":6,
			"componentType":5126,
			"count":7,
			"type":"MAT4"
		},
		{
			"bufferView":7,
			"componentType":5126,
			"count":2,
			"max":[
				2.2916666666666665
			],
			"min":[
				0.041666666666666664
			],
			"type":"SCALAR"
		},
		{
			"bufferView":8,
			"componentType":5126,
			"count":2,
			"type":"VEC3"
		},
		{
			"bufferView":9,
			"componentType":5126,
			"count":55,
			"max":[
				2.2916666666666665
			],
			"min":[
				0.041666666666666664
			],
			"type":"SCALAR"
		},
		{
			"bufferView":10,
			"componentType":5126,
			"count":55,
			"type":"VEC4"
		},
		{
			"bufferView":11,
			"componentType":5126,
			"count":2,
			"type":"VEC3"
		},
		{
			"bufferView":12,
			"componentType":5126,
			"count":2,
			"type":"VEC3"
		},
		{
			"bufferView":13,
			"componentType":5126,
			"count":55,
			"type":"VEC4"
		},
		{
			"bufferView":14,
			"componentType":5126,
			"count":2,
			"type":"VEC3"
		},
		{
			"bufferView":15,
			"componentType":5126,
			"count":2,
			"type":"VEC3"
		},
		{
			"bufferView":16,
			"componentType":5126,
			"count":55,
			"type":"VEC4"
		},
		{
			"bufferView":17,
			"componentType":5126,
			"count":2,
			"type":"VEC3"
		},
		{
			"bufferView":18,
			"componentType":5126,
			"count":2,
			"type":"VEC3"
		},
		{
			"bufferView":19,
			"componentType":5126,
			"count":2,
			"type":"VEC4"
		},
		{
			"bufferView":20,
			"componentType":5126,
			"count":2,
			"type":"VEC3"
		},
		{
			"bufferView":21,
			"componentType":5126,
			"count":2,
			"type":"VEC3"
		},
		{
			"bufferView":22,
			"componentType":5126,
			"count":2,
			"type":"VEC4"
		},
		{
			"bufferView":23,
			"componentType":5126,
			"count":2,
			"type":"VEC3"
		},
		{
			"bufferView":24,
			"componentType":5126,
			"count":2,
			"type":"VEC3"
		},
		{
			"bufferView":25,
			"componentType":5126,
			"count":2,
			"type":"VEC4"
		},
		{
			"bufferView":26,
			"componentType":5126,
			"count":2,
			"type":"VEC3"
		},
		{
			"bufferView":27,
			"componentType":5126,
			"count":2,
			"type":"VEC3"
		},
		{
			"bufferView":28,
			"componentType":5126,
			"count":2,
			"type":"VEC4"
		},
		{
			"bufferView":29,
			"componentType":5126,
			"count":2,
			"type":"VEC3"
		},
		{
			"bufferView":30,
			"componentType":5126,
			"count":2,
			"type":"VEC3"
		},
		{
			"bufferView":31,
			"componentType":5126,
			"count":2,
			"type":"VEC4"
		},
		{
			"bufferView":32,
			"componentType":5126,
			"count":2,
			"type":"VEC3"
		},
		{
			"bufferView":33,
			"componentType":5126,
			"count":1,
			"max":[
				0.041666666666666664
			],
			"min":[
				0.041666666666666664
			],
			"type":"SCALAR"
		},
		{
			"bufferView":34,
			"componentType":5126,
			"count":1,
			"type":"VEC3"
		},
		{
			"bufferView":35,
			"componentType":5126,
			"count":1,
			"type":"VEC4"
		},
		{
			"bufferView":36,
			"componentType":5126,
			"count":1,
			"type":"VEC3"
		}
	],
	"bufferViews":[
		{
			"buffer":0,
			"byteLength":13368,
			"byteOffset":0,
			"target":34962
		},
		{
			"buffer":0,
			"byteLength":13368,
			"byteOffset":13368,
			"target":34962
		},
		{
			"buffer":0,
			"byteLength":8912,
			"byteOffset":26736,
			"target":34962
		},
		{
			"buffer":0,
			"byteLength":4456,
			"byteOffset":35648,
			"target":34962
		},
		{
			"buffer":0,
			"byteLength":17824,
			"byteOffset":40104,
			"target":34962
		},
		{
			"buffer":0,
			"byteLength":5412,
			"byteOffset":57928,
			"target":34963
		},
		{
			"buffer":0,
			"byteLength":448,
			"byteOffset":63340
		},
		{
			"buffer":0,
			"byteLength":8,
			"byteOffset":63788
		},
		{
			"buffer":0,
			"byteLength":24,
			"byteOffset":63796
		},
		{
			"buffer":0,
			"byteLength":220,
			"byteOffset":63820
		},
		{
			"buffer":0,
			"byteLength":880,
			"byteOffset":64040
		},
		{
			"buffer":0,
			"byteLength":24,
			"byteOffset":64920
		},
		{
			"buffer":0,
			"byteLength":24,
			"byteOffset":64944
		},
		{
			"buffer":0,
			"byteLength":880,
			"byteOffset":64968
		},
		{
			"buffer":0,
			"byteLength":24,
			"byteOffset":65848
		},
		{
			"buffer":0,
			"byteLength":24,
			"byteOffset":65872
		},
		{
			"buffer":0,
			"byteLength":880,
			"byteOffset":65896
		},
		{
			"buffer":0,
			"byteLength":24,
			"byteOffset":66776
		},
		{
			"buffer":0,
			"byteLength":24,
			"byteOffset":66800
		},
		{
			"buffer":0,
			"byteLength":32,
			"byteOffset":66824
		},
		{
			"buffer":0,
			"byteLength":24,
			"byteOffset":66856
		},
		{
			"buffer":0,
			"byteLength":24,
			"byteOffset":66880
		},
		{
			"buffer":0,
			"byteLength":32,
			"byteOffset":66904
		},
		{
			"buffer":0,
			"byteLength":24,
			"byteOffset":66936
		},
		{
			"buffer":0,
			"byteLength":24,
			"byteOffset":66960
		},
		{
			"buffer":0,
			"byteLength":32,
			"byteOffset":66984
		},
		{
			"buffer":0,
			"byteLength":24,
			"byteOffset":67016
		},
		{
			"buffer":0,
			"byteLength":24,
			"byteOffset":67040
		},
		{
			"buffer":0,
			"byteLength":32,
			"byteOffset":67064
		},
		{
			"buffer":0,
			"byteLength":24,
			"byteOffset":67096
		},
		{
			"buffer":0,
			"byteLength":24,
			"byteOffset":67120
		},
		{
			"buffer":0,
			"byteLength":32,
			"byteOffset":67144
		},
		{
			"buffer":0,
			"byteLength":24,
			"byteOffset":67176
		},
		{
			"buffer":0,
			"byteLength":4,
			"byteOffset":67200
		},
		{
			"buffer":0,
			"byteLength":12,
			"byteOffset":67204
		},
		{
			"buffer":0,
			"byteLength":16,
			"byteOffset":67216
		},
		{
			"buffer":0,
			"byteLength":12,
			"byteOffset":67232
		}
	],
	"samplers":[
		{
			"magFilter":9729,
			"minFilter":9987
		}
	],
	"buffers":[
		{
			"byteLength":67244,
			"uri":"mecha_ramie1.bin"
		}
	]
}
