{
	"asset":{
		"generator":"Khronos glTF Blender I/O v4.2.69",
		"version":"2.0"
	},
	"scene":0,
	"scenes":[
		{
			"name":"Scene",
			"nodes":[
				0,
				1,
				10
			]
		}
	],
	"nodes":[
		{
			"mesh":0,
			"name":"Cube",
			"scale":[
				1,
				1,
				0.3999999761581421
			],
			"translation":[
				0,
				0,
				0.4000000059604645
			]
		},
		{
			"mesh":1,
			"name":"Cylinder",
			"rotation":[
				0.7071068286895752,
				0,
				0,
				0.7071068286895752
			],
			"scale":[
				0.5946904420852661,
				0.5946904420852661,
				0.26702070236206055
			],
			"translation":[
				-0.18901397287845612,
				0,
				1.8903138637542725
			]
		},
		{
			"mesh":3,
			"name":"Cylinder.002",
			"rotation":[
				1.868966137408279e-07,
				-1.1462658022765027e-07,
				0.9884751439094543,
				0.15138332545757294
			],
			"scale":[
				0.3879872262477875,
				0.3879872262477875,
				0.26702067255973816
			],
			"translation":[
				-0.01336514949798584,
				0.010015308856964111,
				-5.66050317729605e-08
			]
		},
		{
			"children":[
				2
			],
			"name":"Bone.002",
			"rotation":[
				-2.0976119685656158e-07,
				2.6924654505933177e-08,
				-0.4671128988265991,
				0.8841976523399353
			],
			"scale":[
				1.0000001192092896,
				0.9999999403953552,
				1.0000001192092896
			],
			"translation":[
				-1.4901159772762185e-07,
				2.6201038360595703,
				1.3500311979441904e-13
			]
		},
		{
			"mesh":4,
			"name":"Cylinder.001",
			"rotation":[
				8.395546302608636e-08,
				3.3144210931368434e-08,
				0.8032943606376648,
				0.5955822467803955
			],
			"scale":[
				0.853024423122406,
				0.8530243635177612,
				0.304301917552948
			],
			"translation":[
				-0.0004583001136779785,
				-0.0015097260475158691,
				-1.6513320133526577e-07
			]
		},
		{
			"children":[
				3,
				4
			],
			"name":"Bone.001",
			"rotation":[
				-2.482444756424229e-07,
				-5.828513849337469e-08,
				-0.8839579224586487,
				0.46756646037101746
			],
			"scale":[
				0.9999998807907104,
				1,
				1
			],
			"translation":[
				-2.9802293965985882e-08,
				2.4641616344451904,
				2.1316282072803006e-14
			]
		},
		{
			"children":[
				5
			],
			"name":"Bone",
			"rotation":[
				0.6990123391151428,
				-0.10668560117483139,
				0.10668554902076721,
				0.699012279510498
			],
			"scale":[
				0.9999999403953552,
				1.0000001192092896,
				1.0000001192092896
			]
		},
		{
			"mesh":2,
			"name":"Cube.001",
			"skin":0
		},
		{
			"mesh":5,
			"name":"Cube.002",
			"skin":0
		},
		{
			"mesh":6,
			"name":"Cube.003",
			"skin":0
		},
		{
			"children":[
				7,
				8,
				9,
				6
			],
			"name":"Armature",
			"translation":[
				-0.18901397287845612,
				0,
				1.8903138637542725
			]
		}
	],
	"animations":[
		{
			"channels":[
				{
					"sampler":0,
					"target":{
						"node":6,
						"path":"translation"
					}
				},
				{
					"sampler":1,
					"target":{
						"node":6,
						"path":"rotation"
					}
				},
				{
					"sampler":2,
					"target":{
						"node":6,
						"path":"scale"
					}
				},
				{
					"sampler":3,
					"target":{
						"node":5,
						"path":"translation"
					}
				},
				{
					"sampler":4,
					"target":{
						"node":5,
						"path":"rotation"
					}
				},
				{
					"sampler":5,
					"target":{
						"node":5,
						"path":"scale"
					}
				},
				{
					"sampler":6,
					"target":{
						"node":3,
						"path":"translation"
					}
				},
				{
					"sampler":7,
					"target":{
						"node":3,
						"path":"rotation"
					}
				},
				{
					"sampler":8,
					"target":{
						"node":3,
						"path":"scale"
					}
				}
			],
			"name":"Armature",
			"samplers":[
				{
					"input":50,
					"interpolation":"STEP",
					"output":51
				},
				{
					"input":52,
					"interpolation":"LINEAR",
					"output":53
				},
				{
					"input":50,
					"interpolation":"STEP",
					"output":54
				},
				{
					"input":50,
					"interpolation":"STEP",
					"output":55
				},
				{
					"input":52,
					"interpolation":"LINEAR",
					"output":56
				},
				{
					"input":50,
					"interpolation":"STEP",
					"output":57
				},
				{
					"input":50,
					"interpolation":"STEP",
					"output":58
				},
				{
					"input":52,
					"interpolation":"LINEAR",
					"output":59
				},
				{
					"input":50,
					"interpolation":"STEP",
					"output":60
				}
			]
		}
	],
	"materials":[
		{
			"doubleSided":true,
			"name":"Dark",
			"pbrMetallicRoughness":{
				"baseColorFactor":[
					0.07379995286464691,
					0.07170011103153229,
					0.07005751878023148,
					1
				],
				"metallicFactor":0,
				"roughnessFactor":0.5
			}
		},
		{
			"doubleSided":true,
			"name":"Light",
			"pbrMetallicRoughness":{
				"baseColorFactor":[
					0.1661297231912613,
					0.17905193567276,
					0.16158637404441833,
					1
				],
				"metallicFactor":0,
				"roughnessFactor":0.5
			}
		},
		{
			"doubleSided":true,
			"name":"Blue",
			"pbrMetallicRoughness":{
				"baseColorFactor":[
					0.23963001370429993,
					0.5007405281066895,
					0.5676925778388977,
					1
				],
				"metallicFactor":0,
				"roughnessFactor":0.5
			}
		}
	],
	"meshes":[
		{
			"name":"Cube.001",
			"primitives":[
				{
					"attributes":{
						"POSITION":0,
						"NORMAL":1,
						"TEXCOORD_0":2
					},
					"indices":3,
					"material":0
				}
			]
		},
		{
			"name":"Cylinder",
			"primitives":[
				{
					"attributes":{
						"POSITION":4,
						"NORMAL":5,
						"TEXCOORD_0":6
					},
					"indices":7,
					"material":1
				}
			]
		},
		{
			"name":"Cube.002",
			"primitives":[
				{
					"attributes":{
						"POSITION":8,
						"NORMAL":9,
						"TEXCOORD_0":10,
						"JOINTS_0":11,
						"WEIGHTS_0":12
					},
					"indices":13,
					"material":0
				},
				{
					"attributes":{
						"POSITION":14,
						"NORMAL":15,
						"TEXCOORD_0":16,
						"JOINTS_0":17,
						"WEIGHTS_0":18
					},
					"indices":19,
					"material":2
				}
			]
		},
		{
			"name":"Cylinder.002",
			"primitives":[
				{
					"attributes":{
						"POSITION":21,
						"NORMAL":22,
						"TEXCOORD_0":23
					},
					"indices":24,
					"material":1
				}
			]
		},
		{
			"name":"Cylinder.001",
			"primitives":[
				{
					"attributes":{
						"POSITION":25,
						"NORMAL":26,
						"TEXCOORD_0":27
					},
					"indices":28,
					"material":1
				},
				{
					"attributes":{
						"POSITION":29,
						"NORMAL":30,
						"TEXCOORD_0":31
					},
					"indices":32,
					"material":2
				}
			]
		},
		{
			"name":"Cube.003",
			"primitives":[
				{
					"attributes":{
						"POSITION":33,
						"NORMAL":34,
						"TEXCOORD_0":35,
						"JOINTS_0":36,
						"WEIGHTS_0":37
					},
					"indices":38,
					"material":0
				},
				{
					"attributes":{
						"POSITION":39,
						"NORMAL":40,
						"TEXCOORD_0":41,
						"JOINTS_0":42,
						"WEIGHTS_0":43
					},
					"indices":19,
					"material":2
				}
			]
		},
		{
			"name":"Cube.004",
			"primitives":[
				{
					"attributes":{
						"POSITION":44,
						"NORMAL":45,
						"TEXCOORD_0":46,
						"JOINTS_0":47,
						"WEIGHTS_0":48
					},
					"indices":49,
					"material":0
				}
			]
		}
	],
	"skins":[
		{
			"inverseBindMatrices":20,
			"joints":[
				6,
				5,
				3
			],
			"name":"Armature"
		}
	],
	"accessors":[
		{
			"bufferView":0,
			"componentType":5126,
			"count":56,
			"max":[
				1,
				1,
				3.432419776916504
			],
			"min":[
				-1,
				-1,
				-1
			],
			"type":"VEC3"
		},
		{
			"bufferView":1,
			"componentType":5126,
			"count":56,
			"type":"VEC3"
		},
		{
			"bufferView":2,
			"componentType":5126,
			"count":56,
			"type":"VEC2"
		},
		{
			"bufferView":3,
			"componentType":5123,
			"count":84,
			"type":"SCALAR"
		},
		{
			"bufferView":4,
			"componentType":5126,
			"count":296,
			"max":[
				1,
				1,
				1.037360429763794
			],
			"min":[
				-1,
				-1,
				-1.037360429763794
			],
			"type":"VEC3"
		},
		{
			"bufferView":5,
			"componentType":5126,
			"count":296,
			"type":"VEC3"
		},
		{
			"bufferView":6,
			"componentType":5126,
			"count":296,
			"type":"VEC2"
		},
		{
			"bufferView":7,
			"componentType":5123,
			"count":768,
			"type":"SCALAR"
		},
		{
			"bufferView":8,
			"componentType":5126,
			"count":64,
			"max":[
				-0.02736065164208412,
				0.2261488288640976,
				3.7832536697387695
			],
			"min":[
				-0.9956382513046265,
				-0.2261488288640976,
				1.9299870729446411
			],
			"type":"VEC3"
		},
		{
			"bufferView":9,
			"componentType":5126,
			"count":64,
			"type":"VEC3"
		},
		{
			"bufferView":10,
			"componentType":5126,
			"count":64,
			"type":"VEC2"
		},
		{
			"bufferView":11,
			"componentType":5121,
			"count":64,
			"type":"VEC4"
		},
		{
			"bufferView":12,
			"componentType":5126,
			"count":64,
			"type":"VEC4"
		},
		{
			"bufferView":13,
			"componentType":5123,
			"count":120,
			"type":"SCALAR"
		},
		{
			"bufferView":14,
			"componentType":5126,
			"count":8,
			"max":[
				-0.22643068432807922,
				0.17091064155101776,
				3.584183692932129
			],
			"min":[
				-0.7965682148933411,
				-0.17091064155101776,
				2.1290571689605713
			],
			"type":"VEC3"
		},
		{
			"bufferView":15,
			"componentType":5126,
			"count":8,
			"type":"VEC3"
		},
		{
			"bufferView":16,
			"componentType":5126,
			"count":8,
			"type":"VEC2"
		},
		{
			"bufferView":17,
			"componentType":5121,
			"count":8,
			"type":"VEC4"
		},
		{
			"bufferView":18,
			"componentType":5126,
			"count":8,
			"type":"VEC4"
		},
		{
			"bufferView":19,
			"componentType":5123,
			"count":12,
			"type":"SCALAR"
		},
		{
			"bufferView":20,
			"componentType":5126,
			"count":3,
			"type":"MAT4"
		},
		{
			"bufferView":21,
			"componentType":5126,
			"count":216,
			"max":[
				1,
				1,
				1
			],
			"min":[
				-1,
				-1,
				-1
			],
			"type":"VEC3"
		},
		{
			"bufferView":22,
			"componentType":5126,
			"count":216,
			"type":"VEC3"
		},
		{
			"bufferView":23,
			"componentType":5126,
			"count":216,
			"type":"VEC2"
		},
		{
			"bufferView":24,
			"componentType":5123,
			"count":564,
			"type":"SCALAR"
		},
		{
			"bufferView":25,
			"componentType":5126,
			"count":298,
			"max":[
				1,
				1,
				1
			],
			"min":[
				-1,
				-1,
				-1
			],
			"type":"VEC3"
		},
		{
			"bufferView":26,
			"componentType":5126,
			"count":298,
			"type":"VEC3"
		},
		{
			"bufferView":27,
			"componentType":5126,
			"count":298,
			"type":"VEC2"
		},
		{
			"bufferView":28,
			"componentType":5123,
			"count":768,
			"type":"SCALAR"
		},
		{
			"bufferView":29,
			"componentType":5126,
			"count":64,
			"max":[
				0.7570697665214539,
				0.7570697665214539,
				0.8089505434036255
			],
			"min":[
				-0.7570697665214539,
				-0.7570697665214539,
				-0.8089505434036255
			],
			"type":"VEC3"
		},
		{
			"bufferView":30,
			"componentType":5126,
			"count":64,
			"type":"VEC3"
		},
		{
			"bufferView":31,
			"componentType":5126,
			"count":64,
			"type":"VEC2"
		},
		{
			"bufferView":32,
			"componentType":5123,
			"count":192,
			"type":"SCALAR"
		},
		{
			"bufferView":33,
			"componentType":5126,
			"count":64,
			"max":[
				1.5694341659545898,
				0.2261488288640976,
				4.325611114501953
			],
			"min":[
				-0.281268835067749,
				-0.2261488288640976,
				3.30623722076416
			],
			"type":"VEC3"
		},
		{
			"bufferView":34,
			"componentType":5126,
			"count":64,
			"type":"VEC3"
		},
		{
			"bufferView":35,
			"componentType":5126,
			"count":64,
			"type":"VEC2"
		},
		{
			"bufferView":36,
			"componentType":5121,
			"count":64,
			"type":"VEC4"
		},
		{
			"bufferView":37,
			"componentType":5126,
			"count":64,
			"type":"VEC4"
		},
		{
			"bufferView":38,
			"componentType":5123,
			"count":120,
			"type":"SCALAR"
		},
		{
			"bufferView":39,
			"componentType":5126,
			"count":8,
			"max":[
				1.3445395231246948,
				0.17082765698432922,
				4.100716590881348
			],
			"min":[
				-0.0563741959631443,
				-0.17082765698432922,
				3.5311317443847656
			],
			"type":"VEC3"
		},
		{
			"bufferView":40,
			"componentType":5126,
			"count":8,
			"type":"VEC3"
		},
		{
			"bufferView":41,
			"componentType":5126,
			"count":8,
			"type":"VEC2"
		},
		{
			"bufferView":42,
			"componentType":5121,
			"count":8,
			"type":"VEC4"
		},
		{
			"bufferView":43,
			"componentType":5126,
			"count":8,
			"type":"VEC4"
		},
		{
			"bufferView":44,
			"componentType":5126,
			"count":40,
			"max":[
				2.1852097511291504,
				0.14886267483234406,
				3.281708240509033
			],
			"min":[
				1.543717861175537,
				-0.14886267483234406,
				1.5796122550964355
			],
			"type":"VEC3"
		},
		{
			"bufferView":45,
			"componentType":5126,
			"count":40,
			"type":"VEC3"
		},
		{
			"bufferView":46,
			"componentType":5126,
			"count":40,
			"type":"VEC2"
		},
		{
			"bufferView":47,
			"componentType":5121,
			"count":40,
			"type":"VEC4"
		},
		{
			"bufferView":48,
			"componentType":5126,
			"count":40,
			"type":"VEC4"
		},
		{
			"bufferView":49,
			"componentType":5123,
			"count":66,
			"type":"SCALAR"
		},
		{
			"bufferView":50,
			"componentType":5126,
			"count":2,
			"max":[
				2.6666666666666665
			],
			"min":[
				0.041666666666666664
			],
			"type":"SCALAR"
		},
		{
			"bufferView":51,
			"componentType":5126,
			"count":2,
			"type":"VEC3"
		},
		{
			"bufferView":52,
			"componentType":5126,
			"count":64,
			"max":[
				2.6666666666666665
			],
			"min":[
				0.041666666666666664
			],
			"type":"SCALAR"
		},
		{
			"bufferView":53,
			"componentType":5126,
			"count":64,
			"type":"VEC4"
		},
		{
			"bufferView":54,
			"componentType":5126,
			"count":2,
			"type":"VEC3"
		},
		{
			"bufferView":55,
			"componentType":5126,
			"count":2,
			"type":"VEC3"
		},
		{
			"bufferView":56,
			"componentType":5126,
			"count":64,
			"type":"VEC4"
		},
		{
			"bufferView":57,
			"componentType":5126,
			"count":2,
			"type":"VEC3"
		},
		{
			"bufferView":58,
			"componentType":5126,
			"count":2,
			"type":"VEC3"
		},
		{
			"bufferView":59,
			"componentType":5126,
			"count":64,
			"type":"VEC4"
		},
		{
			"bufferView":60,
			"componentType":5126,
			"count":2,
			"type":"VEC3"
		}
	],
	"bufferViews":[
		{
			"buffer":0,
			"byteLength":672,
			"byteOffset":0,
			"target":34962
		},
		{
			"buffer":0,
			"byteLength":672,
			"byteOffset":672,
			"target":34962
		},
		{
			"buffer":0,
			"byteLength":448,
			"byteOffset":1344,
			"target":34962
		},
		{
			"buffer":0,
			"byteLength":168,
			"byteOffset":1792,
			"target":34963
		},
		{
			"buffer":0,
			"byteLength":3552,
			"byteOffset":1960,
			"target":34962
		},
		{
			"buffer":0,
			"byteLength":3552,
			"byteOffset":5512,
			"target":34962
		},
		{
			"buffer":0,
			"byteLength":2368,
			"byteOffset":9064,
			"target":34962
		},
		{
			"buffer":0,
			"byteLength":1536,
			"byteOffset":11432,
			"target":34963
		},
		{
			"buffer":0,
			"byteLength":768,
			"byteOffset":12968,
			"target":34962
		},
		{
			"buffer":0,
			"byteLength":768,
			"byteOffset":13736,
			"target":34962
		},
		{
			"buffer":0,
			"byteLength":512,
			"byteOffset":14504,
			"target":34962
		},
		{
			"buffer":0,
			"byteLength":256,
			"byteOffset":15016,
			"target":34962
		},
		{
			"buffer":0,
			"byteLength":1024,
			"byteOffset":15272,
			"target":34962
		},
		{
			"buffer":0,
			"byteLength":240,
			"byteOffset":16296,
			"target":34963
		},
		{
			"buffer":0,
			"byteLength":96,
			"byteOffset":16536,
			"target":34962
		},
		{
			"buffer":0,
			"byteLength":96,
			"byteOffset":16632,
			"target":34962
		},
		{
			"buffer":0,
			"byteLength":64,
			"byteOffset":16728,
			"target":34962
		},
		{
			"buffer":0,
			"byteLength":32,
			"byteOffset":16792,
			"target":34962
		},
		{
			"buffer":0,
			"byteLength":128,
			"byteOffset":16824,
			"target":34962
		},
		{
			"buffer":0,
			"byteLength":24,
			"byteOffset":16952,
			"target":34963
		},
		{
			"buffer":0,
			"byteLength":192,
			"byteOffset":16976
		},
		{
			"buffer":0,
			"byteLength":2592,
			"byteOffset":17168,
			"target":34962
		},
		{
			"buffer":0,
			"byteLength":2592,
			"byteOffset":19760,
			"target":34962
		},
		{
			"buffer":0,
			"byteLength":1728,
			"byteOffset":22352,
			"target":34962
		},
		{
			"buffer":0,
			"byteLength":1128,
			"byteOffset":24080,
			"target":34963
		},
		{
			"buffer":0,
			"byteLength":3576,
			"byteOffset":25208,
			"target":34962
		},
		{
			"buffer":0,
			"byteLength":3576,
			"byteOffset":28784,
			"target":34962
		},
		{
			"buffer":0,
			"byteLength":2384,
			"byteOffset":32360,
			"target":34962
		},
		{
			"buffer":0,
			"byteLength":1536,
			"byteOffset":34744,
			"target":34963
		},
		{
			"buffer":0,
			"byteLength":768,
			"byteOffset":36280,
			"target":34962
		},
		{
			"buffer":0,
			"byteLength":768,
			"byteOffset":37048,
			"target":34962
		},
		{
			"buffer":0,
			"byteLength":512,
			"byteOffset":37816,
			"target":34962
		},
		{
			"buffer":0,
			"byteLength":384,
			"byteOffset":38328,
			"target":34963
		},
		{
			"buffer":0,
			"byteLength":768,
			"byteOffset":38712,
			"target":34962
		},
		{
			"buffer":0,
			"byteLength":768,
			"byteOffset":39480,
			"target":34962
		},
		{
			"buffer":0,
			"byteLength":512,
			"byteOffset":40248,
			"target":34962
		},
		{
			"buffer":0,
			"byteLength":256,
			"byteOffset":40760,
			"target":34962
		},
		{
			"buffer":0,
			"byteLength":1024,
			"byteOffset":41016,
			"target":34962
		},
		{
			"buffer":0,
			"byteLength":240,
			"byteOffset":42040,
			"target":34963
		},
		{
			"buffer":0,
			"byteLength":96,
			"byteOffset":42280,
			"target":34962
		},
		{
			"buffer":0,
			"byteLength":96,
			"byteOffset":42376,
			"target":34962
		},
		{
			"buffer":0,
			"byteLength":64,
			"byteOffset":42472,
			"target":34962
		},
		{
			"buffer":0,
			"byteLength":32,
			"byteOffset":42536,
			"target":34962
		},
		{
			"buffer":0,
			"byteLength":128,
			"byteOffset":42568,
			"target":34962
		},
		{
			"buffer":0,
			"byteLength":480,
			"byteOffset":42696,
			"target":34962
		},
		{
			"buffer":0,
			"byteLength":480,
			"byteOffset":43176,
			"target":34962
		},
		{
			"buffer":0,
			"byteLength":320,
			"byteOffset":43656,
			"target":34962
		},
		{
			"buffer":0,
			"byteLength":160,
			"byteOffset":43976,
			"target":34962
		},
		{
			"buffer":0,
			"byteLength":640,
			"byteOffset":44136,
			"target":34962
		},
		{
			"buffer":0,
			"byteLength":132,
			"byteOffset":44776,
			"target":34963
		},
		{
			"buffer":0,
			"byteLength":8,
			"byteOffset":44908
		},
		{
			"buffer":0,
			"byteLength":24,
			"byteOffset":44916
		},
		{
			"buffer":0,
			"byteLength":256,
			"byteOffset":44940
		},
		{
			"buffer":0,
			"byteLength":1024,
			"byteOffset":45196
		},
		{
			"buffer":0,
			"byteLength":24,
			"byteOffset":46220
		},
		{
			"buffer":0,
			"byteLength":24,
			"byteOffset":46244
		},
		{
			"buffer":0,
			"byteLength":1024,
			"byteOffset":46268
		},
		{
			"buffer":0,
			"byteLength":24,
			"byteOffset":47292
		},
		{
			"buffer":0,
			"byteLength":24,
			"byteOffset":47316
		},
		{
			"buffer":0,
			"byteLength":1024,
			"byteOffset":47340
		},
		{
			"buffer":0,
			"byteLength":24,
			"byteOffset":48364
		}
	],
	"buffers":[
		{
			"byteLength":48388,
			"uri":"mecha_ramie.bin"
		}
	]
}
