{
	"asset":{
		"generator":"Khronos glTF Blender I/O v4.2.70",
		"version":"2.0"
	},
	"scene":0,
	"scenes":[
		{
			"name":"Scene",
			"nodes":[
				0
			]
		}
	],
	"nodes":[
		{
			"mesh":0,
			"name":"Cylinder.021",
			"translation":[
				-0.00011527072638273239,
				-0.8987498879432678,
				-0.14053526520729065
			]
		}
	],
	"materials":[
		{
			"doubleSided":true,
			"name":"Material.005",
			"normalTexture":{
				"index":0
			},
			"pbrMetallicRoughness":{
				"baseColorTexture":{
					"index":1
				},
				"metallicRoughnessTexture":{
					"index":2
				}
			}
		}
	],
	"meshes":[
		{
			"name":"Cylinder.022",
			"primitives":[
				{
					"attributes":{
						"POSITION":0,
						"NORMAL":1,
						"TEXCOORD_0":2
					},
					"indices":3,
					"material":0
				}
			]
		}
	],
	"textures":[
		{
			"sampler":0,
			"source":0
		},
		{
			"sampler":0,
			"source":1
		},
		{
			"sampler":0,
			"source":2
		}
	],
	"images":[
		{
			"mimeType":"image/png",
			"name":"DefaultMaterial_Normal.png",
			"uri":"DefaultMaterial_Normal_png.png"
		},
		{
			"mimeType":"image/png",
			"name":"DefaultMaterial_Base_color.png",
			"uri":"DefaultMaterial_Base_color_png.png"
		},
		{
			"mimeType":"image/png",
			"name":"DefaultMaterial_Metallic.png-DefaultMaterial_Roughness.png",
			"uri":"DefaultMaterial_Metallic_png-DefaultMaterial_Roughness_png.png"
		}
	],
	"accessors":[
		{
			"bufferView":0,
			"componentType":5126,
			"count":950,
			"max":[
				0.7035993337631226,
				0.7035993337631226,
				1.248010516166687
			],
			"min":[
				-0.7035993337631226,
				-0.7035993337631226,
				-0.10373426973819733
			],
			"type":"VEC3"
		},
		{
			"bufferView":1,
			"componentType":5126,
			"count":950,
			"type":"VEC3"
		},
		{
			"bufferView":2,
			"componentType":5126,
			"count":950,
			"type":"VEC2"
		},
		{
			"bufferView":3,
			"componentType":5123,
			"count":1608,
			"type":"SCALAR"
		}
	],
	"bufferViews":[
		{
			"buffer":0,
			"byteLength":11400,
			"byteOffset":0,
			"target":34962
		},
		{
			"buffer":0,
			"byteLength":11400,
			"byteOffset":11400,
			"target":34962
		},
		{
			"buffer":0,
			"byteLength":7600,
			"byteOffset":22800,
			"target":34962
		},
		{
			"buffer":0,
			"byteLength":3216,
			"byteOffset":30400,
			"target":34963
		}
	],
	"samplers":[
		{
			"magFilter":9729,
			"minFilter":9987
		}
	],
	"buffers":[
		{
			"byteLength":33616,
			"uri":"AlarmLamp.bin"
		}
	]
}
