{
	"asset":{
		"generator":"Khronos glTF Blender I/O v4.2.69",
		"version":"2.0"
	},
	"scene":0,
	"scenes":[
		{
			"name":"Scene",
			"nodes":[
				0,
				6
			]
		}
	],
	"nodes":[
		{
			"mesh":0,
			"name":"Cube",
			"scale":[
				1,
				1,
				0.3999999761581421
			],
			"translation":[
				0,
				0,
				0.4000000059604645
			]
		},
		{
			"mesh":1,
			"name":"Cube.003",
			"rotation":[
				-0.7071068286895752,
				0,
				0,
				0.7071068286895752
			],
			"scale":[
				2.577404260635376,
				3.745028018951416,
				2.577404260635376
			]
		},
		{
			"children":[
				1
			],
			"mesh":2,
			"name":"Cylinder.002",
			"rotation":[
				0.41382896900177,
				-0.5733634233474731,
				0.5733634233474731,
				0.4138289988040924
			],
			"scale":[
				0.9699681401252747,
				0.9699681401252747,
				1.1807299852371216
			],
			"translation":[
				0.17784905433654785,
				0,
				6.510693550109863
			]
		},
		{
			"children":[
				2
			],
			"mesh":3,
			"name":"Cube.002",
			"rotation":[
				-0.41382893919944763,
				0.5733634233474731,
				-0.5733634233474731,
				0.4138290286064148
			],
			"scale":[
				0.4689197838306427,
				0.7431725859642029,
				0.4689197838306427
			]
		},
		{
			"children":[
				3
			],
			"mesh":4,
			"name":"Cylinder.001",
			"rotation":[
				0.6997990608215332,
				0.10139673948287964,
				-0.10139673948287964,
				0.6997990608215332
			],
			"scale":[
				2.132560968399048,
				2.132560968399048,
				1.3455824851989746
			],
			"translation":[
				0.16887050867080688,
				0,
				6.397497653961182
			]
		},
		{
			"children":[
				4
			],
			"mesh":5,
			"name":"Cube.001",
			"rotation":[
				-0.6997990608215332,
				-0.10139676183462143,
				0.10139673948287964,
				0.6997990608215332
			],
			"scale":[
				0.6726187467575073,
				0.8469336628913879,
				0.6726187467575073
			]
		},
		{
			"children":[
				5
			],
			"mesh":6,
			"name":"Cylinder",
			"rotation":[
				0.7071068286895752,
				0,
				0,
				0.7071068286895752
			],
			"scale":[
				0.5946904420852661,
				0.5946904420852661,
				0.26702070236206055
			],
			"translation":[
				-0.18901397287845612,
				0,
				1.8903138637542725
			]
		}
	],
	"animations":[
		{
			"channels":[
				{
					"sampler":0,
					"target":{
						"node":0,
						"path":"translation"
					}
				},
				{
					"sampler":1,
					"target":{
						"node":0,
						"path":"rotation"
					}
				},
				{
					"sampler":2,
					"target":{
						"node":0,
						"path":"scale"
					}
				}
			],
			"name":"CubeAction",
			"samplers":[
				{
					"input":38,
					"interpolation":"STEP",
					"output":39
				},
				{
					"input":38,
					"interpolation":"STEP",
					"output":40
				},
				{
					"input":38,
					"interpolation":"STEP",
					"output":41
				}
			]
		},
		{
			"channels":[
				{
					"sampler":0,
					"target":{
						"node":6,
						"path":"translation"
					}
				},
				{
					"sampler":1,
					"target":{
						"node":6,
						"path":"rotation"
					}
				},
				{
					"sampler":2,
					"target":{
						"node":6,
						"path":"scale"
					}
				}
			],
			"name":"CylinderAction.001",
			"samplers":[
				{
					"input":38,
					"interpolation":"STEP",
					"output":42
				},
				{
					"input":43,
					"interpolation":"LINEAR",
					"output":44
				},
				{
					"input":38,
					"interpolation":"STEP",
					"output":45
				}
			]
		},
		{
			"channels":[
				{
					"sampler":0,
					"target":{
						"node":5,
						"path":"translation"
					}
				},
				{
					"sampler":1,
					"target":{
						"node":5,
						"path":"rotation"
					}
				},
				{
					"sampler":2,
					"target":{
						"node":5,
						"path":"scale"
					}
				}
			],
			"name":"Cube.001Action",
			"samplers":[
				{
					"input":38,
					"interpolation":"STEP",
					"output":46
				},
				{
					"input":38,
					"interpolation":"STEP",
					"output":47
				},
				{
					"input":38,
					"interpolation":"STEP",
					"output":48
				}
			]
		},
		{
			"channels":[
				{
					"sampler":0,
					"target":{
						"node":4,
						"path":"translation"
					}
				},
				{
					"sampler":1,
					"target":{
						"node":4,
						"path":"rotation"
					}
				},
				{
					"sampler":2,
					"target":{
						"node":4,
						"path":"scale"
					}
				}
			],
			"name":"Cylinder.001Action",
			"samplers":[
				{
					"input":38,
					"interpolation":"STEP",
					"output":49
				},
				{
					"input":43,
					"interpolation":"LINEAR",
					"output":50
				},
				{
					"input":38,
					"interpolation":"STEP",
					"output":51
				}
			]
		},
		{
			"channels":[
				{
					"sampler":0,
					"target":{
						"node":3,
						"path":"translation"
					}
				},
				{
					"sampler":1,
					"target":{
						"node":3,
						"path":"rotation"
					}
				},
				{
					"sampler":2,
					"target":{
						"node":3,
						"path":"scale"
					}
				}
			],
			"name":"Cube.002Action",
			"samplers":[
				{
					"input":38,
					"interpolation":"STEP",
					"output":52
				},
				{
					"input":38,
					"interpolation":"STEP",
					"output":53
				},
				{
					"input":38,
					"interpolation":"STEP",
					"output":54
				}
			]
		},
		{
			"channels":[
				{
					"sampler":0,
					"target":{
						"node":2,
						"path":"translation"
					}
				},
				{
					"sampler":1,
					"target":{
						"node":2,
						"path":"rotation"
					}
				},
				{
					"sampler":2,
					"target":{
						"node":2,
						"path":"scale"
					}
				}
			],
			"name":"Cylinder.002Action",
			"samplers":[
				{
					"input":38,
					"interpolation":"STEP",
					"output":55
				},
				{
					"input":43,
					"interpolation":"LINEAR",
					"output":56
				},
				{
					"input":38,
					"interpolation":"STEP",
					"output":57
				}
			]
		},
		{
			"channels":[
				{
					"sampler":0,
					"target":{
						"node":1,
						"path":"translation"
					}
				},
				{
					"sampler":1,
					"target":{
						"node":1,
						"path":"rotation"
					}
				},
				{
					"sampler":2,
					"target":{
						"node":1,
						"path":"scale"
					}
				}
			],
			"name":"Cube.003Action",
			"samplers":[
				{
					"input":38,
					"interpolation":"LINEAR",
					"output":58
				},
				{
					"input":38,
					"interpolation":"LINEAR",
					"output":59
				},
				{
					"input":38,
					"interpolation":"STEP",
					"output":60
				}
			]
		}
	],
	"materials":[
		{
			"doubleSided":true,
			"name":"Material.001",
			"pbrMetallicRoughness":{
				"baseColorFactor":[
					0.07379995286464691,
					0.07170011103153229,
					0.07005751878023148,
					1
				],
				"metallicFactor":0,
				"roughnessFactor":0.5
			}
		},
		{
			"doubleSided":true,
			"name":"Material.002",
			"pbrMetallicRoughness":{
				"baseColorFactor":[
					0.19859538972377777,
					0.19859538972377777,
					0.19859538972377777,
					1
				],
				"metallicFactor":0,
				"roughnessFactor":0.5
			}
		},
		{
			"doubleSided":true,
			"name":"Material.003",
			"pbrMetallicRoughness":{
				"baseColorFactor":[
					0.1990964412689209,
					0.4721360206604004,
					0.8402122259140015,
					1
				],
				"metallicFactor":0,
				"roughnessFactor":0.5
			}
		}
	],
	"meshes":[
		{
			"name":"Cube.001",
			"primitives":[
				{
					"attributes":{
						"POSITION":0,
						"NORMAL":1,
						"TEXCOORD_0":2
					},
					"indices":3,
					"material":0
				}
			]
		},
		{
			"name":"Cube.004",
			"primitives":[
				{
					"attributes":{
						"POSITION":4,
						"NORMAL":5,
						"TEXCOORD_0":6
					},
					"indices":7,
					"material":0
				}
			]
		},
		{
			"name":"Cylinder.002",
			"primitives":[
				{
					"attributes":{
						"POSITION":8,
						"NORMAL":9,
						"TEXCOORD_0":10
					},
					"indices":11,
					"material":1
				}
			]
		},
		{
			"name":"Cube.003",
			"primitives":[
				{
					"attributes":{
						"POSITION":12,
						"NORMAL":13,
						"TEXCOORD_0":14
					},
					"indices":15,
					"material":0
				},
				{
					"attributes":{
						"POSITION":16,
						"NORMAL":17,
						"TEXCOORD_0":18
					},
					"indices":19,
					"material":2
				}
			]
		},
		{
			"name":"Cylinder.001",
			"primitives":[
				{
					"attributes":{
						"POSITION":20,
						"NORMAL":21,
						"TEXCOORD_0":22
					},
					"indices":23,
					"material":1
				},
				{
					"attributes":{
						"POSITION":24,
						"NORMAL":25,
						"TEXCOORD_0":26
					},
					"indices":27,
					"material":2
				}
			]
		},
		{
			"name":"Cube.002",
			"primitives":[
				{
					"attributes":{
						"POSITION":28,
						"NORMAL":29,
						"TEXCOORD_0":30
					},
					"indices":15,
					"material":0
				},
				{
					"attributes":{
						"POSITION":31,
						"NORMAL":32,
						"TEXCOORD_0":33
					},
					"indices":19,
					"material":2
				}
			]
		},
		{
			"name":"Cylinder",
			"primitives":[
				{
					"attributes":{
						"POSITION":34,
						"NORMAL":35,
						"TEXCOORD_0":36
					},
					"indices":37,
					"material":1
				}
			]
		}
	],
	"accessors":[
		{
			"bufferView":0,
			"componentType":5126,
			"count":56,
			"max":[
				1,
				1,
				3.432419776916504
			],
			"min":[
				-1,
				-1,
				-1
			],
			"type":"VEC3"
		},
		{
			"bufferView":1,
			"componentType":5126,
			"count":56,
			"type":"VEC3"
		},
		{
			"bufferView":2,
			"componentType":5126,
			"count":56,
			"type":"VEC2"
		},
		{
			"bufferView":3,
			"componentType":5123,
			"count":84,
			"type":"SCALAR"
		},
		{
			"bufferView":4,
			"componentType":5126,
			"count":40,
			"max":[
				0.6652224063873291,
				0.14886267483234406,
				-0.1674666404724121
			],
			"min":[
				0.023730874061584473,
				-0.14886267483234406,
				-1.8695628643035889
			],
			"type":"VEC3"
		},
		{
			"bufferView":5,
			"componentType":5126,
			"count":40,
			"type":"VEC3"
		},
		{
			"bufferView":6,
			"componentType":5126,
			"count":40,
			"type":"VEC2"
		},
		{
			"bufferView":7,
			"componentType":5123,
			"count":66,
			"type":"SCALAR"
		},
		{
			"bufferView":8,
			"componentType":5126,
			"count":216,
			"max":[
				1,
				1,
				1
			],
			"min":[
				-1,
				-1,
				-1
			],
			"type":"VEC3"
		},
		{
			"bufferView":9,
			"componentType":5126,
			"count":216,
			"type":"VEC3"
		},
		{
			"bufferView":10,
			"componentType":5126,
			"count":216,
			"type":"VEC2"
		},
		{
			"bufferView":11,
			"componentType":5123,
			"count":564,
			"type":"SCALAR"
		},
		{
			"bufferView":12,
			"componentType":5126,
			"count":64,
			"max":[
				0.7213638424873352,
				1,
				6.215837001800537
			],
			"min":[
				-0.47798728942871094,
				-1,
				1.738969326019287
			],
			"type":"VEC3"
		},
		{
			"bufferView":13,
			"componentType":5126,
			"count":64,
			"type":"VEC3"
		},
		{
			"bufferView":14,
			"componentType":5126,
			"count":64,
			"type":"VEC2"
		},
		{
			"bufferView":15,
			"componentType":5123,
			"count":120,
			"type":"SCALAR"
		},
		{
			"bufferView":16,
			"componentType":5126,
			"count":8,
			"max":[
				0.2765843868255615,
				0.7553771734237671,
				5.771057605743408
			],
			"min":[
				-0.033207833766937256,
				-0.7553771734237671,
				2.183748722076416
			],
			"type":"VEC3"
		},
		{
			"bufferView":17,
			"componentType":5126,
			"count":8,
			"type":"VEC3"
		},
		{
			"bufferView":18,
			"componentType":5126,
			"count":8,
			"type":"VEC2"
		},
		{
			"bufferView":19,
			"componentType":5123,
			"count":12,
			"type":"SCALAR"
		},
		{
			"bufferView":20,
			"componentType":5126,
			"count":298,
			"max":[
				1,
				1,
				1
			],
			"min":[
				-1,
				-1,
				-1
			],
			"type":"VEC3"
		},
		{
			"bufferView":21,
			"componentType":5126,
			"count":298,
			"type":"VEC3"
		},
		{
			"bufferView":22,
			"componentType":5126,
			"count":298,
			"type":"VEC2"
		},
		{
			"bufferView":23,
			"componentType":5123,
			"count":768,
			"type":"SCALAR"
		},
		{
			"bufferView":24,
			"componentType":5126,
			"count":64,
			"max":[
				0.7570697665214539,
				0.7570697665214539,
				0.8089505434036255
			],
			"min":[
				-0.7570697665214539,
				-0.7570697665214539,
				-0.8089505434036255
			],
			"type":"VEC3"
		},
		{
			"bufferView":25,
			"componentType":5126,
			"count":64,
			"type":"VEC3"
		},
		{
			"bufferView":26,
			"componentType":5126,
			"count":64,
			"type":"VEC2"
		},
		{
			"bufferView":27,
			"componentType":5123,
			"count":192,
			"type":"SCALAR"
		},
		{
			"bufferView":28,
			"componentType":5126,
			"count":64,
			"max":[
				0.5122829079627991,
				1,
				4.783677577972412
			],
			"min":[
				-0.6870682239532471,
				-1,
				0.3068099021911621
			],
			"type":"VEC3"
		},
		{
			"bufferView":29,
			"componentType":5126,
			"count":64,
			"type":"VEC3"
		},
		{
			"bufferView":30,
			"componentType":5126,
			"count":64,
			"type":"VEC2"
		},
		{
			"bufferView":31,
			"componentType":5126,
			"count":8,
			"max":[
				0.11180537939071655,
				0.7557440996170044,
				4.383200168609619
			],
			"min":[
				-0.28659069538116455,
				-0.7557440996170044,
				0.7072874307632446
			],
			"type":"VEC3"
		},
		{
			"bufferView":32,
			"componentType":5126,
			"count":8,
			"type":"VEC3"
		},
		{
			"bufferView":33,
			"componentType":5126,
			"count":8,
			"type":"VEC2"
		},
		{
			"bufferView":34,
			"componentType":5126,
			"count":296,
			"max":[
				1,
				1,
				1.037360429763794
			],
			"min":[
				-1,
				-1,
				-1.037360429763794
			],
			"type":"VEC3"
		},
		{
			"bufferView":35,
			"componentType":5126,
			"count":296,
			"type":"VEC3"
		},
		{
			"bufferView":36,
			"componentType":5126,
			"count":296,
			"type":"VEC2"
		},
		{
			"bufferView":37,
			"componentType":5123,
			"count":768,
			"type":"SCALAR"
		},
		{
			"bufferView":38,
			"componentType":5126,
			"count":2,
			"max":[
				2.5
			],
			"min":[
				0.041666666666666664
			],
			"type":"SCALAR"
		},
		{
			"bufferView":39,
			"componentType":5126,
			"count":2,
			"type":"VEC3"
		},
		{
			"bufferView":40,
			"componentType":5126,
			"count":2,
			"type":"VEC4"
		},
		{
			"bufferView":41,
			"componentType":5126,
			"count":2,
			"type":"VEC3"
		},
		{
			"bufferView":42,
			"componentType":5126,
			"count":2,
			"type":"VEC3"
		},
		{
			"bufferView":43,
			"componentType":5126,
			"count":60,
			"max":[
				2.5
			],
			"min":[
				0.041666666666666664
			],
			"type":"SCALAR"
		},
		{
			"bufferView":44,
			"componentType":5126,
			"count":60,
			"type":"VEC4"
		},
		{
			"bufferView":45,
			"componentType":5126,
			"count":2,
			"type":"VEC3"
		},
		{
			"bufferView":46,
			"componentType":5126,
			"count":2,
			"type":"VEC3"
		},
		{
			"bufferView":47,
			"componentType":5126,
			"count":2,
			"type":"VEC4"
		},
		{
			"bufferView":48,
			"componentType":5126,
			"count":2,
			"type":"VEC3"
		},
		{
			"bufferView":49,
			"componentType":5126,
			"count":2,
			"type":"VEC3"
		},
		{
			"bufferView":50,
			"componentType":5126,
			"count":60,
			"type":"VEC4"
		},
		{
			"bufferView":51,
			"componentType":5126,
			"count":2,
			"type":"VEC3"
		},
		{
			"bufferView":52,
			"componentType":5126,
			"count":2,
			"type":"VEC3"
		},
		{
			"bufferView":53,
			"componentType":5126,
			"count":2,
			"type":"VEC4"
		},
		{
			"bufferView":54,
			"componentType":5126,
			"count":2,
			"type":"VEC3"
		},
		{
			"bufferView":55,
			"componentType":5126,
			"count":2,
			"type":"VEC3"
		},
		{
			"bufferView":56,
			"componentType":5126,
			"count":60,
			"type":"VEC4"
		},
		{
			"bufferView":57,
			"componentType":5126,
			"count":2,
			"type":"VEC3"
		},
		{
			"bufferView":58,
			"componentType":5126,
			"count":2,
			"type":"VEC3"
		},
		{
			"bufferView":59,
			"componentType":5126,
			"count":2,
			"type":"VEC4"
		},
		{
			"bufferView":60,
			"componentType":5126,
			"count":2,
			"type":"VEC3"
		}
	],
	"bufferViews":[
		{
			"buffer":0,
			"byteLength":672,
			"byteOffset":0,
			"target":34962
		},
		{
			"buffer":0,
			"byteLength":672,
			"byteOffset":672,
			"target":34962
		},
		{
			"buffer":0,
			"byteLength":448,
			"byteOffset":1344,
			"target":34962
		},
		{
			"buffer":0,
			"byteLength":168,
			"byteOffset":1792,
			"target":34963
		},
		{
			"buffer":0,
			"byteLength":480,
			"byteOffset":1960,
			"target":34962
		},
		{
			"buffer":0,
			"byteLength":480,
			"byteOffset":2440,
			"target":34962
		},
		{
			"buffer":0,
			"byteLength":320,
			"byteOffset":2920,
			"target":34962
		},
		{
			"buffer":0,
			"byteLength":132,
			"byteOffset":3240,
			"target":34963
		},
		{
			"buffer":0,
			"byteLength":2592,
			"byteOffset":3372,
			"target":34962
		},
		{
			"buffer":0,
			"byteLength":2592,
			"byteOffset":5964,
			"target":34962
		},
		{
			"buffer":0,
			"byteLength":1728,
			"byteOffset":8556,
			"target":34962
		},
		{
			"buffer":0,
			"byteLength":1128,
			"byteOffset":10284,
			"target":34963
		},
		{
			"buffer":0,
			"byteLength":768,
			"byteOffset":11412,
			"target":34962
		},
		{
			"buffer":0,
			"byteLength":768,
			"byteOffset":12180,
			"target":34962
		},
		{
			"buffer":0,
			"byteLength":512,
			"byteOffset":12948,
			"target":34962
		},
		{
			"buffer":0,
			"byteLength":240,
			"byteOffset":13460,
			"target":34963
		},
		{
			"buffer":0,
			"byteLength":96,
			"byteOffset":13700,
			"target":34962
		},
		{
			"buffer":0,
			"byteLength":96,
			"byteOffset":13796,
			"target":34962
		},
		{
			"buffer":0,
			"byteLength":64,
			"byteOffset":13892,
			"target":34962
		},
		{
			"buffer":0,
			"byteLength":24,
			"byteOffset":13956,
			"target":34963
		},
		{
			"buffer":0,
			"byteLength":3576,
			"byteOffset":13980,
			"target":34962
		},
		{
			"buffer":0,
			"byteLength":3576,
			"byteOffset":17556,
			"target":34962
		},
		{
			"buffer":0,
			"byteLength":2384,
			"byteOffset":21132,
			"target":34962
		},
		{
			"buffer":0,
			"byteLength":1536,
			"byteOffset":23516,
			"target":34963
		},
		{
			"buffer":0,
			"byteLength":768,
			"byteOffset":25052,
			"target":34962
		},
		{
			"buffer":0,
			"byteLength":768,
			"byteOffset":25820,
			"target":34962
		},
		{
			"buffer":0,
			"byteLength":512,
			"byteOffset":26588,
			"target":34962
		},
		{
			"buffer":0,
			"byteLength":384,
			"byteOffset":27100,
			"target":34963
		},
		{
			"buffer":0,
			"byteLength":768,
			"byteOffset":27484,
			"target":34962
		},
		{
			"buffer":0,
			"byteLength":768,
			"byteOffset":28252,
			"target":34962
		},
		{
			"buffer":0,
			"byteLength":512,
			"byteOffset":29020,
			"target":34962
		},
		{
			"buffer":0,
			"byteLength":96,
			"byteOffset":29532,
			"target":34962
		},
		{
			"buffer":0,
			"byteLength":96,
			"byteOffset":29628,
			"target":34962
		},
		{
			"buffer":0,
			"byteLength":64,
			"byteOffset":29724,
			"target":34962
		},
		{
			"buffer":0,
			"byteLength":3552,
			"byteOffset":29788,
			"target":34962
		},
		{
			"buffer":0,
			"byteLength":3552,
			"byteOffset":33340,
			"target":34962
		},
		{
			"buffer":0,
			"byteLength":2368,
			"byteOffset":36892,
			"target":34962
		},
		{
			"buffer":0,
			"byteLength":1536,
			"byteOffset":39260,
			"target":34963
		},
		{
			"buffer":0,
			"byteLength":8,
			"byteOffset":40796
		},
		{
			"buffer":0,
			"byteLength":24,
			"byteOffset":40804
		},
		{
			"buffer":0,
			"byteLength":32,
			"byteOffset":40828
		},
		{
			"buffer":0,
			"byteLength":24,
			"byteOffset":40860
		},
		{
			"buffer":0,
			"byteLength":24,
			"byteOffset":40884
		},
		{
			"buffer":0,
			"byteLength":240,
			"byteOffset":40908
		},
		{
			"buffer":0,
			"byteLength":960,
			"byteOffset":41148
		},
		{
			"buffer":0,
			"byteLength":24,
			"byteOffset":42108
		},
		{
			"buffer":0,
			"byteLength":24,
			"byteOffset":42132
		},
		{
			"buffer":0,
			"byteLength":32,
			"byteOffset":42156
		},
		{
			"buffer":0,
			"byteLength":24,
			"byteOffset":42188
		},
		{
			"buffer":0,
			"byteLength":24,
			"byteOffset":42212
		},
		{
			"buffer":0,
			"byteLength":960,
			"byteOffset":42236
		},
		{
			"buffer":0,
			"byteLength":24,
			"byteOffset":43196
		},
		{
			"buffer":0,
			"byteLength":24,
			"byteOffset":43220
		},
		{
			"buffer":0,
			"byteLength":32,
			"byteOffset":43244
		},
		{
			"buffer":0,
			"byteLength":24,
			"byteOffset":43276
		},
		{
			"buffer":0,
			"byteLength":24,
			"byteOffset":43300
		},
		{
			"buffer":0,
			"byteLength":960,
			"byteOffset":43324
		},
		{
			"buffer":0,
			"byteLength":24,
			"byteOffset":44284
		},
		{
			"buffer":0,
			"byteLength":24,
			"byteOffset":44308
		},
		{
			"buffer":0,
			"byteLength":32,
			"byteOffset":44332
		},
		{
			"buffer":0,
			"byteLength":24,
			"byteOffset":44364
		}
	],
	"buffers":[
		{
			"byteLength":44388,
			"uri":"mecha_ramie.bin"
		}
	]
}
