{
	"asset":{
		"generator":"Khronos glTF Blender I/O v4.2.69",
		"version":"2.0"
	},
	"scene":0,
	"scenes":[
		{
			"name":"Scene",
			"nodes":[
				0
			]
		}
	],
	"nodes":[
		{
			"mesh":0,
			"name":"Cube.001"
		}
	],
	"materials":[
		{
			"doubleSided":true,
			"name":"Material",
			"normalTexture":{
				"index":0
			},
			"pbrMetallicRoughness":{
				"baseColorTexture":{
					"index":1
				},
				"metallicFactor":0,
				"metallicRoughnessTexture":{
					"index":2
				}
			}
		}
	],
	"meshes":[
		{
			"name":"Cube.002",
			"primitives":[
				{
					"attributes":{
						"POSITION":0,
						"NORMAL":1,
						"TEXCOORD_0":2,
						"COLOR_0":3,
						"COLOR_1":4
					},
					"indices":5,
					"material":0
				}
			]
		}
	],
	"textures":[
		{
			"sampler":0,
			"source":0
		},
		{
			"sampler":0,
			"source":1
		},
		{
			"sampler":0,
			"source":2
		}
	],
	"images":[
		{
			"mimeType":"image/png",
			"name":"Gate_normal",
			"uri":"Gate_normal.png"
		},
		{
			"mimeType":"image/png",
			"name":"Gate_diffuse",
			"uri":"Gate_diffuse.png"
		},
		{
			"mimeType":"image/png",
			"name":"Gate_specular",
			"uri":"Gate_specular.png"
		}
	],
	"accessors":[
		{
			"bufferView":0,
			"componentType":5126,
			"count":693,
			"max":[
				3,
				7,
				1.2009856700897217
			],
			"min":[
				-3,
				-0.5487942695617676,
				-1.1990141868591309
			],
			"type":"VEC3"
		},
		{
			"bufferView":1,
			"componentType":5126,
			"count":693,
			"type":"VEC3"
		},
		{
			"bufferView":2,
			"componentType":5126,
			"count":693,
			"type":"VEC2"
		},
		{
			"bufferView":3,
			"componentType":5121,
			"count":693,
			"normalized":true,
			"type":"VEC4"
		},
		{
			"bufferView":4,
			"componentType":5126,
			"count":693,
			"type":"VEC3"
		},
		{
			"bufferView":5,
			"componentType":5123,
			"count":2766,
			"type":"SCALAR"
		}
	],
	"bufferViews":[
		{
			"buffer":0,
			"byteLength":8316,
			"byteOffset":0,
			"target":34962
		},
		{
			"buffer":0,
			"byteLength":8316,
			"byteOffset":8316,
			"target":34962
		},
		{
			"buffer":0,
			"byteLength":5544,
			"byteOffset":16632,
			"target":34962
		},
		{
			"buffer":0,
			"byteLength":2772,
			"byteOffset":22176,
			"target":34962
		},
		{
			"buffer":0,
			"byteLength":8316,
			"byteOffset":24948,
			"target":34962
		},
		{
			"buffer":0,
			"byteLength":5532,
			"byteOffset":33264,
			"target":34963
		}
	],
	"samplers":[
		{
			"magFilter":9729,
			"minFilter":9987
		}
	],
	"buffers":[
		{
			"byteLength":38796,
			"uri":"Gate_final.bin"
		}
	]
}
