{
	"asset":{
		"generator":"Khronos glTF Blender I/O v4.2.69",
		"version":"2.0"
	},
	"extensionsUsed":[
		"KHR_materials_specular"
	],
	"scene":0,
	"scenes":[
		{
			"name":"Scene",
			"nodes":[
				0
			]
		}
	],
	"nodes":[
		{
			"mesh":0,
			"name":"Top",
			"translation":[
				0,
				-0.0037819743156433105,
				0
			]
		}
	],
	"materials":[
		{
			"doubleSided":true,
			"extensions":{
				"KHR_materials_specular":{
					"specularColorTexture":{
						"index":0
					}
				}
			},
			"name":"Material",
			"normalTexture":{
				"index":1
			},
			"pbrMetallicRoughness":{
				"baseColorTexture":{
					"index":2
				},
				"metallicFactor":0,
				"metallicRoughnessTexture":{
					"index":3
				}
			}
		}
	],
	"meshes":[
		{
			"name":"Cube.002",
			"primitives":[
				{
					"attributes":{
						"POSITION":0,
						"NORMAL":1,
						"TEXCOORD_0":2,
						"COLOR_0":3,
						"COLOR_1":4
					},
					"indices":5,
					"material":0
				}
			]
		}
	],
	"textures":[
		{
			"sampler":0,
			"source":0
		},
		{
			"sampler":0,
			"source":1
		},
		{
			"sampler":0,
			"source":2
		},
		{
			"sampler":0,
			"source":3
		}
	],
	"images":[
		{
			"mimeType":"image/png",
			"name":"Gate_top_Specular.png",
			"uri":"Gate_top_Specular.png"
		},
		{
			"mimeType":"image/png",
			"name":"Gate_top_Normal.png",
			"uri":"Gate_top_Normal.png"
		},
		{
			"mimeType":"image/png",
			"name":"Gate_top_Diffuse.png",
			"uri":"Gate_top_Diffuse.png"
		},
		{
			"mimeType":"image/png",
			"name":"Gate_top_Glossiness.png",
			"uri":"Gate_top_Glossiness.png"
		}
	],
	"accessors":[
		{
			"bufferView":0,
			"componentType":5126,
			"count":1335,
			"max":[
				3,
				7,
				1.2009856700897217
			],
			"min":[
				-3,
				-0.5487942695617676,
				-1.1990141868591309
			],
			"type":"VEC3"
		},
		{
			"bufferView":1,
			"componentType":5126,
			"count":1335,
			"type":"VEC3"
		},
		{
			"bufferView":2,
			"componentType":5126,
			"count":1335,
			"type":"VEC2"
		},
		{
			"bufferView":3,
			"componentType":5121,
			"count":1335,
			"normalized":true,
			"type":"VEC4"
		},
		{
			"bufferView":4,
			"componentType":5126,
			"count":1335,
			"type":"VEC3"
		},
		{
			"bufferView":5,
			"componentType":5123,
			"count":4098,
			"type":"SCALAR"
		}
	],
	"bufferViews":[
		{
			"buffer":0,
			"byteLength":16020,
			"byteOffset":0,
			"target":34962
		},
		{
			"buffer":0,
			"byteLength":16020,
			"byteOffset":16020,
			"target":34962
		},
		{
			"buffer":0,
			"byteLength":10680,
			"byteOffset":32040,
			"target":34962
		},
		{
			"buffer":0,
			"byteLength":5340,
			"byteOffset":42720,
			"target":34962
		},
		{
			"buffer":0,
			"byteLength":16020,
			"byteOffset":48060,
			"target":34962
		},
		{
			"buffer":0,
			"byteLength":8196,
			"byteOffset":64080,
			"target":34963
		}
	],
	"samplers":[
		{
			"magFilter":9729,
			"minFilter":9987
		}
	],
	"buffers":[
		{
			"byteLength":72276,
			"uri":"Gate_top.bin"
		}
	]
}
