{
	"asset":{
		"generator":"Khronos glTF Blender I/O v4.4.56",
		"version":"2.0"
	},
	"scene":0,
	"scenes":[
		{
			"name":"Scene",
			"nodes":[
				0
			]
		}
	],
	"nodes":[
		{
			"mesh":0,
			"name":"TOP",
			"scale":[
				1,
				0.3999999761581421,
				1
			],
			"translation":[
				-0.0038026142865419388,
				8.01662540435791,
				0.007283926010131836
			]
		}
	],
	"materials":[
		{
			"doubleSided":true,
			"name":"Material.005",
			"pbrMetallicRoughness":{
				"baseColorFactor":[
					0.01497233472764492,
					0.017225133255124092,
					0.016034727916121483,
					1
				],
				"metallicFactor":0,
				"roughnessFactor":0.5
			}
		},
		{
			"doubleSided":true,
			"name":"Material.006",
			"pbrMetallicRoughness":{
				"baseColorFactor":[
					0.165045827627182,
					0.10784716159105301,
					0.006456655450165272,
					1
				],
				"metallicFactor":0.20472441613674164,
				"roughnessFactor":0.9015747904777527
			}
		}
	],
	"meshes":[
		{
			"name":"Cube.002",
			"primitives":[
				{
					"attributes":{
						"POSITION":0,
						"NORMAL":1,
						"TEXCOORD_0":2
					},
					"indices":3,
					"material":0
				},
				{
					"attributes":{
						"POSITION":4,
						"NORMAL":5,
						"TEXCOORD_0":6
					},
					"indices":7,
					"material":1
				}
			]
		}
	],
	"accessors":[
		{
			"bufferView":0,
			"componentType":5126,
			"count":773,
			"max":[
				4.103079319000244,
				0,
				1
			],
			"min":[
				-4.103079319000244,
				-21.941082000732422,
				-1
			],
			"type":"VEC3"
		},
		{
			"bufferView":1,
			"componentType":5126,
			"count":773,
			"type":"VEC3"
		},
		{
			"bufferView":2,
			"componentType":5126,
			"count":773,
			"type":"VEC2"
		},
		{
			"bufferView":3,
			"componentType":5123,
			"count":2676,
			"type":"SCALAR"
		},
		{
			"bufferView":4,
			"componentType":5126,
			"count":160,
			"max":[
				4.103079319000244,
				-17.926219940185547,
				0.9125480651855469
			],
			"min":[
				-4.103079319000244,
				-20.694482803344727,
				-0.9125480651855469
			],
			"type":"VEC3"
		},
		{
			"bufferView":5,
			"componentType":5126,
			"count":160,
			"type":"VEC3"
		},
		{
			"bufferView":6,
			"componentType":5126,
			"count":160,
			"type":"VEC2"
		},
		{
			"bufferView":7,
			"componentType":5123,
			"count":240,
			"type":"SCALAR"
		}
	],
	"bufferViews":[
		{
			"buffer":0,
			"byteLength":9276,
			"byteOffset":0,
			"target":34962
		},
		{
			"buffer":0,
			"byteLength":9276,
			"byteOffset":9276,
			"target":34962
		},
		{
			"buffer":0,
			"byteLength":6184,
			"byteOffset":18552,
			"target":34962
		},
		{
			"buffer":0,
			"byteLength":5352,
			"byteOffset":24736,
			"target":34963
		},
		{
			"buffer":0,
			"byteLength":1920,
			"byteOffset":30088,
			"target":34962
		},
		{
			"buffer":0,
			"byteLength":1920,
			"byteOffset":32008,
			"target":34962
		},
		{
			"buffer":0,
			"byteLength":1280,
			"byteOffset":33928,
			"target":34962
		},
		{
			"buffer":0,
			"byteLength":480,
			"byteOffset":35208,
			"target":34963
		}
	],
	"buffers":[
		{
			"byteLength":35688,
			"uri":"Gate.bin"
		}
	]
}
