{
	"asset":{
		"generator":"Khronos glTF Blender I/O v4.2.70",
		"version":"2.0"
	},
	"scene":0,
	"scenes":[
		{
			"name":"Scene",
			"nodes":[
				0
			]
		}
	],
	"nodes":[
		{
			"mesh":0,
			"name":"Cube.071",
			"rotation":[
				0,
				0,
				-0.001389476121403277,
				1
			],
			"translation":[
				1.8428514003753662,
				-2.0070204734802246,
				1.2794106006622314
			]
		}
	],
	"materials":[
		{
			"doubleSided":true,
			"name":"Material",
			"pbrMetallicRoughness":{
				"baseColorTexture":{
					"index":0
				},
				"metallicFactor":0,
				"roughnessFactor":0.5
			}
		}
	],
	"meshes":[
		{
			"name":"Cube.071",
			"primitives":[
				{
					"attributes":{
						"POSITION":0,
						"NORMAL":1,
						"TEXCOORD_0":2
					},
					"indices":3,
					"material":0
				}
			]
		}
	],
	"textures":[
		{
			"sampler":0,
			"source":0
		}
	],
	"images":[
		{
			"mimeType":"image/png",
			"name":"FetaOutline",
			"uri":"FetaOutline.png"
		}
	],
	"accessors":[
		{
			"bufferView":0,
			"componentType":5126,
			"count":1778,
			"max":[
				0.22260883450508118,
				0.4988565146923065,
				0.30404335260391235
			],
			"min":[
				-0.22260801494121552,
				-0.4988565146923065,
				-0.30404335260391235
			],
			"type":"VEC3"
		},
		{
			"bufferView":1,
			"componentType":5126,
			"count":1778,
			"type":"VEC3"
		},
		{
			"bufferView":2,
			"componentType":5126,
			"count":1778,
			"type":"VEC2"
		},
		{
			"bufferView":3,
			"componentType":5123,
			"count":3072,
			"type":"SCALAR"
		}
	],
	"bufferViews":[
		{
			"buffer":0,
			"byteLength":21336,
			"byteOffset":0,
			"target":34962
		},
		{
			"buffer":0,
			"byteLength":21336,
			"byteOffset":21336,
			"target":34962
		},
		{
			"buffer":0,
			"byteLength":14224,
			"byteOffset":42672,
			"target":34962
		},
		{
			"buffer":0,
			"byteLength":6144,
			"byteOffset":56896,
			"target":34963
		}
	],
	"samplers":[
		{
			"magFilter":9729,
			"minFilter":9987
		}
	],
	"buffers":[
		{
			"byteLength":63040,
			"uri":"FetaOutline.bin"
		}
	]
}
