{
	"asset":{
		"generator":"Khronos glTF Blender I/O v4.2.69",
		"version":"2.0"
	},
	"scene":0,
	"scenes":[
		{
			"name":"Scene",
			"nodes":[
				0
			]
		}
	],
	"nodes":[
		{
			"mesh":0,
			"name":"Cylinder.011",
			"translation":[
				0.5866554975509644,
				0.8828411102294922,
				0.726097822189331
			]
		}
	],
	"materials":[
		{
			"doubleSided":true,
			"name":"Material",
			"pbrMetallicRoughness":{
				"baseColorTexture":{
					"index":0
				},
				"metallicFactor":0,
				"roughnessFactor":0.5
			}
		}
	],
	"meshes":[
		{
			"name":"Cylinder.013",
			"primitives":[
				{
					"attributes":{
						"POSITION":0,
						"NORMAL":1,
						"TEXCOORD_0":2
					},
					"indices":3,
					"material":0
				}
			]
		}
	],
	"textures":[
		{
			"sampler":0,
			"source":0
		}
	],
	"images":[
		{
			"mimeType":"image/png",
			"name":"Gouda_Diffuse",
			"uri":"Gouda_Diffuse.png"
		}
	],
	"accessors":[
		{
			"bufferView":0,
			"componentType":5126,
			"count":554,
			"max":[
				-0.013787317089736462,
				0.7187904119491577,
				-0.039433665573596954
			],
			"min":[
				-0.6991938948631287,
				0.049404218792915344,
				-1.0410579442977905
			],
			"type":"VEC3"
		},
		{
			"bufferView":1,
			"componentType":5126,
			"count":554,
			"type":"VEC3"
		},
		{
			"bufferView":2,
			"componentType":5126,
			"count":554,
			"type":"VEC2"
		},
		{
			"bufferView":3,
			"componentType":5123,
			"count":894,
			"type":"SCALAR"
		}
	],
	"bufferViews":[
		{
			"buffer":0,
			"byteLength":6648,
			"byteOffset":0,
			"target":34962
		},
		{
			"buffer":0,
			"byteLength":6648,
			"byteOffset":6648,
			"target":34962
		},
		{
			"buffer":0,
			"byteLength":4432,
			"byteOffset":13296,
			"target":34962
		},
		{
			"buffer":0,
			"byteLength":1788,
			"byteOffset":17728,
			"target":34963
		}
	],
	"samplers":[
		{
			"magFilter":9729,
			"minFilter":9987
		}
	],
	"buffers":[
		{
			"byteLength":19516,
			"uri":"GoudaBakerFIX.bin"
		}
	]
}
