{
	"asset":{
		"generator":"Khronos glTF Blender I/O v4.2.70",
		"version":"2.0"
	},
	"scene":0,
	"scenes":[
		{
			"name":"Scene",
			"nodes":[
				0
			]
		}
	],
	"nodes":[
		{
			"mesh":0,
			"name":"Cylinder.002",
			"translation":[
				0.36218035221099854,
				-0.17948278784751892,
				1.2671819925308228
			]
		}
	],
	"materials":[
		{
			"doubleSided":true,
			"name":"New",
			"normalTexture":{
				"index":0
			},
			"pbrMetallicRoughness":{
				"baseColorTexture":{
					"index":1
				},
				"metallicFactor":0.3636363744735718,
				"roughnessFactor":0.6045454144477844
			}
		}
	],
	"meshes":[
		{
			"name":"Cylinder.002",
			"primitives":[
				{
					"attributes":{
						"POSITION":0,
						"NORMAL":1,
						"TEXCOORD_0":2
					},
					"indices":3,
					"material":0
				},
				{
					"attributes":{
						"POSITION":4,
						"NORMAL":5,
						"TEXCOORD_0":6
					},
					"indices":7,
					"material":0
				}
			]
		}
	],
	"textures":[
		{
			"sampler":0,
			"source":0
		},
		{
			"sampler":0,
			"source":1
		}
	],
	"images":[
		{
			"mimeType":"image/png",
			"name":"Gouda_Normal",
			"uri":"Gouda_Normal.png"
		},
		{
			"mimeType":"image/png",
			"name":"GoudlaHaveMercy",
			"uri":"GoudlaHaveMercy.png"
		}
	],
	"accessors":[
		{
			"bufferView":0,
			"componentType":5126,
			"count":220,
			"max":[
				0.2106878161430359,
				0.4367867708206177,
				0.30654311180114746
			],
			"min":[
				-0.4619833528995514,
				-0.5071812868118286,
				-0.3016408681869507
			],
			"type":"VEC3"
		},
		{
			"bufferView":1,
			"componentType":5126,
			"count":220,
			"type":"VEC3"
		},
		{
			"bufferView":2,
			"componentType":5126,
			"count":220,
			"type":"VEC2"
		},
		{
			"bufferView":3,
			"componentType":5123,
			"count":390,
			"type":"SCALAR"
		},
		{
			"bufferView":4,
			"componentType":5126,
			"count":334,
			"max":[
				0.2106878161430359,
				0.49444296956062317,
				0.3344494104385376
			],
			"min":[
				-0.47471871972084045,
				-0.5071812868118286,
				-0.33493679761886597
			],
			"type":"VEC3"
		},
		{
			"bufferView":5,
			"componentType":5126,
			"count":334,
			"type":"VEC3"
		},
		{
			"bufferView":6,
			"componentType":5126,
			"count":334,
			"type":"VEC2"
		},
		{
			"bufferView":7,
			"componentType":5123,
			"count":504,
			"type":"SCALAR"
		}
	],
	"bufferViews":[
		{
			"buffer":0,
			"byteLength":2640,
			"byteOffset":0,
			"target":34962
		},
		{
			"buffer":0,
			"byteLength":2640,
			"byteOffset":2640,
			"target":34962
		},
		{
			"buffer":0,
			"byteLength":1760,
			"byteOffset":5280,
			"target":34962
		},
		{
			"buffer":0,
			"byteLength":780,
			"byteOffset":7040,
			"target":34963
		},
		{
			"buffer":0,
			"byteLength":4008,
			"byteOffset":7820,
			"target":34962
		},
		{
			"buffer":0,
			"byteLength":4008,
			"byteOffset":11828,
			"target":34962
		},
		{
			"buffer":0,
			"byteLength":2672,
			"byteOffset":15836,
			"target":34962
		},
		{
			"buffer":0,
			"byteLength":1008,
			"byteOffset":18508,
			"target":34963
		}
	],
	"samplers":[
		{
			"magFilter":9729,
			"minFilter":9987
		}
	],
	"buffers":[
		{
			"byteLength":19516,
			"uri":"GOUDAHAVEMERCY.bin"
		}
	]
}
