{
	"asset":{
		"generator":"Khronos glTF Blender I/O v4.2.70",
		"version":"2.0"
	},
	"scene":0,
	"scenes":[
		{
			"name":"Scene",
			"nodes":[
				3
			]
		}
	],
	"nodes":[
		{
			"name":"Door",
			"rotation":[
				-1.0125021887531435e-14,
				3.649715552000998e-08,
				3.6497176836292056e-08,
				1
			],
			"scale":[
				1,
				0.9999999403953552,
				1
			],
			"translation":[
				4.217245219706456e-09,
				1.0342978239059448,
				1.024882223532586e-08
			]
		},
		{
			"children":[
				0
			],
			"name":"Bone",
			"rotation":[
				0.7071067690849304,
				8.429369557916289e-08,
				8.606397727817239e-08,
				0.7071067690849304
			],
			"translation":[
				4.438305722942459e-09,
				0.8906049728393555,
				0.040576059371232986
			]
		},
		{
			"mesh":0,
			"name":"Cube.052",
			"skin":0
		},
		{
			"children":[
				2,
				1
			],
			"name":"Armature.005",
			"rotation":[
				0,
				-0.7071068286895752,
				0,
				0.7071068286895752
			],
			"translation":[
				1.6783380508422852,
				-4.0247626304626465,
				1.0321482419967651
			]
		}
	],
	"animations":[
		{
			"channels":[
				{
					"sampler":0,
					"target":{
						"node":1,
						"path":"translation"
					}
				},
				{
					"sampler":1,
					"target":{
						"node":1,
						"path":"rotation"
					}
				},
				{
					"sampler":2,
					"target":{
						"node":1,
						"path":"scale"
					}
				},
				{
					"sampler":3,
					"target":{
						"node":0,
						"path":"translation"
					}
				},
				{
					"sampler":4,
					"target":{
						"node":0,
						"path":"rotation"
					}
				},
				{
					"sampler":5,
					"target":{
						"node":0,
						"path":"scale"
					}
				}
			],
			"name":"CageOpen",
			"samplers":[
				{
					"input":7,
					"interpolation":"STEP",
					"output":8
				},
				{
					"input":7,
					"interpolation":"STEP",
					"output":9
				},
				{
					"input":7,
					"interpolation":"STEP",
					"output":10
				},
				{
					"input":7,
					"interpolation":"STEP",
					"output":11
				},
				{
					"input":12,
					"interpolation":"LINEAR",
					"output":13
				},
				{
					"input":7,
					"interpolation":"STEP",
					"output":14
				}
			]
		}
	],
	"materials":[
		{
			"doubleSided":true,
			"name":"Cage",
			"normalTexture":{
				"index":0
			},
			"pbrMetallicRoughness":{
				"baseColorTexture":{
					"index":1
				},
				"metallicRoughnessTexture":{
					"index":2
				}
			}
		}
	],
	"meshes":[
		{
			"name":"Cube.066",
			"primitives":[
				{
					"attributes":{
						"POSITION":0,
						"NORMAL":1,
						"TEXCOORD_0":2,
						"JOINTS_0":3,
						"WEIGHTS_0":4
					},
					"indices":5,
					"material":0
				}
			]
		}
	],
	"textures":[
		{
			"sampler":0,
			"source":0
		},
		{
			"sampler":0,
			"source":1
		},
		{
			"sampler":0,
			"source":2
		}
	],
	"images":[
		{
			"mimeType":"image/png",
			"name":"DefaultMaterial_Normal",
			"uri":"DefaultMaterial_Normal.png"
		},
		{
			"mimeType":"image/png",
			"name":"DefaultMaterial_Base_color",
			"uri":"DefaultMaterial_Base_color.png"
		},
		{
			"mimeType":"image/png",
			"name":"DefaultMaterial_Metallic.png-DefaultMaterial_Roughness.png",
			"uri":"DefaultMaterial_Metallic_png-DefaultMaterial_Roughness_png.png"
		}
	],
	"skins":[
		{
			"inverseBindMatrices":6,
			"joints":[
				1,
				0
			],
			"name":"Armature.005"
		}
	],
	"accessors":[
		{
			"bufferView":0,
			"componentType":5126,
			"count":2164,
			"max":[
				1.690173625946045,
				2.7975292205810547,
				2.1206274032592773
			],
			"min":[
				-2.301088333129883,
				-3.2594187259674072,
				-0.07597005367279053
			],
			"type":"VEC3"
		},
		{
			"bufferView":1,
			"componentType":5126,
			"count":2164,
			"type":"VEC3"
		},
		{
			"bufferView":2,
			"componentType":5126,
			"count":2164,
			"type":"VEC2"
		},
		{
			"bufferView":3,
			"componentType":5121,
			"count":2164,
			"type":"VEC4"
		},
		{
			"bufferView":4,
			"componentType":5126,
			"count":2164,
			"type":"VEC4"
		},
		{
			"bufferView":5,
			"componentType":5123,
			"count":4626,
			"type":"SCALAR"
		},
		{
			"bufferView":6,
			"componentType":5126,
			"count":2,
			"type":"MAT4"
		},
		{
			"bufferView":7,
			"componentType":5126,
			"count":2,
			"max":[
				6.35
			],
			"min":[
				3.9
			],
			"type":"SCALAR"
		},
		{
			"bufferView":8,
			"componentType":5126,
			"count":2,
			"type":"VEC3"
		},
		{
			"bufferView":9,
			"componentType":5126,
			"count":2,
			"type":"VEC4"
		},
		{
			"bufferView":10,
			"componentType":5126,
			"count":2,
			"type":"VEC3"
		},
		{
			"bufferView":11,
			"componentType":5126,
			"count":2,
			"type":"VEC3"
		},
		{
			"bufferView":12,
			"componentType":5126,
			"count":148,
			"max":[
				6.35
			],
			"min":[
				3.9
			],
			"type":"SCALAR"
		},
		{
			"bufferView":13,
			"componentType":5126,
			"count":148,
			"type":"VEC4"
		},
		{
			"bufferView":14,
			"componentType":5126,
			"count":2,
			"type":"VEC3"
		}
	],
	"bufferViews":[
		{
			"buffer":0,
			"byteLength":25968,
			"byteOffset":0,
			"target":34962
		},
		{
			"buffer":0,
			"byteLength":25968,
			"byteOffset":25968,
			"target":34962
		},
		{
			"buffer":0,
			"byteLength":17312,
			"byteOffset":51936,
			"target":34962
		},
		{
			"buffer":0,
			"byteLength":8656,
			"byteOffset":69248,
			"target":34962
		},
		{
			"buffer":0,
			"byteLength":34624,
			"byteOffset":77904,
			"target":34962
		},
		{
			"buffer":0,
			"byteLength":9252,
			"byteOffset":112528,
			"target":34963
		},
		{
			"buffer":0,
			"byteLength":128,
			"byteOffset":121780
		},
		{
			"buffer":0,
			"byteLength":8,
			"byteOffset":121908
		},
		{
			"buffer":0,
			"byteLength":24,
			"byteOffset":121916
		},
		{
			"buffer":0,
			"byteLength":32,
			"byteOffset":121940
		},
		{
			"buffer":0,
			"byteLength":24,
			"byteOffset":121972
		},
		{
			"buffer":0,
			"byteLength":24,
			"byteOffset":121996
		},
		{
			"buffer":0,
			"byteLength":592,
			"byteOffset":122020
		},
		{
			"buffer":0,
			"byteLength":2368,
			"byteOffset":122612
		},
		{
			"buffer":0,
			"byteLength":24,
			"byteOffset":124980
		}
	],
	"samplers":[
		{
			"magFilter":9729,
			"minFilter":9987
		}
	],
	"buffers":[
		{
			"byteLength":125004,
			"uri":"Cage.bin"
		}
	]
}
