{
	"asset":{
		"generator":"Khronos glTF Blender I/O v4.2.70",
		"version":"2.0"
	},
	"scene":0,
	"scenes":[
		{
			"name":"Scene",
			"nodes":[
				4
			]
		}
	],
	"nodes":[
		{
			"mesh":0,
			"name":"Cube.052",
			"rotation":[
				-0.4999999403953552,
				0.4999999403953552,
				-0.5000000596046448,
				0.5000001192092896
			],
			"scale":[
				1.0000001192092896,
				1,
				1
			],
			"translation":[
				-0.017062662169337273,
				0.9076805114746094,
				-0.0045696888118982315
			]
		},
		{
			"children":[
				0
			],
			"name":"Bone.001",
			"rotation":[
				-1.0125021887531435e-14,
				3.649715552000998e-08,
				3.6497176836292056e-08,
				1
			],
			"scale":[
				1,
				0.9999999403953552,
				1
			],
			"translation":[
				-1.8312221072847024e-08,
				1.034298062324524,
				2.4866758963071334e-07
			]
		},
		{
			"mesh":1,
			"name":"Cube.051",
			"rotation":[
				-0.5,
				0.4999999403953552,
				-0.5000000596046448,
				0.5000000596046448
			],
			"translation":[
				-0.009819244965910912,
				1.9432202577590942,
				-2.926408529281616
			]
		},
		{
			"children":[
				1,
				2
			],
			"name":"Bone",
			"rotation":[
				0.7071067690849304,
				8.429369557916289e-08,
				8.606397727817239e-08,
				0.7071067690849304
			],
			"translation":[
				-2.528793174860766e-08,
				0.8906040191650391,
				0.040576059371232986
			]
		},
		{
			"children":[
				3
			],
			"name":"Armature.005",
			"rotation":[
				0,
				-0.7071068286895752,
				0,
				0.7071068286895752
			],
			"translation":[
				12.33742618560791,
				-23.676294326782227,
				1.0321482419967651
			]
		}
	],
	"animations":[
		{
			"channels":[
				{
					"sampler":0,
					"target":{
						"node":3,
						"path":"translation"
					}
				},
				{
					"sampler":1,
					"target":{
						"node":3,
						"path":"rotation"
					}
				},
				{
					"sampler":2,
					"target":{
						"node":3,
						"path":"scale"
					}
				},
				{
					"sampler":3,
					"target":{
						"node":1,
						"path":"translation"
					}
				},
				{
					"sampler":4,
					"target":{
						"node":1,
						"path":"rotation"
					}
				},
				{
					"sampler":5,
					"target":{
						"node":1,
						"path":"scale"
					}
				}
			],
			"name":"CageOpen",
			"samplers":[
				{
					"input":8,
					"interpolation":"STEP",
					"output":9
				},
				{
					"input":8,
					"interpolation":"STEP",
					"output":10
				},
				{
					"input":8,
					"interpolation":"STEP",
					"output":11
				},
				{
					"input":8,
					"interpolation":"STEP",
					"output":12
				},
				{
					"input":13,
					"interpolation":"LINEAR",
					"output":14
				},
				{
					"input":8,
					"interpolation":"STEP",
					"output":15
				}
			]
		}
	],
	"materials":[
		{
			"doubleSided":true,
			"name":"Cage",
			"normalTexture":{
				"index":0
			},
			"pbrMetallicRoughness":{
				"baseColorTexture":{
					"index":1
				},
				"metallicRoughnessTexture":{
					"index":2
				}
			}
		}
	],
	"meshes":[
		{
			"name":"Cube.066",
			"primitives":[
				{
					"attributes":{
						"POSITION":0,
						"NORMAL":1,
						"TEXCOORD_0":2
					},
					"indices":3,
					"material":0
				}
			]
		},
		{
			"name":"Cube.065",
			"primitives":[
				{
					"attributes":{
						"POSITION":4,
						"NORMAL":5,
						"TEXCOORD_0":6
					},
					"indices":7,
					"material":0
				}
			]
		}
	],
	"textures":[
		{
			"sampler":0,
			"source":0
		},
		{
			"sampler":0,
			"source":1
		},
		{
			"sampler":0,
			"source":2
		}
	],
	"images":[
		{
			"mimeType":"image/png",
			"name":"DefaultMaterial_Normal.png",
			"uri":"DefaultMaterial_Normal_png.png"
		},
		{
			"mimeType":"image/png",
			"name":"DefaultMaterial_Base_color.png",
			"uri":"DefaultMaterial_Base_color_png.png"
		},
		{
			"mimeType":"image/png",
			"name":"DefaultMaterial_Metallic.png-DefaultMaterial_Roughness.png",
			"uri":"DefaultMaterial_Metallic_png-DefaultMaterial_Roughness_png.png"
		}
	],
	"skins":[
		{
			"inverseBindMatrices":16,
			"joints":[
				3,
				1
			],
			"name":"Armature.005"
		}
	],
	"accessors":[
		{
			"bufferView":0,
			"componentType":5126,
			"count":188,
			"max":[
				1.0275895595550537,
				0.09169454127550125,
				0.9031130075454712
			],
			"min":[
				-0.8991510272026062,
				-0.1298314779996872,
				-0.9031131863594055
			],
			"type":"VEC3"
		},
		{
			"bufferView":1,
			"componentType":5126,
			"count":188,
			"type":"VEC3"
		},
		{
			"bufferView":2,
			"componentType":5126,
			"count":188,
			"type":"VEC2"
		},
		{
			"bufferView":3,
			"componentType":5123,
			"count":348,
			"type":"SCALAR"
		},
		{
			"bufferView":4,
			"componentType":5126,
			"count":1980,
			"max":[
				1.9956316947937012,
				3.005277395248413,
				1.0982987880706787
			],
			"min":[
				-1.9956305027008057,
				-3.005280017852783,
				-1.0982986688613892
			],
			"type":"VEC3"
		},
		{
			"bufferView":5,
			"componentType":5126,
			"count":1980,
			"type":"VEC3"
		},
		{
			"bufferView":6,
			"componentType":5126,
			"count":1980,
			"type":"VEC2"
		},
		{
			"bufferView":7,
			"componentType":5123,
			"count":4284,
			"type":"SCALAR"
		},
		{
			"bufferView":8,
			"componentType":5126,
			"count":2,
			"max":[
				2.45
			],
			"min":[
				0
			],
			"type":"SCALAR"
		},
		{
			"bufferView":9,
			"componentType":5126,
			"count":2,
			"type":"VEC3"
		},
		{
			"bufferView":10,
			"componentType":5126,
			"count":2,
			"type":"VEC4"
		},
		{
			"bufferView":11,
			"componentType":5126,
			"count":2,
			"type":"VEC3"
		},
		{
			"bufferView":12,
			"componentType":5126,
			"count":2,
			"type":"VEC3"
		},
		{
			"bufferView":13,
			"componentType":5126,
			"count":148,
			"max":[
				2.45
			],
			"min":[
				0
			],
			"type":"SCALAR"
		},
		{
			"bufferView":14,
			"componentType":5126,
			"count":148,
			"type":"VEC4"
		},
		{
			"bufferView":15,
			"componentType":5126,
			"count":2,
			"type":"VEC3"
		},
		{
			"bufferView":16,
			"componentType":5126,
			"count":2,
			"type":"MAT4"
		}
	],
	"bufferViews":[
		{
			"buffer":0,
			"byteLength":2256,
			"byteOffset":0,
			"target":34962
		},
		{
			"buffer":0,
			"byteLength":2256,
			"byteOffset":2256,
			"target":34962
		},
		{
			"buffer":0,
			"byteLength":1504,
			"byteOffset":4512,
			"target":34962
		},
		{
			"buffer":0,
			"byteLength":696,
			"byteOffset":6016,
			"target":34963
		},
		{
			"buffer":0,
			"byteLength":23760,
			"byteOffset":6712,
			"target":34962
		},
		{
			"buffer":0,
			"byteLength":23760,
			"byteOffset":30472,
			"target":34962
		},
		{
			"buffer":0,
			"byteLength":15840,
			"byteOffset":54232,
			"target":34962
		},
		{
			"buffer":0,
			"byteLength":8568,
			"byteOffset":70072,
			"target":34963
		},
		{
			"buffer":0,
			"byteLength":8,
			"byteOffset":78640
		},
		{
			"buffer":0,
			"byteLength":24,
			"byteOffset":78648
		},
		{
			"buffer":0,
			"byteLength":32,
			"byteOffset":78672
		},
		{
			"buffer":0,
			"byteLength":24,
			"byteOffset":78704
		},
		{
			"buffer":0,
			"byteLength":24,
			"byteOffset":78728
		},
		{
			"buffer":0,
			"byteLength":592,
			"byteOffset":78752
		},
		{
			"buffer":0,
			"byteLength":2368,
			"byteOffset":79344
		},
		{
			"buffer":0,
			"byteLength":24,
			"byteOffset":81712
		},
		{
			"buffer":0,
			"byteLength":128,
			"byteOffset":81736
		}
	],
	"samplers":[
		{
			"magFilter":9729,
			"minFilter":9987
		}
	],
	"buffers":[
		{
			"byteLength":81864,
			"uri":"CageNew.bin"
		}
	]
}
