{
	"asset":{
		"generator":"Khronos glTF Blender I/O v4.4.56",
		"version":"2.0"
	},
	"scene":0,
	"scenes":[
		{
			"name":"Scene",
			"nodes":[
				0
			]
		}
	],
	"nodes":[
		{
			"mesh":0,
			"name":"DOWN"
		}
	],
	"materials":[
		{
			"doubleSided":true,
			"name":"Material",
			"pbrMetallicRoughness":{
				"baseColorFactor":[
					0.01697070710361004,
					0.02004360593855381,
					0.018280616030097008,
					1
				],
				"metallicFactor":0.11023622006177902,
				"roughnessFactor":0.8937007784843445
			}
		},
		{
			"doubleSided":true,
			"name":"Material.004",
			"pbrMetallicRoughness":{
				"baseColorFactor":[
					0.0078884931281209,
					0.009253914467990398,
					0.007882952690124512,
					1
				],
				"metallicFactor":0.05511811003088951,
				"roughnessFactor":0.9803149700164795
			}
		}
	],
	"meshes":[
		{
			"name":"Cube.001",
			"primitives":[
				{
					"attributes":{
						"POSITION":0,
						"NORMAL":1,
						"TEXCOORD_0":2
					},
					"indices":3,
					"material":0
				},
				{
					"attributes":{
						"POSITION":4,
						"NORMAL":5,
						"TEXCOORD_0":6
					},
					"indices":7,
					"material":1
				}
			]
		}
	],
	"accessors":[
		{
			"bufferView":0,
			"componentType":5126,
			"count":284,
			"max":[
				4,
				0.2326061874628067,
				1
			],
			"min":[
				-4,
				4.768371297814156e-08,
				-1
			],
			"type":"VEC3"
		},
		{
			"bufferView":1,
			"componentType":5126,
			"count":284,
			"type":"VEC3"
		},
		{
			"bufferView":2,
			"componentType":5126,
			"count":284,
			"type":"VEC2"
		},
		{
			"bufferView":3,
			"componentType":5123,
			"count":972,
			"type":"SCALAR"
		},
		{
			"bufferView":4,
			"componentType":5126,
			"count":128,
			"max":[
				3.091712474822998,
				0.18373073637485504,
				0.31878432631492615
			],
			"min":[
				-3.091712474822998,
				0.10066520422697067,
				-0.31878432631492615
			],
			"type":"VEC3"
		},
		{
			"bufferView":5,
			"componentType":5126,
			"count":128,
			"type":"VEC3"
		},
		{
			"bufferView":6,
			"componentType":5126,
			"count":128,
			"type":"VEC2"
		},
		{
			"bufferView":7,
			"componentType":5123,
			"count":216,
			"type":"SCALAR"
		}
	],
	"bufferViews":[
		{
			"buffer":0,
			"byteLength":3408,
			"byteOffset":0,
			"target":34962
		},
		{
			"buffer":0,
			"byteLength":3408,
			"byteOffset":3408,
			"target":34962
		},
		{
			"buffer":0,
			"byteLength":2272,
			"byteOffset":6816,
			"target":34962
		},
		{
			"buffer":0,
			"byteLength":1944,
			"byteOffset":9088,
			"target":34963
		},
		{
			"buffer":0,
			"byteLength":1536,
			"byteOffset":11032,
			"target":34962
		},
		{
			"buffer":0,
			"byteLength":1536,
			"byteOffset":12568,
			"target":34962
		},
		{
			"buffer":0,
			"byteLength":1024,
			"byteOffset":14104,
			"target":34962
		},
		{
			"buffer":0,
			"byteLength":432,
			"byteOffset":15128,
			"target":34963
		}
	],
	"buffers":[
		{
			"byteLength":15560,
			"uri":"GateDown.bin"
		}
	]
}
