{
	"asset":{
		"generator":"Khronos glTF Blender I/O v4.2.70",
		"version":"2.0"
	},
	"scene":0,
	"scenes":[
		{
			"name":"Scene",
			"nodes":[
				0,
				1,
				2
			]
		}
	],
	"nodes":[
		{
			"mesh":0,
			"name":"Cube.016",
			"rotation":[
				-0.01673312671482563,
				0.03363829106092453,
				-0.6895615458488464,
				0.7232519388198853
			],
			"translation":[
				0.576796293258667,
				-0.025183305144309998,
				2.2167036533355713
			]
		},
		{
			"mesh":1,
			"name":"Cube.018",
			"rotation":[
				-0.01673312671482563,
				-0.03363828733563423,
				0.6895614862442017,
				0.72325199842453
			],
			"translation":[
				-1.1627562046051025,
				-0.025183305144309998,
				2.2167036533355713
			]
		},
		{
			"mesh":2,
			"name":"Cube.020",
			"translation":[
				-0.2920715808868408,
				-0.05831439420580864,
				0.6296578049659729
			]
		}
	],
	"materials":[
		{
			"doubleSided":true,
			"name":"Material",
			"normalTexture":{
				"index":0
			},
			"pbrMetallicRoughness":{
				"baseColorTexture":{
					"index":1
				},
				"metallicRoughnessTexture":{
					"index":2
				}
			}
		}
	],
	"meshes":[
		{
			"name":"Cube.102",
			"primitives":[
				{
					"attributes":{
						"POSITION":0,
						"NORMAL":1,
						"TEXCOORD_0":2
					},
					"indices":3,
					"material":0
				}
			]
		},
		{
			"name":"Cube.103",
			"primitives":[
				{
					"attributes":{
						"POSITION":4,
						"NORMAL":5,
						"TEXCOORD_0":6
					},
					"indices":7,
					"material":0
				}
			]
		},
		{
			"name":"Cube.105",
			"primitives":[
				{
					"attributes":{
						"POSITION":8,
						"NORMAL":9,
						"TEXCOORD_0":10
					},
					"indices":11,
					"material":0
				}
			]
		}
	],
	"textures":[
		{
			"sampler":0,
			"source":0
		},
		{
			"sampler":0,
			"source":1
		},
		{
			"sampler":0,
			"source":2
		}
	],
	"images":[
		{
			"mimeType":"image/png",
			"name":"DefaultMaterial_Normal_OpenGL",
			"uri":"DefaultMaterial_Normal_OpenGL.png"
		},
		{
			"mimeType":"image/png",
			"name":"DefaultMaterial_Base_color",
			"uri":"DefaultMaterial_Base_color.png"
		},
		{
			"mimeType":"image/png",
			"name":"DefaultMaterial_Metallic-DefaultMaterial_Roughness",
			"uri":"DefaultMaterial_Metallic-DefaultMaterial_Roughness.png"
		}
	],
	"accessors":[
		{
			"bufferView":0,
			"componentType":5126,
			"count":264,
			"max":[
				0.474066823720932,
				0.3993677794933319,
				0.04359506815671921
			],
			"min":[
				-0.39980030059814453,
				-0.5038861632347107,
				-0.12012781202793121
			],
			"type":"VEC3"
		},
		{
			"bufferView":1,
			"componentType":5126,
			"count":264,
			"type":"VEC3"
		},
		{
			"bufferView":2,
			"componentType":5126,
			"count":264,
			"type":"VEC2"
		},
		{
			"bufferView":3,
			"componentType":5123,
			"count":396,
			"type":"SCALAR"
		},
		{
			"bufferView":4,
			"componentType":5126,
			"count":264,
			"max":[
				0.39980030059814453,
				0.3993677794933319,
				0.04359506815671921
			],
			"min":[
				-0.474066823720932,
				-0.5038861632347107,
				-0.12012781202793121
			],
			"type":"VEC3"
		},
		{
			"bufferView":5,
			"componentType":5126,
			"count":264,
			"type":"VEC3"
		},
		{
			"bufferView":6,
			"componentType":5126,
			"count":264,
			"type":"VEC2"
		},
		{
			"bufferView":7,
			"componentType":5123,
			"count":396,
			"type":"SCALAR"
		},
		{
			"bufferView":8,
			"componentType":5126,
			"count":2414,
			"max":[
				0.8804698586463928,
				0.525274932384491,
				1.6520153284072876
			],
			"min":[
				-0.8860781788825989,
				-0.23966972529888153,
				-0.5480774641036987
			],
			"type":"VEC3"
		},
		{
			"bufferView":9,
			"componentType":5126,
			"count":2414,
			"type":"VEC3"
		},
		{
			"bufferView":10,
			"componentType":5126,
			"count":2414,
			"type":"VEC2"
		},
		{
			"bufferView":11,
			"componentType":5123,
			"count":3984,
			"type":"SCALAR"
		}
	],
	"bufferViews":[
		{
			"buffer":0,
			"byteLength":3168,
			"byteOffset":0,
			"target":34962
		},
		{
			"buffer":0,
			"byteLength":3168,
			"byteOffset":3168,
			"target":34962
		},
		{
			"buffer":0,
			"byteLength":2112,
			"byteOffset":6336,
			"target":34962
		},
		{
			"buffer":0,
			"byteLength":792,
			"byteOffset":8448,
			"target":34963
		},
		{
			"buffer":0,
			"byteLength":3168,
			"byteOffset":9240,
			"target":34962
		},
		{
			"buffer":0,
			"byteLength":3168,
			"byteOffset":12408,
			"target":34962
		},
		{
			"buffer":0,
			"byteLength":2112,
			"byteOffset":15576,
			"target":34962
		},
		{
			"buffer":0,
			"byteLength":792,
			"byteOffset":17688,
			"target":34963
		},
		{
			"buffer":0,
			"byteLength":28968,
			"byteOffset":18480,
			"target":34962
		},
		{
			"buffer":0,
			"byteLength":28968,
			"byteOffset":47448,
			"target":34962
		},
		{
			"buffer":0,
			"byteLength":19312,
			"byteOffset":76416,
			"target":34962
		},
		{
			"buffer":0,
			"byteLength":7968,
			"byteOffset":95728,
			"target":34963
		}
	],
	"samplers":[
		{
			"magFilter":9729,
			"minFilter":9987
		}
	],
	"buffers":[
		{
			"byteLength":103696,
			"uri":"TV.bin"
		}
	]
}
