{
	"asset":{
		"generator":"Khronos glTF Blender I/O v4.2.70",
		"version":"2.0"
	},
	"scene":0,
	"scenes":[
		{
			"name":"Scene",
			"nodes":[
				0
			]
		}
	],
	"nodes":[
		{
			"mesh":0,
			"name":"Cube.028",
			"translation":[
				7.5320892333984375,
				-0.05831439420580864,
				0.6296578049659729
			]
		}
	],
	"materials":[
		{
			"doubleSided":true,
			"name":"Material.005",
			"normalTexture":{
				"index":0
			},
			"pbrMetallicRoughness":{
				"baseColorTexture":{
					"index":1
				},
				"metallicRoughnessTexture":{
					"index":2
				}
			}
		},
		{
			"doubleSided":true,
			"name":"Material.006",
			"normalTexture":{
				"index":3
			},
			"pbrMetallicRoughness":{
				"baseColorTexture":{
					"index":4
				},
				"metallicRoughnessTexture":{
					"index":5
				}
			}
		}
	],
	"meshes":[
		{
			"name":"Cube.011",
			"primitives":[
				{
					"attributes":{
						"POSITION":0,
						"NORMAL":1,
						"TEXCOORD_0":2
					},
					"indices":3,
					"material":0
				},
				{
					"attributes":{
						"POSITION":4,
						"NORMAL":5,
						"TEXCOORD_0":6
					},
					"indices":7,
					"material":1
				}
			]
		}
	],
	"textures":[
		{
			"sampler":0,
			"source":0
		},
		{
			"sampler":0,
			"source":1
		},
		{
			"sampler":0,
			"source":2
		},
		{
			"sampler":0,
			"source":0
		},
		{
			"sampler":0,
			"source":1
		},
		{
			"sampler":0,
			"source":2
		}
	],
	"images":[
		{
			"mimeType":"image/png",
			"name":"DefaultMaterial_Normal_OpenGL",
			"uri":"DefaultMaterial_Normal_OpenGL.png"
		},
		{
			"mimeType":"image/png",
			"name":"DefaultMaterial_Base_color",
			"uri":"DefaultMaterial_Base_color.png"
		},
		{
			"mimeType":"image/png",
			"name":"DefaultMaterial_Metallic-DefaultMaterial_Roughness",
			"uri":"DefaultMaterial_Metallic-DefaultMaterial_Roughness.png"
		}
	],
	"accessors":[
		{
			"bufferView":0,
			"componentType":5126,
			"count":1990,
			"max":[
				0.8804698586463928,
				0.525274932384491,
				1.6520153284072876
			],
			"min":[
				-0.8860781788825989,
				-0.23966972529888153,
				0.13777755200862885
			],
			"type":"VEC3"
		},
		{
			"bufferView":1,
			"componentType":5126,
			"count":1990,
			"type":"VEC3"
		},
		{
			"bufferView":2,
			"componentType":5126,
			"count":1990,
			"type":"VEC2"
		},
		{
			"bufferView":3,
			"componentType":5123,
			"count":3324,
			"type":"SCALAR"
		},
		{
			"bufferView":4,
			"componentType":5126,
			"count":432,
			"max":[
				0.40511852502822876,
				0.09547708183526993,
				0.1515221893787384
			],
			"min":[
				-0.40572792291641235,
				-0.09601835161447525,
				-0.5027202367782593
			],
			"type":"VEC3"
		},
		{
			"bufferView":5,
			"componentType":5126,
			"count":432,
			"type":"VEC3"
		},
		{
			"bufferView":6,
			"componentType":5126,
			"count":432,
			"type":"VEC2"
		},
		{
			"bufferView":7,
			"componentType":5123,
			"count":660,
			"type":"SCALAR"
		}
	],
	"bufferViews":[
		{
			"buffer":0,
			"byteLength":23880,
			"byteOffset":0,
			"target":34962
		},
		{
			"buffer":0,
			"byteLength":23880,
			"byteOffset":23880,
			"target":34962
		},
		{
			"buffer":0,
			"byteLength":15920,
			"byteOffset":47760,
			"target":34962
		},
		{
			"buffer":0,
			"byteLength":6648,
			"byteOffset":63680,
			"target":34963
		},
		{
			"buffer":0,
			"byteLength":5184,
			"byteOffset":70328,
			"target":34962
		},
		{
			"buffer":0,
			"byteLength":5184,
			"byteOffset":75512,
			"target":34962
		},
		{
			"buffer":0,
			"byteLength":3456,
			"byteOffset":80696,
			"target":34962
		},
		{
			"buffer":0,
			"byteLength":1320,
			"byteOffset":84152,
			"target":34963
		}
	],
	"samplers":[
		{
			"magFilter":9729,
			"minFilter":9987
		}
	],
	"buffers":[
		{
			"byteLength":85472,
			"uri":"TVNoBlades.bin"
		}
	]
}
