{
	"asset":{
		"generator":"Khronos glTF Blender I/O v4.2.70",
		"version":"2.0"
	},
	"scene":0,
	"scenes":[
		{
			"name":"Scene",
			"nodes":[
				0
			]
		}
	],
	"nodes":[
		{
			"mesh":0,
			"name":"Cube.020",
			"translation":[
				-0.2920715808868408,
				-0.05831439420580864,
				0.6296578049659729
			]
		}
	],
	"materials":[
		{
			"doubleSided":true,
			"name":"Material",
			"normalTexture":{
				"index":0
			},
			"pbrMetallicRoughness":{
				"baseColorTexture":{
					"index":1
				},
				"metallicRoughnessTexture":{
					"index":2
				}
			}
		}
	],
	"meshes":[
		{
			"name":"Cube.105",
			"primitives":[
				{
					"attributes":{
						"POSITION":0,
						"NORMAL":1,
						"TEXCOORD_0":2
					},
					"indices":3,
					"material":0
				}
			]
		}
	],
	"textures":[
		{
			"sampler":0,
			"source":0
		},
		{
			"sampler":0,
			"source":1
		},
		{
			"sampler":0,
			"source":2
		}
	],
	"images":[
		{
			"mimeType":"image/png",
			"name":"DefaultMaterial_Normal_OpenGL",
			"uri":"DefaultMaterial_Normal_OpenGL.png"
		},
		{
			"mimeType":"image/png",
			"name":"DefaultMaterial_Base_color",
			"uri":"DefaultMaterial_Base_color.png"
		},
		{
			"mimeType":"image/png",
			"name":"DefaultMaterial_Metallic-DefaultMaterial_Roughness",
			"uri":"DefaultMaterial_Metallic-DefaultMaterial_Roughness.png"
		}
	],
	"accessors":[
		{
			"bufferView":0,
			"componentType":5126,
			"count":2414,
			"max":[
				0.8804698586463928,
				0.525274932384491,
				1.6520153284072876
			],
			"min":[
				-0.8860781788825989,
				-0.23966972529888153,
				-0.5480774641036987
			],
			"type":"VEC3"
		},
		{
			"bufferView":1,
			"componentType":5126,
			"count":2414,
			"type":"VEC3"
		},
		{
			"bufferView":2,
			"componentType":5126,
			"count":2414,
			"type":"VEC2"
		},
		{
			"bufferView":3,
			"componentType":5123,
			"count":3984,
			"type":"SCALAR"
		}
	],
	"bufferViews":[
		{
			"buffer":0,
			"byteLength":28968,
			"byteOffset":0,
			"target":34962
		},
		{
			"buffer":0,
			"byteLength":28968,
			"byteOffset":28968,
			"target":34962
		},
		{
			"buffer":0,
			"byteLength":19312,
			"byteOffset":57936,
			"target":34962
		},
		{
			"buffer":0,
			"byteLength":7968,
			"byteOffset":77248,
			"target":34963
		}
	],
	"samplers":[
		{
			"magFilter":9729,
			"minFilter":9987
		}
	],
	"buffers":[
		{
			"byteLength":85216,
			"uri":"TVOnly.bin"
		}
	]
}
