{
	"asset":{
		"generator":"Khronos glTF Blender I/O v4.2.70",
		"version":"2.0"
	},
	"scene":0,
	"scenes":[
		{
			"name":"Scene",
			"nodes":[
				0
			]
		}
	],
	"nodes":[
		{
			"mesh":0,
			"name":"Cube.032",
			"translation":[
				0,
				-26.819013595581055,
				0
			]
		}
	],
	"materials":[
		{
			"doubleSided":true,
			"name":"Material.025",
			"normalTexture":{
				"index":0
			},
			"pbrMetallicRoughness":{
				"baseColorTexture":{
					"index":1
				},
				"metallicRoughnessTexture":{
					"index":2
				}
			}
		},
		{
			"doubleSided":true,
			"name":"Material",
			"normalTexture":{
				"index":3
			},
			"pbrMetallicRoughness":{
				"baseColorTexture":{
					"index":4
				},
				"metallicRoughnessTexture":{
					"index":5
				}
			}
		}
	],
	"meshes":[
		{
			"name":"Cube.042",
			"primitives":[
				{
					"attributes":{
						"POSITION":0,
						"NORMAL":1,
						"TEXCOORD_0":2
					},
					"indices":3,
					"material":0
				},
				{
					"attributes":{
						"POSITION":4,
						"NORMAL":5,
						"TEXCOORD_0":6
					},
					"indices":7,
					"material":1
				},
				{
					"attributes":{
						"POSITION":8,
						"NORMAL":9,
						"TEXCOORD_0":10
					},
					"indices":11,
					"material":0
				}
			]
		}
	],
	"textures":[
		{
			"sampler":0,
			"source":0
		},
		{
			"sampler":0,
			"source":1
		},
		{
			"sampler":0,
			"source":2
		},
		{
			"sampler":0,
			"source":3
		},
		{
			"sampler":0,
			"source":4
		},
		{
			"sampler":0,
			"source":5
		}
	],
	"images":[
		{
			"mimeType":"image/png",
			"name":"Material.025_Normal_OpenGL",
			"uri":"Material_025_Normal_OpenGL.png"
		},
		{
			"mimeType":"image/png",
			"name":"Material.025_Base_color",
			"uri":"Material_025_Base_color.png"
		},
		{
			"mimeType":"image/png",
			"name":"Material.025_Metallic-Material.025_Roughness",
			"uri":"Material_025_Metallic-Material_025_Roughness.png"
		},
		{
			"mimeType":"image/png",
			"name":"Material.025_Normal_OpenGL.png",
			"uri":"Material_025_Normal_OpenGL_png.png"
		},
		{
			"mimeType":"image/png",
			"name":"Material.025_Base_color.png",
			"uri":"Material_025_Base_color.png"
		},
		{
			"mimeType":"image/png",
			"name":"Material.025_Metallic.png-Material.025_Roughness.png",
			"uri":"Material_025_Metallic_png-Material_025_Roughness.png"
		}
	],
	"accessors":[
		{
			"bufferView":0,
			"componentType":5126,
			"count":108,
			"max":[
				1.0000423192977905,
				1.2263092994689941,
				1.0245853662490845
			],
			"min":[
				-1,
				-1.1620192527770996,
				-1.09689199924469
			],
			"type":"VEC3"
		},
		{
			"bufferView":1,
			"componentType":5126,
			"count":108,
			"type":"VEC3"
		},
		{
			"bufferView":2,
			"componentType":5126,
			"count":108,
			"type":"VEC2"
		},
		{
			"bufferView":3,
			"componentType":5123,
			"count":180,
			"type":"SCALAR"
		},
		{
			"bufferView":4,
			"componentType":5126,
			"count":288,
			"max":[
				1.2716132402420044,
				1.3536758422851562,
				1.1131147146224976
			],
			"min":[
				-1.2716131210327148,
				-1.3063288927078247,
				-1.223899006843567
			],
			"type":"VEC3"
		},
		{
			"bufferView":5,
			"componentType":5126,
			"count":288,
			"type":"VEC3"
		},
		{
			"bufferView":6,
			"componentType":5126,
			"count":288,
			"type":"VEC2"
		},
		{
			"bufferView":7,
			"componentType":5123,
			"count":420,
			"type":"SCALAR"
		},
		{
			"bufferView":8,
			"componentType":5126,
			"count":192,
			"max":[
				1.2716132402420044,
				1.348953366279602,
				1.1890716552734375
			],
			"min":[
				-1.2716131210327148,
				-1.3110514879226685,
				0.9163140058517456
			],
			"type":"VEC3"
		},
		{
			"bufferView":9,
			"componentType":5126,
			"count":192,
			"type":"VEC3"
		},
		{
			"bufferView":10,
			"componentType":5126,
			"count":192,
			"type":"VEC2"
		},
		{
			"bufferView":11,
			"componentType":5123,
			"count":276,
			"type":"SCALAR"
		}
	],
	"bufferViews":[
		{
			"buffer":0,
			"byteLength":1296,
			"byteOffset":0,
			"target":34962
		},
		{
			"buffer":0,
			"byteLength":1296,
			"byteOffset":1296,
			"target":34962
		},
		{
			"buffer":0,
			"byteLength":864,
			"byteOffset":2592,
			"target":34962
		},
		{
			"buffer":0,
			"byteLength":360,
			"byteOffset":3456,
			"target":34963
		},
		{
			"buffer":0,
			"byteLength":3456,
			"byteOffset":3816,
			"target":34962
		},
		{
			"buffer":0,
			"byteLength":3456,
			"byteOffset":7272,
			"target":34962
		},
		{
			"buffer":0,
			"byteLength":2304,
			"byteOffset":10728,
			"target":34962
		},
		{
			"buffer":0,
			"byteLength":840,
			"byteOffset":13032,
			"target":34963
		},
		{
			"buffer":0,
			"byteLength":2304,
			"byteOffset":13872,
			"target":34962
		},
		{
			"buffer":0,
			"byteLength":2304,
			"byteOffset":16176,
			"target":34962
		},
		{
			"buffer":0,
			"byteLength":1536,
			"byteOffset":18480,
			"target":34962
		},
		{
			"buffer":0,
			"byteLength":552,
			"byteOffset":20016,
			"target":34963
		}
	],
	"samplers":[
		{
			"magFilter":9729,
			"minFilter":9987
		}
	],
	"buffers":[
		{
			"byteLength":20568,
			"uri":"Mirror.bin"
		}
	]
}
