{
    "asset": {
        "version": "2.0",
        "generator": "Open Asset Import Library (assimp v3.1.118612264)"
    },
    "accessors": [
        {
            "bufferView": 0,
            "byteOffset": 0,
            "componentType": 5126,
            "count": 260,
            "type": "VEC3",
            "max": [
                0.42274564504623415,
                -0.4171585440635681,
                1.45237398147583
            ],
            "min": [
                -0.42274564504623415,
                -0.657158613204956,
                0.00044792890548706055
            ]
        },
        {
            "bufferView": 1,
            "byteOffset": 0,
            "componentType": 5126,
            "count": 260,
            "type": "VEC3",
            "max": [
                0.9999999403953552,
                0.9999999403953552,
                0.9906566143035889
            ],
            "min": [
                -0.9999999403953552,
                -0.9988012909889221,
                -0.9999999403953552
            ]
        },
        {
            "bufferView": 2,
            "byteOffset": 0,
            "componentType": 5126,
            "count": 260,
            "type": "VEC4",
            "max": [
                1.0,
                1.0,
                1.0,
                1.0
            ],
            "min": [
                -0.9999999403953552,
                -0.999999463558197,
                -0.9999999403953552,
                -0.9999999403953552
            ]
        },
        {
            "bufferView": 3,
            "byteOffset": 0,
            "componentType": 5126,
            "count": 260,
            "type": "VEC2",
            "max": [
                0.9959824681282044,
                0.9959826469421387
            ],
            "min": [
                0.00401740986853838,
                0.026378273963928224
            ]
        },
        {
            "bufferView": 4,
            "byteOffset": 0,
            "componentType": 5123,
            "count": 912,
            "type": "SCALAR",
            "max": [
                259.0
            ],
            "min": [
                0.0
            ]
        }
    ],
    "buffers": [
        {
            "byteLength": 14304,
            "uri": "Rail_end.bin"
        }
    ],
    "bufferViews": [
        {
            "buffer": 0,
            "byteOffset": 0,
            "byteLength": 3120,
            "target": 34962
        },
        {
            "buffer": 0,
            "byteOffset": 3120,
            "byteLength": 3120,
            "target": 34962
        },
        {
            "buffer": 0,
            "byteOffset": 6240,
            "byteLength": 4160,
            "target": 34962
        },
        {
            "buffer": 0,
            "byteOffset": 10400,
            "byteLength": 2080,
            "target": 34962
        },
        {
            "buffer": 0,
            "byteOffset": 12480,
            "byteLength": 1824,
            "target": 34963
        }
    ],
    "materials": [
        {
            "name": "DefaultMaterial",
            "pbrMetallicRoughness": {
                "baseColorFactor": [
                    0.6000000238418579,
                    0.6000000238418579,
                    0.6000000238418579,
                    1.0
                ],
                "metallicFactor": 0.0
            }
        }
    ],
    "meshes": [
        {
            "name": "Cube.002",
            "primitives": [
                {
                    "mode": 4,
                    "material": 0,
                    "indices": 4,
                    "attributes": {
                        "POSITION": 0,
                        "NORMAL": 1,
                        "TANGENT": 2,
                        "TEXCOORD_0": 3
                    }
                }
            ]
        }
    ],
    "nodes": [
        {
            "name": "RootNode",
            "matrix": [
                0.009999999776482582,
                0.0,
                0.0,
                0.0,
                0.0,
                0.009999999776482582,
                0.0,
                0.0,
                0.0,
                0.0,
                0.009999999776482582,
                0.0,
                0.0,
                0.0,
                0.0,
                1.0
            ],
            "children": [
                1
            ]
        },
        {
            "name": "Cube.002",
            "matrix": [
                100.0,
                0.0,
                0.0,
                0.0,
                0.0,
                -0.000016292067812173629,
                -100.0,
                0.0,
                0.0,
                100.0,
                -0.000016292067812173629,
                0.0,
                0.0,
                0.0,
                0.0,
                1.0
            ],
            "mesh": 0
        }
    ],
    "scenes": [
        {
            "nodes": [
                0
            ]
        }
    ],
    "scene": 0
}