{
    "asset": {
        "version": "2.0",
        "generator": "Open Asset Import Library (assimp v3.1.118612264)"
    },
    "accessors": [
        {
            "bufferView": 0,
            "byteOffset": 0,
            "componentType": 5126,
            "count": 147,
            "type": "VEC3",
            "max": [
                0.42274564504623415,
                -0.4171585738658905,
                1.2763876914978028
            ],
            "min": [
                -0.42274564504623415,
                -0.657158613204956,
                0.00044792890548706055
            ]
        },
        {
            "bufferView": 1,
            "byteOffset": 0,
            "componentType": 5126,
            "count": 147,
            "type": "VEC3",
            "max": [
                1.0,
                1.0,
                0.9999969005584717
            ],
            "min": [
                -1.0,
                -0.9957743287086487,
                -1.0
            ]
        },
        {
            "bufferView": 2,
            "byteOffset": 0,
            "componentType": 5126,
            "count": 147,
            "type": "VEC4",
            "max": [
                1.0,
                1.0,
                1.0,
                1.0
            ],
            "min": [
                -1.0,
                -1.0,
                -1.0,
                -1.0
            ]
        },
        {
            "bufferView": 3,
            "byteOffset": 0,
            "componentType": 5126,
            "count": 147,
            "type": "VEC2",
            "max": [
                0.9753465056419373,
                0.995157778263092
            ],
            "min": [
                0.00484229251742363,
                0.004842221736907959
            ]
        },
        {
            "bufferView": 4,
            "byteOffset": 0,
            "componentType": 5123,
            "count": 354,
            "type": "SCALAR",
            "max": [
                146.0
            ],
            "min": [
                0.0
            ]
        }
    ],
    "buffers": [
        {
            "byteLength": 7764,
            "uri": "Rail.bin"
        }
    ],
    "bufferViews": [
        {
            "buffer": 0,
            "byteOffset": 0,
            "byteLength": 1764,
            "target": 34962
        },
        {
            "buffer": 0,
            "byteOffset": 1764,
            "byteLength": 1764,
            "target": 34962
        },
        {
            "buffer": 0,
            "byteOffset": 3528,
            "byteLength": 2352,
            "target": 34962
        },
        {
            "buffer": 0,
            "byteOffset": 5880,
            "byteLength": 1176,
            "target": 34962
        },
        {
            "buffer": 0,
            "byteOffset": 7056,
            "byteLength": 708,
            "target": 34963
        }
    ],
    "materials": [
        {
            "name": "DefaultMaterial",
            "pbrMetallicRoughness": {
                "baseColorFactor": [
                    0.6000000238418579,
                    0.6000000238418579,
                    0.6000000238418579,
                    1.0
                ],
                "metallicFactor": 0.0
            }
        }
    ],
    "meshes": [
        {
            "name": "Cube.003",
            "primitives": [
                {
                    "mode": 4,
                    "material": 0,
                    "indices": 4,
                    "attributes": {
                        "POSITION": 0,
                        "NORMAL": 1,
                        "TANGENT": 2,
                        "TEXCOORD_0": 3
                    }
                }
            ]
        }
    ],
    "nodes": [
        {
            "name": "RootNode",
            "matrix": [
                0.009999999776482582,
                0.0,
                0.0,
                0.0,
                0.0,
                0.009999999776482582,
                0.0,
                0.0,
                0.0,
                0.0,
                0.009999999776482582,
                0.0,
                0.0,
                0.0,
                0.0,
                1.0
            ],
            "children": [
                1
            ]
        },
        {
            "name": "Cube.003",
            "matrix": [
                100.0,
                0.0,
                0.0,
                0.0,
                0.0,
                -0.000016292067812173629,
                -100.0,
                0.0,
                0.0,
                100.0,
                -0.000016292067812173629,
                0.0,
                0.0,
                0.0,
                0.0,
                1.0
            ],
            "mesh": 0
        }
    ],
    "scenes": [
        {
            "nodes": [
                0
            ]
        }
    ],
    "scene": 0
}