{
	"asset":{
		"generator":"Khronos glTF Blender I/O v4.4.56",
		"version":"2.0"
	},
	"scene":0,
	"scenes":[
		{
			"name":"Scene",
			"nodes":[
				0
			]
		}
	],
	"nodes":[
		{
			"mesh":0,
			"name":"Cube"
		}
	],
	"materials":[
		{
			"doubleSided":true,
			"name":"Cube",
			"normalTexture":{
				"index":0
			},
			"pbrMetallicRoughness":{
				"baseColorTexture":{
					"index":1
				},
				"metallicRoughnessTexture":{
					"index":2
				}
			}
		}
	],
	"meshes":[
		{
			"name":"Cube.001",
			"primitives":[
				{
					"attributes":{
						"POSITION":0,
						"NORMAL":1,
						"TEXCOORD_0":2
					},
					"indices":3,
					"material":0
				}
			]
		}
	],
	"textures":[
		{
			"sampler":0,
			"source":0
		},
		{
			"sampler":0,
			"source":1
		},
		{
			"sampler":0,
			"source":2
		}
	],
	"images":[
		{
			"mimeType":"image/png",
			"name":"Winda_normal",
			"uri":"Winda_normal.png"
		},
		{
			"mimeType":"image/png",
			"name":"Winda_diffuse",
			"uri":"Winda_diffuse.png"
		},
		{
			"mimeType":"image/png",
			"name":"Winda Metallic-Winda Roughness",
			"uri":"Winda%20Metallic-Winda%20Roughness.png"
		}
	],
	"accessors":[
		{
			"bufferView":0,
			"componentType":5126,
			"count":1282,
			"max":[
				2,
				0.5498874187469482,
				2
			],
			"min":[
				-2,
				1.4901161193847656e-08,
				-2
			],
			"type":"VEC3"
		},
		{
			"bufferView":1,
			"componentType":5126,
			"count":1282,
			"type":"VEC3"
		},
		{
			"bufferView":2,
			"componentType":5126,
			"count":1282,
			"type":"VEC2"
		},
		{
			"bufferView":3,
			"componentType":5123,
			"count":5403,
			"type":"SCALAR"
		}
	],
	"bufferViews":[
		{
			"buffer":0,
			"byteLength":15384,
			"byteOffset":0,
			"target":34962
		},
		{
			"buffer":0,
			"byteLength":15384,
			"byteOffset":15384,
			"target":34962
		},
		{
			"buffer":0,
			"byteLength":10256,
			"byteOffset":30768,
			"target":34962
		},
		{
			"buffer":0,
			"byteLength":10806,
			"byteOffset":41024,
			"target":34963
		}
	],
	"samplers":[
		{
			"magFilter":9729,
			"minFilter":9987
		}
	],
	"buffers":[
		{
			"byteLength":51832,
			"uri":"Winda.bin"
		}
	]
}
