{
    "asset": {
        "version": "2.0",
        "generator": "Open Asset Import Library (assimp v3.1.118612264)"
    },
    "accessors": [
        {
            "bufferView": 0,
            "byteOffset": 0,
            "componentType": 5126,
            "count": 262,
            "type": "VEC3",
            "max": [
                1.0,
                1.0,
                0.13436618447303773
            ],
            "min": [
                -1.0,
                -1.0,
                -2.2351741790771486e-8
            ]
        },
        {
            "bufferView": 1,
            "byteOffset": 0,
            "componentType": 5126,
            "count": 262,
            "type": "VEC3",
            "max": [
                0.8248376846313477,
                0.8248386979103088,
                1.0
            ],
            "min": [
                -0.8248376846313477,
                -0.99778813123703,
                -1.0
            ]
        },
        {
            "bufferView": 2,
            "byteOffset": 0,
            "componentType": 5126,
            "count": 262,
            "type": "VEC4",
            "max": [
                1.0,
                1.0,
                1.0,
                1.0
            ],
            "min": [
                -1.0,
                -1.0,
                -1.0,
                -1.0
            ]
        },
        {
            "bufferView": 3,
            "byteOffset": 0,
            "componentType": 5126,
            "count": 262,
            "type": "VEC2",
            "max": [
                1.0,
                1.0
            ],
            "min": [
                -3.4626419509464769e-9,
                0.07743579149246216
            ]
        },
        {
            "bufferView": 4,
            "byteOffset": 0,
            "componentType": 5123,
            "count": 684,
            "type": "SCALAR",
            "max": [
                261.0
            ],
            "min": [
                0.0
            ]
        }
    ],
    "buffers": [
        {
            "byteLength": 13944,
            "uri": "Przycisk_active.bin"
        }
    ],
    "bufferViews": [
        {
            "buffer": 0,
            "byteOffset": 0,
            "byteLength": 3144,
            "target": 34962
        },
        {
            "buffer": 0,
            "byteOffset": 3144,
            "byteLength": 3144,
            "target": 34962
        },
        {
            "buffer": 0,
            "byteOffset": 6288,
            "byteLength": 4192,
            "target": 34962
        },
        {
            "buffer": 0,
            "byteOffset": 10480,
            "byteLength": 2096,
            "target": 34962
        },
        {
            "buffer": 0,
            "byteOffset": 12576,
            "byteLength": 1368,
            "target": 34963
        }
    ],
    "materials": [
        {
            "name": "Material.002",
            "pbrMetallicRoughness": {
                "baseColorFactor": [
                    0.07198866456747055,
                    0.07198866456747055,
                    0.07198866456747055,
                    1.0
                ],
                "metallicFactor": 0.0
            }
        }
    ],
    "meshes": [
        {
            "name": "Cube.006",
            "primitives": [
                {
                    "mode": 4,
                    "material": 0,
                    "indices": 4,
                    "attributes": {
                        "POSITION": 0,
                        "NORMAL": 1,
                        "TANGENT": 2,
                        "TEXCOORD_0": 3
                    }
                }
            ]
        }
    ],
    "nodes": [
        {
            "name": "RootNode",
            "matrix": [
                0.009999999776482582,
                0.0,
                0.0,
                0.0,
                0.0,
                0.009999999776482582,
                0.0,
                0.0,
                0.0,
                0.0,
                0.009999999776482582,
                0.0,
                0.0,
                0.0,
                0.0,
                1.0
            ],
            "children": [
                1
            ]
        },
        {
            "name": "Cube.006",
            "matrix": [
                100.0,
                0.0,
                0.0,
                0.0,
                0.0,
                -0.000016292067812173629,
                -100.0,
                0.0,
                0.0,
                100.0,
                -0.000016292067812173629,
                0.0,
                0.0,
                0.0,
                0.0,
                1.0
            ],
            "mesh": 0
        }
    ],
    "scenes": [
        {
            "nodes": [
                0
            ]
        }
    ],
    "scene": 0
}