{
	"asset":{
		"generator":"Khronos glTF Blender I/O v4.2.70",
		"version":"2.0"
	},
	"scene":0,
	"scenes":[
		{
			"name":"Scene",
			"nodes":[
				0
			]
		}
	],
	"nodes":[
		{
			"mesh":0,
			"name":"Cylinder.001",
			"translation":[
				-3.838266372680664,
				-2.924381732940674,
				1.3431179523468018
			]
		}
	],
	"materials":[
		{
			"doubleSided":true,
			"name":"Nail1",
			"pbrMetallicRoughness":{
				"baseColorTexture":{
					"index":0
				},
				"metallicRoughnessTexture":{
					"index":1
				}
			}
		}
	],
	"meshes":[
		{
			"name":"Cylinder.001",
			"primitives":[
				{
					"attributes":{
						"POSITION":0,
						"NORMAL":1,
						"TEXCOORD_0":2
					},
					"indices":3,
					"material":0
				}
			]
		}
	],
	"textures":[
		{
			"sampler":0,
			"source":0
		},
		{
			"sampler":0,
			"source":1
		}
	],
	"images":[
		{
			"mimeType":"image/png",
			"name":"DefaultMaterial_Base_color",
			"uri":"DefaultMaterial_Base_color.png"
		},
		{
			"mimeType":"image/png",
			"name":"DefaultMaterial_Metallic.png-DefaultMaterial_Roughness.png",
			"uri":"DefaultMaterial_Metallic_png-DefaultMaterial_Roughness_png.png"
		}
	],
	"accessors":[
		{
			"bufferView":0,
			"componentType":5126,
			"count":144,
			"max":[
				0.5715814828872681,
				0.5715814828872681,
				1.0809355974197388
			],
			"min":[
				-0.5715814828872681,
				-0.5715814828872681,
				-1.5551432371139526
			],
			"type":"VEC3"
		},
		{
			"bufferView":1,
			"componentType":5126,
			"count":144,
			"type":"VEC3"
		},
		{
			"bufferView":2,
			"componentType":5126,
			"count":144,
			"type":"VEC2"
		},
		{
			"bufferView":3,
			"componentType":5123,
			"count":228,
			"type":"SCALAR"
		}
	],
	"bufferViews":[
		{
			"buffer":0,
			"byteLength":1728,
			"byteOffset":0,
			"target":34962
		},
		{
			"buffer":0,
			"byteLength":1728,
			"byteOffset":1728,
			"target":34962
		},
		{
			"buffer":0,
			"byteLength":1152,
			"byteOffset":3456,
			"target":34962
		},
		{
			"buffer":0,
			"byteLength":456,
			"byteOffset":4608,
			"target":34963
		}
	],
	"samplers":[
		{
			"magFilter":9729,
			"minFilter":9987
		}
	],
	"buffers":[
		{
			"byteLength":5064,
			"uri":"Nail1.bin"
		}
	]
}
