{
	"asset":{
		"copyright":"TXT",
		"generator":"Khronos glTF Blender I/O v4.2.70",
		"version":"2.0"
	},
	"scene":0,
	"scenes":[
		{
			"name":"Scene",
			"nodes":[
				0
			]
		}
	],
	"nodes":[
		{
			"mesh":0,
			"name":"Cube.057",
			"translation":[
				32.99181365966797,
				0.0029717087745666504,
				1.3496158123016357
			]
		}
	],
	"materials":[
		{
			"doubleSided":true,
			"name":"Material.017",
			"normalTexture":{
				"index":0
			},
			"pbrMetallicRoughness":{
				"baseColorTexture":{
					"index":1
				},
				"metallicRoughnessTexture":{
					"index":2
				}
			}
		}
	],
	"meshes":[
		{
			"name":"Cube.030",
			"primitives":[
				{
					"attributes":{
						"POSITION":0,
						"NORMAL":1,
						"TEXCOORD_0":2
					},
					"indices":3,
					"material":0
				}
			]
		}
	],
	"textures":[
		{
			"sampler":0,
			"source":0
		},
		{
			"sampler":0,
			"source":1
		},
		{
			"sampler":0,
			"source":2
		}
	],
	"images":[
		{
			"mimeType":"image/png",
			"name":"DefaultMaterial_Normal_OpenGL.png",
			"uri":"DefaultMaterial_Normal_OpenGL_png.png"
		},
		{
			"mimeType":"image/png",
			"name":"DefaultMaterial_Base_color_png",
			"uri":"DefaultMaterial_Base_color_png.png"
		},
		{
			"mimeType":"image/png",
			"name":"DefaultMaterial_Metallic-DefaultMaterial_Roughness.png-DefaultMaterial_Metallic-DefaultMaterial_Roughness.png",
			"uri":"DefaultMaterial_Metallic-DefaultMaterial_Roughness_png-DefaultMaterial_Metallic-DefaultMaterial_Roughness_png.png"
		}
	],
	"accessors":[
		{
			"bufferView":0,
			"componentType":5126,
			"count":2422,
			"max":[
				0.8805449604988098,
				0.4639888405799866,
				0.9320573210716248
			],
			"min":[
				-0.8860030770301819,
				-0.3009558320045471,
				-1.2226781845092773
			],
			"type":"VEC3"
		},
		{
			"bufferView":1,
			"componentType":5126,
			"count":2422,
			"type":"VEC3"
		},
		{
			"bufferView":2,
			"componentType":5126,
			"count":2422,
			"type":"VEC2"
		},
		{
			"bufferView":3,
			"componentType":5123,
			"count":3984,
			"type":"SCALAR"
		}
	],
	"bufferViews":[
		{
			"buffer":0,
			"byteLength":29064,
			"byteOffset":0,
			"target":34962
		},
		{
			"buffer":0,
			"byteLength":29064,
			"byteOffset":29064,
			"target":34962
		},
		{
			"buffer":0,
			"byteLength":19376,
			"byteOffset":58128,
			"target":34962
		},
		{
			"buffer":0,
			"byteLength":7968,
			"byteOffset":77504,
			"target":34963
		}
	],
	"samplers":[
		{
			"magFilter":9729,
			"minFilter":9987
		}
	],
	"buffers":[
		{
			"byteLength":85472,
			"uri":"TVHappy.bin"
		}
	]
}
