{
	"asset":{
		"generator":"Khronos glTF Blender I/O v4.4.56",
		"version":"2.0"
	},
	"scene":0,
	"scenes":[
		{
			"name":"Scene",
			"nodes":[
				0
			]
		}
	],
	"nodes":[
		{
			"mesh":0,
			"name":"Cylinder.001",
			"rotation":[
				0,
				0.2480703443288803,
				0,
				0.9687421321868896
			],
			"scale":[
				2.000000238418579,
				2,
				2.000000238418579
			],
			"translation":[
				1.5210405588150024,
				0,
				2.3423376083374023
			]
		}
	],
	"materials":[
		{
			"doubleSided":true,
			"name":"tank",
			"normalTexture":{
				"index":0
			},
			"pbrMetallicRoughness":{
				"baseColorTexture":{
					"index":1
				},
				"metallicFactor":0,
				"roughnessFactor":0.5
			}
		}
	],
	"meshes":[
		{
			"name":"Cylinder.003",
			"primitives":[
				{
					"attributes":{
						"POSITION":0,
						"NORMAL":1,
						"TEXCOORD_0":2
					},
					"indices":3,
					"material":0
				}
			]
		}
	],
	"textures":[
		{
			"sampler":0,
			"source":0
		},
		{
			"sampler":0,
			"source":1
		}
	],
	"images":[
		{
			"mimeType":"image/png",
			"name":"DefaultMaterial_Normal",
			"uri":"DefaultMaterial_Normal.png"
		},
		{
			"mimeType":"image/png",
			"name":"DefaultMaterial_BaseColor",
			"uri":"DefaultMaterial_BaseColor.png"
		}
	],
	"accessors":[
		{
			"bufferView":0,
			"componentType":5126,
			"count":1042,
			"max":[
				0.5729194283485413,
				3.638730764389038,
				0.5729194283485413
			],
			"min":[
				-0.5729193687438965,
				0,
				-0.5729192495346069
			],
			"type":"VEC3"
		},
		{
			"bufferView":1,
			"componentType":5126,
			"count":1042,
			"type":"VEC3"
		},
		{
			"bufferView":2,
			"componentType":5126,
			"count":1042,
			"type":"VEC2"
		},
		{
			"bufferView":3,
			"componentType":5123,
			"count":3054,
			"type":"SCALAR"
		}
	],
	"bufferViews":[
		{
			"buffer":0,
			"byteLength":12504,
			"byteOffset":0,
			"target":34962
		},
		{
			"buffer":0,
			"byteLength":12504,
			"byteOffset":12504,
			"target":34962
		},
		{
			"buffer":0,
			"byteLength":8336,
			"byteOffset":25008,
			"target":34962
		},
		{
			"buffer":0,
			"byteLength":6108,
			"byteOffset":33344,
			"target":34963
		}
	],
	"samplers":[
		{
			"magFilter":9729,
			"minFilter":9987
		}
	],
	"buffers":[
		{
			"byteLength":39452,
			"uri":"tank.bin"
		}
	]
}
