{
	"asset":{
		"generator":"Khronos glTF Blender I/O v4.2.69",
		"version":"2.0"
	},
	"scene":0,
	"scenes":[
		{
			"name":"Scene",
			"nodes":[
				0
			]
		}
	],
	"nodes":[
		{
			"mesh":0,
			"name":"Doors"
		}
	],
	"materials":[
		{
			"doubleSided":true,
			"name":"textura",
			"pbrMetallicRoughness":{
				"baseColorTexture":{
					"index":0
				},
				"metallicFactor":0,
				"roughnessFactor":0.5
			}
		}
	],
	"meshes":[
		{
			"name":"Cube.010",
			"primitives":[
				{
					"attributes":{
						"POSITION":0,
						"NORMAL":1,
						"TEXCOORD_0":2
					},
					"indices":3,
					"material":0
				}
			]
		}
	],
	"textures":[
		{
			"sampler":0,
			"source":0
		}
	],
	"images":[
		{
			"mimeType":"image/png",
			"name":"Doors_diffuse",
			"uri":"Doors_diffuse.png"
		}
	],
	"accessors":[
		{
			"bufferView":0,
			"componentType":5126,
			"count":753,
			"max":[
				1.413820743560791,
				2.594475746154785,
				0.3375396728515625
			],
			"min":[
				-1.4138202667236328,
				0,
				-0.3375387191772461
			],
			"type":"VEC3"
		},
		{
			"bufferView":1,
			"componentType":5126,
			"count":753,
			"type":"VEC3"
		},
		{
			"bufferView":2,
			"componentType":5126,
			"count":753,
			"type":"VEC2"
		},
		{
			"bufferView":3,
			"componentType":5123,
			"count":1998,
			"type":"SCALAR"
		}
	],
	"bufferViews":[
		{
			"buffer":0,
			"byteLength":9036,
			"byteOffset":0,
			"target":34962
		},
		{
			"buffer":0,
			"byteLength":9036,
			"byteOffset":9036,
			"target":34962
		},
		{
			"buffer":0,
			"byteLength":6024,
			"byteOffset":18072,
			"target":34962
		},
		{
			"buffer":0,
			"byteLength":3996,
			"byteOffset":24096,
			"target":34963
		}
	],
	"samplers":[
		{
			"magFilter":9729,
			"minFilter":9987
		}
	],
	"buffers":[
		{
			"byteLength":28092,
			"uri":"Doors.bin"
		}
	]
}
