{
    "asset": {
        "version": "2.0",
        "generator": "Open Asset Import Library (assimp v3.1.118612264)"
    },
    "accessors": [
        {
            "bufferView": 0,
            "byteOffset": 0,
            "componentType": 5126,
            "count": 695,
            "type": "VEC3",
            "max": [
                0.5,
                0.5,
                0.5375574827194214
            ],
            "min": [
                -0.5,
                -0.5,
                0.0
            ]
        },
        {
            "bufferView": 1,
            "byteOffset": 0,
            "componentType": 5126,
            "count": 695,
            "type": "VEC3",
            "max": [
                0.980926513671875,
                0.9808917045593262,
                0.9999998211860657
            ],
            "min": [
                -0.9808202385902405,
                -0.9808917045593262,
                -1.0
            ]
        },
        {
            "bufferView": 2,
            "byteOffset": 0,
            "componentType": 5126,
            "count": 695,
            "type": "VEC4",
            "max": [
                1.0,
                1.0,
                1.0,
                1.0
            ],
            "min": [
                -0.9998224973678589,
                -0.9998226165771484,
                -0.9998224377632141,
                -0.9998224973678589
            ]
        },
        {
            "bufferView": 3,
            "byteOffset": 0,
            "componentType": 5126,
            "count": 695,
            "type": "VEC2",
            "max": [
                0.9943515658378601,
                0.9943515658378601
            ],
            "min": [
                0.005648449528962374,
                0.21637171506881715
            ]
        },
        {
            "bufferView": 4,
            "byteOffset": 0,
            "componentType": 5123,
            "count": 2298,
            "type": "SCALAR",
            "max": [
                694.0
            ],
            "min": [
                0.0
            ]
        }
    ],
    "buffers": [
        {
            "byteLength": 37956,
            "uri": "Laser_gen.bin"
        }
    ],
    "bufferViews": [
        {
            "buffer": 0,
            "byteOffset": 0,
            "byteLength": 8340,
            "target": 34962
        },
        {
            "buffer": 0,
            "byteOffset": 8340,
            "byteLength": 8340,
            "target": 34962
        },
        {
            "buffer": 0,
            "byteOffset": 16680,
            "byteLength": 11120,
            "target": 34962
        },
        {
            "buffer": 0,
            "byteOffset": 27800,
            "byteLength": 5560,
            "target": 34962
        },
        {
            "buffer": 0,
            "byteOffset": 33360,
            "byteLength": 4596,
            "target": 34963
        }
    ],
    "materials": [
        {
            "name": "Material.001",
            "pbrMetallicRoughness": {
                "baseColorFactor": [
                    0.800000011920929,
                    0.800000011920929,
                    0.800000011920929,
                    1.0
                ],
                "metallicFactor": 0.0
            }
        }
    ],
    "meshes": [
        {
            "name": "Laser_gen",
            "primitives": [
                {
                    "mode": 4,
                    "material": 0,
                    "indices": 4,
                    "attributes": {
                        "POSITION": 0,
                        "NORMAL": 1,
                        "TANGENT": 2,
                        "TEXCOORD_0": 3
                    }
                }
            ]
        }
    ],
    "nodes": [
        {
            "name": "RootNode",
            "matrix": [
                0.009999999776482582,
                0.0,
                0.0,
                0.0,
                0.0,
                0.009999999776482582,
                0.0,
                0.0,
                0.0,
                0.0,
                0.009999999776482582,
                0.0,
                0.0,
                0.0,
                0.0,
                1.0
            ],
            "children": [
                1
            ]
        },
        {
            "name": "Laser_gen",
            "matrix": [
                100.0,
                0.0,
                0.0,
                0.0,
                0.0,
                -0.000016292067812173629,
                -100.0,
                0.0,
                0.0,
                100.0,
                -0.000016292067812173629,
                0.0,
                0.0,
                0.0,
                0.0,
                1.0
            ],
            "mesh": 0
        }
    ],
    "scenes": [
        {
            "nodes": [
                0
            ]
        }
    ],
    "scene": 0
}