{
	"asset":{
		"generator":"Khronos glTF Blender I/O v4.2.69",
		"version":"2.0"
	},
	"extensionsUsed":[
		"KHR_materials_specular"
	],
	"scene":0,
	"scenes":[
		{
			"name":"Scene",
			"nodes":[
				0
			]
		}
	],
	"nodes":[
		{
			"mesh":0,
			"name":"Laser_gen"
		}
	],
	"materials":[
		{
			"doubleSided":true,
			"extensions":{
				"KHR_materials_specular":{
					"specularColorTexture":{
						"index":0
					}
				}
			},
			"name":"Material.001",
			"normalTexture":{
				"index":1
			},
			"pbrMetallicRoughness":{
				"baseColorTexture":{
					"index":2
				},
				"metallicFactor":0,
				"metallicRoughnessTexture":{
					"index":3
				}
			}
		}
	],
	"meshes":[
		{
			"name":"Cube.001",
			"primitives":[
				{
					"attributes":{
						"POSITION":0,
						"NORMAL":1,
						"TEXCOORD_0":2
					},
					"indices":3,
					"material":0
				}
			]
		}
	],
	"textures":[
		{
			"sampler":0,
			"source":0
		},
		{
			"sampler":0,
			"source":1
		},
		{
			"sampler":0,
			"source":2
		},
		{
			"sampler":0,
			"source":3
		}
	],
	"images":[
		{
			"mimeType":"image/png",
			"name":"Laser_gen_Specular.png",
			"uri":"Laser_gen_Specular.png"
		},
		{
			"mimeType":"image/png",
			"name":"Laser_gen_Normal.png",
			"uri":"Laser_gen_Normal.png"
		},
		{
			"mimeType":"image/png",
			"name":"Laser_gen_Diffuse.png",
			"uri":"Laser_gen_Diffuse.png"
		},
		{
			"mimeType":"image/png",
			"name":"Laser_gen_Glossiness.png",
			"uri":"Laser_gen_Glossiness.png"
		}
	],
	"accessors":[
		{
			"bufferView":0,
			"componentType":5126,
			"count":665,
			"max":[
				0.5,
				0.5375574827194214,
				0.5
			],
			"min":[
				-0.5,
				0,
				-0.5
			],
			"type":"VEC3"
		},
		{
			"bufferView":1,
			"componentType":5126,
			"count":665,
			"type":"VEC3"
		},
		{
			"bufferView":2,
			"componentType":5126,
			"count":665,
			"type":"VEC2"
		},
		{
			"bufferView":3,
			"componentType":5123,
			"count":2298,
			"type":"SCALAR"
		}
	],
	"bufferViews":[
		{
			"buffer":0,
			"byteLength":7980,
			"byteOffset":0,
			"target":34962
		},
		{
			"buffer":0,
			"byteLength":7980,
			"byteOffset":7980,
			"target":34962
		},
		{
			"buffer":0,
			"byteLength":5320,
			"byteOffset":15960,
			"target":34962
		},
		{
			"buffer":0,
			"byteLength":4596,
			"byteOffset":21280,
			"target":34963
		}
	],
	"samplers":[
		{
			"magFilter":9729,
			"minFilter":9987
		}
	],
	"buffers":[
		{
			"byteLength":25876,
			"uri":"Laser_gen.bin"
		}
	]
}
