{
	"asset":{
		"generator":"Khronos glTF Blender I/O v4.2.69",
		"version":"2.0"
	},
	"extensionsUsed":[
		"KHR_materials_specular"
	],
	"scene":0,
	"scenes":[
		{
			"name":"Scene",
			"nodes":[
				0
			]
		}
	],
	"nodes":[
		{
			"mesh":0,
			"name":"Cube"
		}
	],
	"materials":[
		{
			"doubleSided":true,
			"extensions":{
				"KHR_materials_specular":{
					"specularColorTexture":{
						"index":0
					}
				}
			},
			"name":"Material.002",
			"normalTexture":{
				"index":1
			},
			"pbrMetallicRoughness":{
				"baseColorTexture":{
					"index":2
				},
				"metallicFactor":0,
				"metallicRoughnessTexture":{
					"index":3
				}
			}
		}
	],
	"meshes":[
		{
			"name":"Cube.003",
			"primitives":[
				{
					"attributes":{
						"POSITION":0,
						"NORMAL":1,
						"TEXCOORD_0":2
					},
					"indices":3,
					"material":0
				}
			]
		}
	],
	"textures":[
		{
			"sampler":0,
			"source":0
		},
		{
			"sampler":0,
			"source":1
		},
		{
			"sampler":0,
			"source":2
		},
		{
			"sampler":0,
			"source":3
		}
	],
	"images":[
		{
			"mimeType":"image/png",
			"name":"Laser_end_Specular.png",
			"uri":"Laser_end_Specular.png"
		},
		{
			"mimeType":"image/png",
			"name":"Laser_end_Normal.png",
			"uri":"Laser_end_Normal.png"
		},
		{
			"mimeType":"image/png",
			"name":"Laser_end_Diffuse.png",
			"uri":"Laser_end_Diffuse.png"
		},
		{
			"mimeType":"image/png",
			"name":"Laser_end_Glossiness.png.001",
			"uri":"Laser_end_Glossiness.png"
		}
	],
	"accessors":[
		{
			"bufferView":0,
			"componentType":5126,
			"count":610,
			"max":[
				0.544113039970398,
				0.23032386600971222,
				0.544113039970398
			],
			"min":[
				-0.544113039970398,
				0,
				-0.544113039970398
			],
			"type":"VEC3"
		},
		{
			"bufferView":1,
			"componentType":5126,
			"count":610,
			"type":"VEC3"
		},
		{
			"bufferView":2,
			"componentType":5126,
			"count":610,
			"type":"VEC2"
		},
		{
			"bufferView":3,
			"componentType":5123,
			"count":2352,
			"type":"SCALAR"
		}
	],
	"bufferViews":[
		{
			"buffer":0,
			"byteLength":7320,
			"byteOffset":0,
			"target":34962
		},
		{
			"buffer":0,
			"byteLength":7320,
			"byteOffset":7320,
			"target":34962
		},
		{
			"buffer":0,
			"byteLength":4880,
			"byteOffset":14640,
			"target":34962
		},
		{
			"buffer":0,
			"byteLength":4704,
			"byteOffset":19520,
			"target":34963
		}
	],
	"samplers":[
		{
			"magFilter":9729,
			"minFilter":9987
		}
	],
	"buffers":[
		{
			"byteLength":24224,
			"uri":"Laser_end.bin"
		}
	]
}
