{
	"asset":{
		"generator":"Khronos glTF Blender I/O v4.2.70",
		"version":"2.0"
	},
	"scene":0,
	"scenes":[
		{
			"name":"Scene",
			"nodes":[
				0
			]
		}
	],
	"nodes":[
		{
			"mesh":0,
			"name":"Belki",
			"translation":[
				0.009785188362002373,
				-0.9710622429847717,
				1.0601767301559448
			]
		}
	],
	"materials":[
		{
			"doubleSided":true,
			"name":"Material.001",
			"normalTexture":{
				"index":0
			},
			"pbrMetallicRoughness":{
				"baseColorTexture":{
					"index":1
				},
				"metallicRoughnessTexture":{
					"index":2
				}
			}
		}
	],
	"meshes":[
		{
			"name":"Cube.019",
			"primitives":[
				{
					"attributes":{
						"POSITION":0,
						"NORMAL":1,
						"TEXCOORD_0":2
					},
					"indices":3,
					"material":0
				}
			]
		}
	],
	"textures":[
		{
			"sampler":0,
			"source":0
		},
		{
			"sampler":0,
			"source":1
		},
		{
			"sampler":0,
			"source":2
		}
	],
	"images":[
		{
			"mimeType":"image/png",
			"name":"DefaultMaterial_Normal_OpenGL",
			"uri":"DefaultMaterial_Normal_OpenGL.png"
		},
		{
			"mimeType":"image/png",
			"name":"DefaultMaterial_Base_color.png",
			"uri":"DefaultMaterial_Base_color.png"
		},
		{
			"mimeType":"image/png",
			"name":"DefaultMaterial_Metallic.png-DefaultMaterial_Roughness.png",
			"uri":"DefaultMaterial_Metallic_png-DefaultMaterial_Roughness.png"
		}
	],
	"accessors":[
		{
			"bufferView":0,
			"componentType":5126,
			"count":2094,
			"max":[
				0.9942880868911743,
				1.973055362701416,
				0.1619882434606552
			],
			"min":[
				-1.0057119131088257,
				-0.02694450505077839,
				-0.24490806460380554
			],
			"type":"VEC3"
		},
		{
			"bufferView":1,
			"componentType":5126,
			"count":2094,
			"type":"VEC3"
		},
		{
			"bufferView":2,
			"componentType":5126,
			"count":2094,
			"type":"VEC2"
		},
		{
			"bufferView":3,
			"componentType":5123,
			"count":4848,
			"type":"SCALAR"
		}
	],
	"bufferViews":[
		{
			"buffer":0,
			"byteLength":25128,
			"byteOffset":0,
			"target":34962
		},
		{
			"buffer":0,
			"byteLength":25128,
			"byteOffset":25128,
			"target":34962
		},
		{
			"buffer":0,
			"byteLength":16752,
			"byteOffset":50256,
			"target":34962
		},
		{
			"buffer":0,
			"byteLength":9696,
			"byteOffset":67008,
			"target":34963
		}
	],
	"samplers":[
		{
			"magFilter":9729,
			"minFilter":9987
		}
	],
	"buffers":[
		{
			"byteLength":76704,
			"uri":"FanCopper.bin"
		}
	]
}
