{
	"asset":{
		"generator":"Khronos glTF Blender I/O v4.2.70",
		"version":"2.0"
	},
	"scene":0,
	"scenes":[
		{
			"name":"Scene",
			"nodes":[
				0,
				1
			]
		}
	],
	"nodes":[
		{
			"mesh":0,
			"name":"Wiatrak",
			"translation":[
				0.0040732622146606445,
				0.00199321610853076,
				0.9891215562820435
			]
		},
		{
			"mesh":1,
			"name":"Ostrza",
			"rotation":[
				0,
				0,
				-1,
				7.549790126404332e-08
			],
			"translation":[
				0.002502826042473316,
				0.007993376813828945,
				0.9990081191062927
			]
		}
	],
	"materials":[
		{
			"doubleSided":true,
			"name":"Material.001",
			"normalTexture":{
				"index":0
			},
			"pbrMetallicRoughness":{
				"baseColorTexture":{
					"index":1
				},
				"metallicRoughnessTexture":{
					"index":2
				}
			}
		}
	],
	"meshes":[
		{
			"name":"Cube.003",
			"primitives":[
				{
					"attributes":{
						"POSITION":0,
						"NORMAL":1,
						"TEXCOORD_0":2
					},
					"indices":3,
					"material":0
				}
			]
		},
		{
			"name":"Cube.008",
			"primitives":[
				{
					"attributes":{
						"POSITION":4,
						"NORMAL":5,
						"TEXCOORD_0":6
					},
					"indices":7,
					"material":0
				}
			]
		}
	],
	"textures":[
		{
			"sampler":0,
			"source":0
		},
		{
			"sampler":0,
			"source":1
		},
		{
			"sampler":0,
			"source":2
		}
	],
	"images":[
		{
			"mimeType":"image/png",
			"name":"DefaultMaterial_Normal_OpenGL",
			"uri":"FanHigher/DefaultMaterial_Normal_OpenGL.png"
		},
		{
			"mimeType":"image/png",
			"name":"DefaultMaterial_Base_color",
			"uri":"FanHigher/DefaultMaterial_Base_color.png"
		},
		{
			"mimeType":"image/png",
			"name":"DefaultMaterial_Metallic-DefaultMaterial_Roughness",
			"uri":"FanHigher/DefaultMaterial_Metallic-DefaultMaterial_Roughness.png"
		}
	],
	"accessors":[
		{
			"bufferView":0,
			"componentType":5126,
			"count":1998,
			"max":[
				1,
				1,
				0.29155272245407104
			],
			"min":[
				-1,
				-1,
				-0.21750140190124512
			],
			"type":"VEC3"
		},
		{
			"bufferView":1,
			"componentType":5126,
			"count":1998,
			"type":"VEC3"
		},
		{
			"bufferView":2,
			"componentType":5126,
			"count":1998,
			"type":"VEC2"
		},
		{
			"bufferView":3,
			"componentType":5123,
			"count":4704,
			"type":"SCALAR"
		},
		{
			"bufferView":4,
			"componentType":5126,
			"count":440,
			"max":[
				0.822411835193634,
				0.8574839234352112,
				0.08160429447889328
			],
			"min":[
				-0.8183844089508057,
				-0.7493976354598999,
				-0.10578280687332153
			],
			"type":"VEC3"
		},
		{
			"bufferView":5,
			"componentType":5126,
			"count":440,
			"type":"VEC3"
		},
		{
			"bufferView":6,
			"componentType":5126,
			"count":440,
			"type":"VEC2"
		},
		{
			"bufferView":7,
			"componentType":5123,
			"count":660,
			"type":"SCALAR"
		}
	],
	"bufferViews":[
		{
			"buffer":0,
			"byteLength":23976,
			"byteOffset":0,
			"target":34962
		},
		{
			"buffer":0,
			"byteLength":23976,
			"byteOffset":23976,
			"target":34962
		},
		{
			"buffer":0,
			"byteLength":15984,
			"byteOffset":47952,
			"target":34962
		},
		{
			"buffer":0,
			"byteLength":9408,
			"byteOffset":63936,
			"target":34963
		},
		{
			"buffer":0,
			"byteLength":5280,
			"byteOffset":73344,
			"target":34962
		},
		{
			"buffer":0,
			"byteLength":5280,
			"byteOffset":78624,
			"target":34962
		},
		{
			"buffer":0,
			"byteLength":3520,
			"byteOffset":83904,
			"target":34962
		},
		{
			"buffer":0,
			"byteLength":1320,
			"byteOffset":87424,
			"target":34963
		}
	],
	"samplers":[
		{
			"magFilter":9729,
			"minFilter":9987
		}
	],
	"buffers":[
		{
			"byteLength":88744,
			"uri":"FanHigher.bin"
		}
	]
}
