{
	"asset":{
		"generator":"Khronos glTF Blender I/O v4.2.70",
		"version":"2.0"
	},
	"scene":0,
	"scenes":[
		{
			"name":"Scene",
			"nodes":[
				0,
				1
			]
		}
	],
	"nodes":[
		{
			"mesh":0,
			"name":"Ostrza.001",
			"translation":[
				0.0025028688833117485,
				2.823671579360962,
				0.45099180936813354
			]
		},
		{
			"mesh":1,
			"name":"Cylinder.017",
			"translation":[
				-0.006659422069787979,
				2.8006999492645264,
				0.4937743544578552
			]
		}
	],
	"materials":[
		{
			"doubleSided":true,
			"name":"MiniFan1",
			"normalTexture":{
				"index":0
			},
			"pbrMetallicRoughness":{
				"baseColorTexture":{
					"index":1
				},
				"metallicRoughnessTexture":{
					"index":2
				}
			}
		}
	],
	"meshes":[
		{
			"name":"Cube.009",
			"primitives":[
				{
					"attributes":{
						"POSITION":0,
						"NORMAL":1,
						"TEXCOORD_0":2
					},
					"indices":3,
					"material":0
				}
			]
		},
		{
			"name":"Cylinder.018",
			"primitives":[
				{
					"attributes":{
						"POSITION":4,
						"NORMAL":5,
						"TEXCOORD_0":6
					},
					"indices":7,
					"material":0
				}
			]
		}
	],
	"textures":[
		{
			"sampler":0,
			"source":0
		},
		{
			"sampler":0,
			"source":1
		},
		{
			"sampler":0,
			"source":2
		}
	],
	"images":[
		{
			"mimeType":"image/png",
			"name":"DefaultMaterial_Normal",
			"uri":"DefaultMaterial_Normal.png"
		},
		{
			"mimeType":"image/png",
			"name":"DefaultMaterial_Base_color",
			"uri":"DefaultMaterial_Base_color.png"
		},
		{
			"mimeType":"image/png",
			"name":"DefaultMaterial_Metallic.png-DefaultMaterial_Roughness.png",
			"uri":"DefaultMaterial_Metallic_png-DefaultMaterial_Roughness_png.png"
		}
	],
	"accessors":[
		{
			"bufferView":0,
			"componentType":5126,
			"count":440,
			"max":[
				0.8183844089508057,
				0.7493972182273865,
				0.08438269793987274
			],
			"min":[
				-0.822411835193634,
				-0.8574829697608948,
				-0.10300440341234207
			],
			"type":"VEC3"
		},
		{
			"bufferView":1,
			"componentType":5126,
			"count":440,
			"type":"VEC3"
		},
		{
			"bufferView":2,
			"componentType":5126,
			"count":440,
			"type":"VEC2"
		},
		{
			"bufferView":3,
			"componentType":5123,
			"count":660,
			"type":"SCALAR"
		},
		{
			"bufferView":4,
			"componentType":5126,
			"count":480,
			"max":[
				1.1321167945861816,
				1.1205710172653198,
				0.1535027027130127
			],
			"min":[
				-1.118798017501831,
				-1.1303437948226929,
				-0.3514336943626404
			],
			"type":"VEC3"
		},
		{
			"bufferView":5,
			"componentType":5126,
			"count":480,
			"type":"VEC3"
		},
		{
			"bufferView":6,
			"componentType":5126,
			"count":480,
			"type":"VEC2"
		},
		{
			"bufferView":7,
			"componentType":5123,
			"count":840,
			"type":"SCALAR"
		}
	],
	"bufferViews":[
		{
			"buffer":0,
			"byteLength":5280,
			"byteOffset":0,
			"target":34962
		},
		{
			"buffer":0,
			"byteLength":5280,
			"byteOffset":5280,
			"target":34962
		},
		{
			"buffer":0,
			"byteLength":3520,
			"byteOffset":10560,
			"target":34962
		},
		{
			"buffer":0,
			"byteLength":1320,
			"byteOffset":14080,
			"target":34963
		},
		{
			"buffer":0,
			"byteLength":5760,
			"byteOffset":15400,
			"target":34962
		},
		{
			"buffer":0,
			"byteLength":5760,
			"byteOffset":21160,
			"target":34962
		},
		{
			"buffer":0,
			"byteLength":3840,
			"byteOffset":26920,
			"target":34962
		},
		{
			"buffer":0,
			"byteLength":1680,
			"byteOffset":30760,
			"target":34963
		}
	],
	"samplers":[
		{
			"magFilter":9729,
			"minFilter":9987
		}
	],
	"buffers":[
		{
			"byteLength":32440,
			"uri":"FanMini1.bin"
		}
	]
}
