{
	"asset":{
		"generator":"Khronos glTF Blender I/O v4.4.56",
		"version":"2.0"
	},
	"scene":0,
	"scenes":[
		{
			"name":"Scene",
			"nodes":[
				0,
				1,
				2
			]
		}
	],
	"nodes":[
		{
			"mesh":0,
			"name":"DOWN",
			"scale":[
				1,
				1,
				0.3999999761581421
			]
		},
		{
			"mesh":1,
			"name":"TOP",
			"scale":[
				1,
				1,
				0.3999999761581421
			],
			"translation":[
				0,
				0,
				8
			]
		},
		{
			"name":"Empty",
			"translation":[
				0,
				0,
				5.751572608947754
			]
		}
	],
	"animations":[
		{
			"channels":[
				{
					"sampler":0,
					"target":{
						"node":0,
						"path":"translation"
					}
				},
				{
					"sampler":1,
					"target":{
						"node":0,
						"path":"rotation"
					}
				},
				{
					"sampler":2,
					"target":{
						"node":0,
						"path":"scale"
					}
				}
			],
			"name":"DOWNAction",
			"samplers":[
				{
					"input":20,
					"interpolation":"STEP",
					"output":21
				},
				{
					"input":20,
					"interpolation":"STEP",
					"output":22
				},
				{
					"input":20,
					"interpolation":"STEP",
					"output":23
				}
			]
		},
		{
			"channels":[
				{
					"sampler":0,
					"target":{
						"node":1,
						"path":"translation"
					}
				},
				{
					"sampler":1,
					"target":{
						"node":1,
						"path":"rotation"
					}
				},
				{
					"sampler":2,
					"target":{
						"node":1,
						"path":"scale"
					}
				}
			],
			"name":"TOPAction",
			"samplers":[
				{
					"input":20,
					"interpolation":"STEP",
					"output":24
				},
				{
					"input":20,
					"interpolation":"STEP",
					"output":25
				},
				{
					"input":20,
					"interpolation":"STEP",
					"output":26
				}
			]
		},
		{
			"channels":[
				{
					"sampler":0,
					"target":{
						"node":2,
						"path":"translation"
					}
				},
				{
					"sampler":1,
					"target":{
						"node":2,
						"path":"rotation"
					}
				},
				{
					"sampler":2,
					"target":{
						"node":2,
						"path":"scale"
					}
				}
			],
			"name":"EmptyAction",
			"samplers":[
				{
					"input":27,
					"interpolation":"LINEAR",
					"output":28
				},
				{
					"input":20,
					"interpolation":"STEP",
					"output":29
				},
				{
					"input":20,
					"interpolation":"STEP",
					"output":30
				}
			]
		}
	],
	"materials":[
		{
			"doubleSided":true,
			"name":"Material.001",
			"pbrMetallicRoughness":{
				"baseColorFactor":[
					0.03472806140780449,
					0.040197744965553284,
					0.03481229022145271,
					1
				],
				"metallicFactor":0.866141676902771,
				"roughnessFactor":0.6811023950576782
			}
		},
		{
			"doubleSided":true,
			"name":"Material.002",
			"pbrMetallicRoughness":{
				"baseColorFactor":[
					0.02644301950931549,
					0.02644301950931549,
					0.02644301950931549,
					1
				],
				"metallicFactor":0.8897637724876404,
				"roughnessFactor":0.5
			}
		},
		{
			"doubleSided":true,
			"name":"Material.003",
			"pbrMetallicRoughness":{
				"baseColorFactor":[
					0.18590548634529114,
					0.11829110980033875,
					0.017655206844210625,
					1
				],
				"metallicFactor":0,
				"roughnessFactor":0.5
			}
		}
	],
	"meshes":[
		{
			"name":"Cube.001",
			"primitives":[
				{
					"attributes":{
						"POSITION":0,
						"NORMAL":1,
						"TEXCOORD_0":2
					},
					"indices":3,
					"material":0
				},
				{
					"attributes":{
						"POSITION":4,
						"NORMAL":5,
						"TEXCOORD_0":6
					},
					"indices":7,
					"material":1
				}
			]
		},
		{
			"name":"Cube.002",
			"primitives":[
				{
					"attributes":{
						"POSITION":8,
						"NORMAL":9,
						"TEXCOORD_0":10
					},
					"indices":11,
					"material":0
				},
				{
					"attributes":{
						"POSITION":12,
						"NORMAL":13,
						"TEXCOORD_0":14
					},
					"indices":15,
					"material":1
				},
				{
					"attributes":{
						"POSITION":16,
						"NORMAL":17,
						"TEXCOORD_0":18
					},
					"indices":19,
					"material":2
				}
			]
		}
	],
	"accessors":[
		{
			"bufferView":0,
			"componentType":5126,
			"count":221,
			"max":[
				4,
				1,
				0.5815154910087585
			],
			"min":[
				-4,
				-1,
				1.1920928955078125e-07
			],
			"type":"VEC3"
		},
		{
			"bufferView":1,
			"componentType":5126,
			"count":221,
			"type":"VEC3"
		},
		{
			"bufferView":2,
			"componentType":5126,
			"count":221,
			"type":"VEC2"
		},
		{
			"bufferView":3,
			"componentType":5123,
			"count":876,
			"type":"SCALAR"
		},
		{
			"bufferView":4,
			"componentType":5126,
			"count":84,
			"max":[
				3.1552603244781494,
				0.377482533454895,
				0.49999985098838806
			],
			"min":[
				-3.1552603244781494,
				-0.377482533454895,
				0.2516630291938782
			],
			"type":"VEC3"
		},
		{
			"bufferView":5,
			"componentType":5126,
			"count":84,
			"type":"VEC3"
		},
		{
			"bufferView":6,
			"componentType":5126,
			"count":84,
			"type":"VEC2"
		},
		{
			"bufferView":7,
			"componentType":5123,
			"count":312,
			"type":"SCALAR"
		},
		{
			"bufferView":8,
			"componentType":5126,
			"count":636,
			"max":[
				4.103079319000244,
				1,
				0
			],
			"min":[
				-4.103079319000244,
				-1,
				-6.131128311157227
			],
			"type":"VEC3"
		},
		{
			"bufferView":9,
			"componentType":5126,
			"count":636,
			"type":"VEC3"
		},
		{
			"bufferView":10,
			"componentType":5126,
			"count":636,
			"type":"VEC2"
		},
		{
			"bufferView":11,
			"componentType":5123,
			"count":2364,
			"type":"SCALAR"
		},
		{
			"bufferView":12,
			"componentType":5126,
			"count":176,
			"max":[
				3.0379910469055176,
				0.22805725038051605,
				-6.131128311157227
			],
			"min":[
				-3.0379910469055176,
				-0.22805725038051605,
				-8.441080093383789
			],
			"type":"VEC3"
		},
		{
			"bufferView":13,
			"componentType":5126,
			"count":176,
			"type":"VEC3"
		},
		{
			"bufferView":14,
			"componentType":5126,
			"count":176,
			"type":"VEC2"
		},
		{
			"bufferView":15,
			"componentType":5123,
			"count":312,
			"type":"SCALAR"
		},
		{
			"bufferView":16,
			"componentType":5126,
			"count":160,
			"max":[
				4.103079319000244,
				0.9125480651855469,
				-4.426218032836914
			],
			"min":[
				-4.103079319000244,
				-0.9125480651855469,
				-7.194480895996094
			],
			"type":"VEC3"
		},
		{
			"bufferView":17,
			"componentType":5126,
			"count":160,
			"type":"VEC3"
		},
		{
			"bufferView":18,
			"componentType":5126,
			"count":160,
			"type":"VEC2"
		},
		{
			"bufferView":19,
			"componentType":5123,
			"count":240,
			"type":"SCALAR"
		},
		{
			"bufferView":20,
			"componentType":5126,
			"count":2,
			"max":[
				1.5
			],
			"min":[
				0
			],
			"type":"SCALAR"
		},
		{
			"bufferView":21,
			"componentType":5126,
			"count":2,
			"type":"VEC3"
		},
		{
			"bufferView":22,
			"componentType":5126,
			"count":2,
			"type":"VEC4"
		},
		{
			"bufferView":23,
			"componentType":5126,
			"count":2,
			"type":"VEC3"
		},
		{
			"bufferView":24,
			"componentType":5126,
			"count":2,
			"type":"VEC3"
		},
		{
			"bufferView":25,
			"componentType":5126,
			"count":2,
			"type":"VEC4"
		},
		{
			"bufferView":26,
			"componentType":5126,
			"count":2,
			"type":"VEC3"
		},
		{
			"bufferView":27,
			"componentType":5126,
			"count":37,
			"max":[
				1.5
			],
			"min":[
				0
			],
			"type":"SCALAR"
		},
		{
			"bufferView":28,
			"componentType":5126,
			"count":37,
			"type":"VEC3"
		},
		{
			"bufferView":29,
			"componentType":5126,
			"count":2,
			"type":"VEC4"
		},
		{
			"bufferView":30,
			"componentType":5126,
			"count":2,
			"type":"VEC3"
		}
	],
	"bufferViews":[
		{
			"buffer":0,
			"byteLength":2652,
			"byteOffset":0,
			"target":34962
		},
		{
			"buffer":0,
			"byteLength":2652,
			"byteOffset":2652,
			"target":34962
		},
		{
			"buffer":0,
			"byteLength":1768,
			"byteOffset":5304,
			"target":34962
		},
		{
			"buffer":0,
			"byteLength":1752,
			"byteOffset":7072,
			"target":34963
		},
		{
			"buffer":0,
			"byteLength":1008,
			"byteOffset":8824,
			"target":34962
		},
		{
			"buffer":0,
			"byteLength":1008,
			"byteOffset":9832,
			"target":34962
		},
		{
			"buffer":0,
			"byteLength":672,
			"byteOffset":10840,
			"target":34962
		},
		{
			"buffer":0,
			"byteLength":624,
			"byteOffset":11512,
			"target":34963
		},
		{
			"buffer":0,
			"byteLength":7632,
			"byteOffset":12136,
			"target":34962
		},
		{
			"buffer":0,
			"byteLength":7632,
			"byteOffset":19768,
			"target":34962
		},
		{
			"buffer":0,
			"byteLength":5088,
			"byteOffset":27400,
			"target":34962
		},
		{
			"buffer":0,
			"byteLength":4728,
			"byteOffset":32488,
			"target":34963
		},
		{
			"buffer":0,
			"byteLength":2112,
			"byteOffset":37216,
			"target":34962
		},
		{
			"buffer":0,
			"byteLength":2112,
			"byteOffset":39328,
			"target":34962
		},
		{
			"buffer":0,
			"byteLength":1408,
			"byteOffset":41440,
			"target":34962
		},
		{
			"buffer":0,
			"byteLength":624,
			"byteOffset":42848,
			"target":34963
		},
		{
			"buffer":0,
			"byteLength":1920,
			"byteOffset":43472,
			"target":34962
		},
		{
			"buffer":0,
			"byteLength":1920,
			"byteOffset":45392,
			"target":34962
		},
		{
			"buffer":0,
			"byteLength":1280,
			"byteOffset":47312,
			"target":34962
		},
		{
			"buffer":0,
			"byteLength":480,
			"byteOffset":48592,
			"target":34963
		},
		{
			"buffer":0,
			"byteLength":8,
			"byteOffset":49072
		},
		{
			"buffer":0,
			"byteLength":24,
			"byteOffset":49080
		},
		{
			"buffer":0,
			"byteLength":32,
			"byteOffset":49104
		},
		{
			"buffer":0,
			"byteLength":24,
			"byteOffset":49136
		},
		{
			"buffer":0,
			"byteLength":24,
			"byteOffset":49160
		},
		{
			"buffer":0,
			"byteLength":32,
			"byteOffset":49184
		},
		{
			"buffer":0,
			"byteLength":24,
			"byteOffset":49216
		},
		{
			"buffer":0,
			"byteLength":148,
			"byteOffset":49240
		},
		{
			"buffer":0,
			"byteLength":444,
			"byteOffset":49388
		},
		{
			"buffer":0,
			"byteLength":32,
			"byteOffset":49832
		},
		{
			"buffer":0,
			"byteLength":24,
			"byteOffset":49864
		}
	],
	"buffers":[
		{
			"byteLength":49888,
			"uri":"Gate.bin"
		}
	]
}
