{
	"asset":{
		"generator":"Khronos glTF Blender I/O v4.4.56",
		"version":"2.0"
	},
	"scene":0,
	"scenes":[
		{
			"name":"Scene",
			"nodes":[
				0
			]
		}
	],
	"nodes":[
		{
			"mesh":0,
			"name":"Cylinder.012",
			"translation":[
				-9,
				2.999999523162842,
				0
			]
		}
	],
	"materials":[
		{
			"doubleSided":true,
			"name":"pipes",
			"normalTexture":{
				"index":0
			},
			"pbrMetallicRoughness":{
				"baseColorTexture":{
					"index":1
				},
				"metallicFactor":0,
				"roughnessFactor":0.5
			}
		}
	],
	"meshes":[
		{
			"name":"Cylinder.017",
			"primitives":[
				{
					"attributes":{
						"POSITION":0,
						"NORMAL":1,
						"TEXCOORD_0":2
					},
					"indices":3,
					"material":0
				}
			]
		}
	],
	"textures":[
		{
			"sampler":0,
			"source":0
		},
		{
			"sampler":0,
			"source":1
		}
	],
	"images":[
		{
			"mimeType":"image/png",
			"name":"pipes_Normal",
			"uri":"pipes_Normal.png"
		},
		{
			"mimeType":"image/png",
			"name":"pipes_BaseColor",
			"uri":"pipes_BaseColor.png"
		}
	],
	"accessors":[
		{
			"bufferView":0,
			"componentType":5126,
			"count":278,
			"max":[
				5.999999046325684,
				4.407766342163086,
				1.250000238418579
			],
			"min":[
				-1.430511474609375e-06,
				-1.2499990463256836,
				-1.249999761581421
			],
			"type":"VEC3"
		},
		{
			"bufferView":1,
			"componentType":5126,
			"count":278,
			"type":"VEC3"
		},
		{
			"bufferView":2,
			"componentType":5126,
			"count":278,
			"type":"VEC2"
		},
		{
			"bufferView":3,
			"componentType":5123,
			"count":612,
			"type":"SCALAR"
		}
	],
	"bufferViews":[
		{
			"buffer":0,
			"byteLength":3336,
			"byteOffset":0,
			"target":34962
		},
		{
			"buffer":0,
			"byteLength":3336,
			"byteOffset":3336,
			"target":34962
		},
		{
			"buffer":0,
			"byteLength":2224,
			"byteOffset":6672,
			"target":34962
		},
		{
			"buffer":0,
			"byteLength":1224,
			"byteOffset":8896,
			"target":34963
		}
	],
	"samplers":[
		{
			"magFilter":9729,
			"minFilter":9987
		}
	],
	"buffers":[
		{
			"byteLength":10120,
			"uri":"pipe_meter.bin"
		}
	]
}
