{
	"asset":{
		"generator":"Khronos glTF Blender I/O v4.2.69",
		"version":"2.0"
	},
	"scene":0,
	"scenes":[
		{
			"name":"Scene",
			"nodes":[
				9
			]
		}
	],
	"nodes":[
		{
			"name":"glowa",
			"rotation":[
				0,
				7.105427357601002e-15,
				0,
				1
			],
			"translation":[
				0,
				0.24307376146316528,
				0
			]
		},
		{
			"children":[
				0
			],
			"name":"szyja",
			"rotation":[
				0,
				7.105427357601002e-15,
				0,
				1
			],
			"translation":[
				0,
				0.76720130443573,
				0
			]
		},
		{
			"name":"reka_l",
			"rotation":[
				4.0389678347315804e-28,
				7.105427357601002e-15,
				2.2892743469513763e-27,
				1
			],
			"translation":[
				-5.960464477539063e-08,
				0.3400000035762787,
				2.842170943040401e-14
			]
		},
		{
			"children":[
				2
			],
			"name":"ramie_l",
			"rotation":[
				2.261885754251125e-07,
				5.760119137221409e-08,
				-0.7071067690849304,
				0.7071067690849304
			],
			"translation":[
				0,
				0.76720130443573,
				0
			]
		},
		{
			"name":"reka_r",
			"rotation":[
				0,
				3.552713678800501e-15,
				-5.3800313736073005e-28,
				1
			],
			"translation":[
				5.960464477539063e-08,
				0.3400000035762787,
				0
			]
		},
		{
			"children":[
				4
			],
			"name":"ramie_r",
			"rotation":[
				-1.5313307244468888e-07,
				-1.545429739735482e-08,
				0.7071067690849304,
				0.7071067690849304
			],
			"translation":[
				0,
				0.76720130443573,
				0
			]
		},
		{
			"children":[
				1,
				3,
				5
			],
			"name":"kreg",
			"rotation":[
				0,
				1.1920927533992653e-07,
				0,
				1
			],
			"scale":[
				1,
				0.9999999403953552,
				1
			],
			"translation":[
				0,
				1,
				0
			]
		},
		{
			"children":[
				6
			],
			"name":"root"
		},
		{
			"mesh":0,
			"name":"Ludzik",
			"skin":0
		},
		{
			"children":[
				8,
				7
			],
			"name":"Szkielet",
			"translation":[
				0,
				-0.9760926365852356,
				0
			]
		}
	],
	"animations":[
		{
			"channels":[
				{
					"sampler":0,
					"target":{
						"node":7,
						"path":"translation"
					}
				},
				{
					"sampler":1,
					"target":{
						"node":7,
						"path":"rotation"
					}
				},
				{
					"sampler":2,
					"target":{
						"node":7,
						"path":"scale"
					}
				},
				{
					"sampler":3,
					"target":{
						"node":6,
						"path":"translation"
					}
				},
				{
					"sampler":4,
					"target":{
						"node":6,
						"path":"rotation"
					}
				},
				{
					"sampler":5,
					"target":{
						"node":6,
						"path":"scale"
					}
				},
				{
					"sampler":6,
					"target":{
						"node":1,
						"path":"translation"
					}
				},
				{
					"sampler":7,
					"target":{
						"node":1,
						"path":"rotation"
					}
				},
				{
					"sampler":8,
					"target":{
						"node":1,
						"path":"scale"
					}
				},
				{
					"sampler":9,
					"target":{
						"node":0,
						"path":"translation"
					}
				},
				{
					"sampler":10,
					"target":{
						"node":0,
						"path":"rotation"
					}
				},
				{
					"sampler":11,
					"target":{
						"node":0,
						"path":"scale"
					}
				},
				{
					"sampler":12,
					"target":{
						"node":3,
						"path":"translation"
					}
				},
				{
					"sampler":13,
					"target":{
						"node":3,
						"path":"rotation"
					}
				},
				{
					"sampler":14,
					"target":{
						"node":3,
						"path":"scale"
					}
				},
				{
					"sampler":15,
					"target":{
						"node":2,
						"path":"translation"
					}
				},
				{
					"sampler":16,
					"target":{
						"node":2,
						"path":"rotation"
					}
				},
				{
					"sampler":17,
					"target":{
						"node":2,
						"path":"scale"
					}
				},
				{
					"sampler":18,
					"target":{
						"node":5,
						"path":"translation"
					}
				},
				{
					"sampler":19,
					"target":{
						"node":5,
						"path":"rotation"
					}
				},
				{
					"sampler":20,
					"target":{
						"node":5,
						"path":"scale"
					}
				},
				{
					"sampler":21,
					"target":{
						"node":4,
						"path":"translation"
					}
				},
				{
					"sampler":22,
					"target":{
						"node":4,
						"path":"rotation"
					}
				},
				{
					"sampler":23,
					"target":{
						"node":4,
						"path":"scale"
					}
				}
			],
			"name":"SzkieletAction",
			"samplers":[
				{
					"input":7,
					"interpolation":"STEP",
					"output":8
				},
				{
					"input":7,
					"interpolation":"STEP",
					"output":9
				},
				{
					"input":7,
					"interpolation":"STEP",
					"output":10
				},
				{
					"input":7,
					"interpolation":"STEP",
					"output":11
				},
				{
					"input":7,
					"interpolation":"STEP",
					"output":12
				},
				{
					"input":7,
					"interpolation":"STEP",
					"output":13
				},
				{
					"input":7,
					"interpolation":"STEP",
					"output":14
				},
				{
					"input":7,
					"interpolation":"STEP",
					"output":15
				},
				{
					"input":7,
					"interpolation":"STEP",
					"output":16
				},
				{
					"input":7,
					"interpolation":"STEP",
					"output":17
				},
				{
					"input":7,
					"interpolation":"STEP",
					"output":18
				},
				{
					"input":7,
					"interpolation":"STEP",
					"output":19
				},
				{
					"input":7,
					"interpolation":"STEP",
					"output":20
				},
				{
					"input":7,
					"interpolation":"STEP",
					"output":21
				},
				{
					"input":7,
					"interpolation":"STEP",
					"output":22
				},
				{
					"input":7,
					"interpolation":"STEP",
					"output":23
				},
				{
					"input":24,
					"interpolation":"LINEAR",
					"output":25
				},
				{
					"input":7,
					"interpolation":"LINEAR",
					"output":26
				},
				{
					"input":7,
					"interpolation":"STEP",
					"output":27
				},
				{
					"input":7,
					"interpolation":"STEP",
					"output":28
				},
				{
					"input":7,
					"interpolation":"STEP",
					"output":29
				},
				{
					"input":7,
					"interpolation":"STEP",
					"output":30
				},
				{
					"input":24,
					"interpolation":"LINEAR",
					"output":31
				},
				{
					"input":7,
					"interpolation":"LINEAR",
					"output":32
				}
			]
		}
	],
	"materials":[
		{
			"doubleSided":true,
			"name":"ludzik_diff",
			"pbrMetallicRoughness":{
				"baseColorTexture":{
					"index":0
				},
				"metallicFactor":0,
				"roughnessFactor":0.5
			}
		}
	],
	"meshes":[
		{
			"name":"Cube",
			"primitives":[
				{
					"attributes":{
						"POSITION":0,
						"NORMAL":1,
						"TEXCOORD_0":2,
						"JOINTS_0":3,
						"WEIGHTS_0":4
					},
					"indices":5,
					"material":0
				}
			]
		}
	],
	"textures":[
		{
			"sampler":0,
			"source":0
		}
	],
	"images":[
		{
			"mimeType":"image/png",
			"name":"ludzik_diff",
			"uri":"ludzik_diff.png"
		}
	],
	"skins":[
		{
			"inverseBindMatrices":6,
			"joints":[
				7,
				6,
				1,
				0,
				3,
				2,
				5,
				4
			],
			"name":"Szkielet"
		}
	],
	"accessors":[
		{
			"bufferView":0,
			"componentType":5126,
			"count":3708,
			"max":[
				1.1761597394943237,
				1.4641236066818237,
				0.2580924332141876
			],
			"min":[
				-1.1761597394943237,
				-0.8496259450912476,
				-0.25809240341186523
			],
			"type":"VEC3"
		},
		{
			"bufferView":1,
			"componentType":5126,
			"count":3708,
			"type":"VEC3"
		},
		{
			"bufferView":2,
			"componentType":5126,
			"count":3708,
			"type":"VEC2"
		},
		{
			"bufferView":3,
			"componentType":5121,
			"count":3708,
			"type":"VEC4"
		},
		{
			"bufferView":4,
			"componentType":5126,
			"count":3708,
			"type":"VEC4"
		},
		{
			"bufferView":5,
			"componentType":5123,
			"count":6144,
			"type":"SCALAR"
		},
		{
			"bufferView":6,
			"componentType":5126,
			"count":8,
			"type":"MAT4"
		},
		{
			"bufferView":7,
			"componentType":5126,
			"count":2,
			"max":[
				2.0416666666666665
			],
			"min":[
				0
			],
			"type":"SCALAR"
		},
		{
			"bufferView":8,
			"componentType":5126,
			"count":2,
			"type":"VEC3"
		},
		{
			"bufferView":9,
			"componentType":5126,
			"count":2,
			"type":"VEC4"
		},
		{
			"bufferView":10,
			"componentType":5126,
			"count":2,
			"type":"VEC3"
		},
		{
			"bufferView":11,
			"componentType":5126,
			"count":2,
			"type":"VEC3"
		},
		{
			"bufferView":12,
			"componentType":5126,
			"count":2,
			"type":"VEC4"
		},
		{
			"bufferView":13,
			"componentType":5126,
			"count":2,
			"type":"VEC3"
		},
		{
			"bufferView":14,
			"componentType":5126,
			"count":2,
			"type":"VEC3"
		},
		{
			"bufferView":15,
			"componentType":5126,
			"count":2,
			"type":"VEC4"
		},
		{
			"bufferView":16,
			"componentType":5126,
			"count":2,
			"type":"VEC3"
		},
		{
			"bufferView":17,
			"componentType":5126,
			"count":2,
			"type":"VEC3"
		},
		{
			"bufferView":18,
			"componentType":5126,
			"count":2,
			"type":"VEC4"
		},
		{
			"bufferView":19,
			"componentType":5126,
			"count":2,
			"type":"VEC3"
		},
		{
			"bufferView":20,
			"componentType":5126,
			"count":2,
			"type":"VEC3"
		},
		{
			"bufferView":21,
			"componentType":5126,
			"count":2,
			"type":"VEC4"
		},
		{
			"bufferView":22,
			"componentType":5126,
			"count":2,
			"type":"VEC3"
		},
		{
			"bufferView":23,
			"componentType":5126,
			"count":2,
			"type":"VEC3"
		},
		{
			"bufferView":24,
			"componentType":5126,
			"count":50,
			"max":[
				2.0416666666666665
			],
			"min":[
				0
			],
			"type":"SCALAR"
		},
		{
			"bufferView":25,
			"componentType":5126,
			"count":50,
			"type":"VEC4"
		},
		{
			"bufferView":26,
			"componentType":5126,
			"count":2,
			"type":"VEC3"
		},
		{
			"bufferView":27,
			"componentType":5126,
			"count":2,
			"type":"VEC3"
		},
		{
			"bufferView":28,
			"componentType":5126,
			"count":2,
			"type":"VEC4"
		},
		{
			"bufferView":29,
			"componentType":5126,
			"count":2,
			"type":"VEC3"
		},
		{
			"bufferView":30,
			"componentType":5126,
			"count":2,
			"type":"VEC3"
		},
		{
			"bufferView":31,
			"componentType":5126,
			"count":50,
			"type":"VEC4"
		},
		{
			"bufferView":32,
			"componentType":5126,
			"count":2,
			"type":"VEC3"
		}
	],
	"bufferViews":[
		{
			"buffer":0,
			"byteLength":44496,
			"byteOffset":0,
			"target":34962
		},
		{
			"buffer":0,
			"byteLength":44496,
			"byteOffset":44496,
			"target":34962
		},
		{
			"buffer":0,
			"byteLength":29664,
			"byteOffset":88992,
			"target":34962
		},
		{
			"buffer":0,
			"byteLength":14832,
			"byteOffset":118656,
			"target":34962
		},
		{
			"buffer":0,
			"byteLength":59328,
			"byteOffset":133488,
			"target":34962
		},
		{
			"buffer":0,
			"byteLength":12288,
			"byteOffset":192816,
			"target":34963
		},
		{
			"buffer":0,
			"byteLength":512,
			"byteOffset":205104
		},
		{
			"buffer":0,
			"byteLength":8,
			"byteOffset":205616
		},
		{
			"buffer":0,
			"byteLength":24,
			"byteOffset":205624
		},
		{
			"buffer":0,
			"byteLength":32,
			"byteOffset":205648
		},
		{
			"buffer":0,
			"byteLength":24,
			"byteOffset":205680
		},
		{
			"buffer":0,
			"byteLength":24,
			"byteOffset":205704
		},
		{
			"buffer":0,
			"byteLength":32,
			"byteOffset":205728
		},
		{
			"buffer":0,
			"byteLength":24,
			"byteOffset":205760
		},
		{
			"buffer":0,
			"byteLength":24,
			"byteOffset":205784
		},
		{
			"buffer":0,
			"byteLength":32,
			"byteOffset":205808
		},
		{
			"buffer":0,
			"byteLength":24,
			"byteOffset":205840
		},
		{
			"buffer":0,
			"byteLength":24,
			"byteOffset":205864
		},
		{
			"buffer":0,
			"byteLength":32,
			"byteOffset":205888
		},
		{
			"buffer":0,
			"byteLength":24,
			"byteOffset":205920
		},
		{
			"buffer":0,
			"byteLength":24,
			"byteOffset":205944
		},
		{
			"buffer":0,
			"byteLength":32,
			"byteOffset":205968
		},
		{
			"buffer":0,
			"byteLength":24,
			"byteOffset":206000
		},
		{
			"buffer":0,
			"byteLength":24,
			"byteOffset":206024
		},
		{
			"buffer":0,
			"byteLength":200,
			"byteOffset":206048
		},
		{
			"buffer":0,
			"byteLength":800,
			"byteOffset":206248
		},
		{
			"buffer":0,
			"byteLength":24,
			"byteOffset":207048
		},
		{
			"buffer":0,
			"byteLength":24,
			"byteOffset":207072
		},
		{
			"buffer":0,
			"byteLength":32,
			"byteOffset":207096
		},
		{
			"buffer":0,
			"byteLength":24,
			"byteOffset":207128
		},
		{
			"buffer":0,
			"byteLength":24,
			"byteOffset":207152
		},
		{
			"buffer":0,
			"byteLength":800,
			"byteOffset":207176
		},
		{
			"buffer":0,
			"byteLength":24,
			"byteOffset":207976
		}
	],
	"samplers":[
		{
			"magFilter":9729,
			"minFilter":9987
		}
	],
	"buffers":[
		{
			"byteLength":208000,
			"uri":"ludzik.bin"
		}
	]
}
