{
	"asset":{
		"generator":"Khronos glTF Blender I/O v4.2.70",
		"version":"2.0"
	},
	"scene":0,
	"scenes":[
		{
			"name":"Scene",
			"nodes":[
				0
			]
		}
	],
	"nodes":[
		{
			"mesh":0,
			"name":"Cube.018",
			"rotation":[
				0.7071068286895752,
				0,
				0,
				0.7071068286895752
			],
			"scale":[
				0.1663973331451416,
				0.10094241052865982,
				0.1663973331451416
			],
			"translation":[
				1.554311752319336,
				1.4867916107177734,
				-0.448927640914917
			]
		}
	],
	"materials":[
		{
			"alphaMode":"BLEND",
			"doubleSided":true,
			"emissiveTexture":{
				"index":0
			},
			"name":"Material.001",
			"normalTexture":{
				"index":1
			},
			"pbrMetallicRoughness":{
				"baseColorTexture":{
					"index":2
				},
				"metallicRoughnessTexture":{
					"index":3
				}
			}
		}
	],
	"meshes":[
		{
			"name":"Cube.034",
			"primitives":[
				{
					"attributes":{
						"POSITION":0,
						"NORMAL":1,
						"TEXCOORD_0":2
					},
					"indices":3,
					"material":0
				}
			]
		}
	],
	"textures":[
		{
			"sampler":0,
			"source":0
		},
		{
			"sampler":0,
			"source":1
		},
		{
			"sampler":0,
			"source":2
		},
		{
			"sampler":0,
			"source":3
		}
	],
	"images":[
		{
			"mimeType":"image/png",
			"name":"DefaultMaterial_Emission.png",
			"uri":"DefaultMaterial_Emission_png.png"
		},
		{
			"mimeType":"image/png",
			"name":"DefaultMaterial_Normal.png",
			"uri":"DefaultMaterial_Normal_png.png"
		},
		{
			"mimeType":"image/png",
			"name":"DefaultMaterial_BaseColor.png-DefaultMaterial_Alpha.png",
			"uri":"DefaultMaterial_BaseColor_png-DefaultMaterial_Alpha_png.png"
		},
		{
			"mimeType":"image/png",
			"name":"DefaultMaterial_Metallic.png-DefaultMaterial_Roughness.png",
			"uri":"DefaultMaterial_Metallic_png-DefaultMaterial_Roughness_png.png"
		}
	],
	"accessors":[
		{
			"bufferView":0,
			"componentType":5126,
			"count":5602,
			"max":[
				7.340466499328613,
				36.24635314941406,
				7.339839935302734
			],
			"min":[
				-9.564051628112793,
				-2.24133350457123e-06,
				-7.339839935302734
			],
			"type":"VEC3"
		},
		{
			"bufferView":1,
			"componentType":5126,
			"count":5602,
			"type":"VEC3"
		},
		{
			"bufferView":2,
			"componentType":5126,
			"count":5602,
			"type":"VEC2"
		},
		{
			"bufferView":3,
			"componentType":5123,
			"count":14700,
			"type":"SCALAR"
		}
	],
	"bufferViews":[
		{
			"buffer":0,
			"byteLength":67224,
			"byteOffset":0,
			"target":34962
		},
		{
			"buffer":0,
			"byteLength":67224,
			"byteOffset":67224,
			"target":34962
		},
		{
			"buffer":0,
			"byteLength":44816,
			"byteOffset":134448,
			"target":34962
		},
		{
			"buffer":0,
			"byteLength":29400,
			"byteOffset":179264,
			"target":34963
		}
	],
	"samplers":[
		{
			"magFilter":9729,
			"minFilter":9987
		}
	],
	"buffers":[
		{
			"byteLength":208664,
			"uri":"CheckpointV3.bin"
		}
	]
}
