{
	"asset":{
		"generator":"Khronos glTF Blender I/O v4.4.56",
		"version":"2.0"
	},
	"scene":0,
	"scenes":[
		{
			"name":"Scene",
			"nodes":[
				0
			]
		}
	],
	"nodes":[
		{
			"mesh":0,
			"name":"Cylinder.012",
			"rotation":[
				0,
				-1,
				0,
				1.6292068494294654e-07
			],
			"scale":[
				0.682074248790741,
				0.03765122964978218,
				0.682074248790741
			],
			"translation":[
				2.665638930920977e-06,
				0,
				0
			]
		}
	],
	"meshes":[
		{
			"name":"Cylinder.013",
			"primitives":[
				{
					"attributes":{
						"POSITION":0,
						"NORMAL":1,
						"TEXCOORD_0":2
					},
					"indices":3
				}
			]
		}
	],
	"accessors":[
		{
			"bufferView":0,
			"componentType":5126,
			"count":13553,
			"max":[
				0.5771864056587219,
				5.232777118682861,
				0.5883666276931763
			],
			"min":[
				-0.16369394958019257,
				-4.767222881317139,
				-0.460527628660202
			],
			"type":"VEC3"
		},
		{
			"bufferView":1,
			"componentType":5126,
			"count":13553,
			"type":"VEC3"
		},
		{
			"bufferView":2,
			"componentType":5126,
			"count":13553,
			"type":"VEC2"
		},
		{
			"bufferView":3,
			"componentType":5123,
			"count":53079,
			"type":"SCALAR"
		}
	],
	"bufferViews":[
		{
			"buffer":0,
			"byteLength":162636,
			"byteOffset":0,
			"target":34962
		},
		{
			"buffer":0,
			"byteLength":162636,
			"byteOffset":162636,
			"target":34962
		},
		{
			"buffer":0,
			"byteLength":108424,
			"byteOffset":325272,
			"target":34962
		},
		{
			"buffer":0,
			"byteLength":106158,
			"byteOffset":433696,
			"target":34963
		}
	],
	"buffers":[
		{
			"byteLength":539856,
			"uri":"Cheese3.bin"
		}
	]
}
