{
	"asset":{
		"generator":"Khronos glTF Blender I/O v4.4.56",
		"version":"2.0"
	},
	"scene":0,
	"scenes":[
		{
			"name":"Scene",
			"nodes":[
				0
			]
		}
	],
	"nodes":[
		{
			"mesh":0,
			"name":"Plane.004",
			"translation":[
				0,
				1.5957369804382324,
				1.0365135669708252
			]
		}
	],
	"materials":[
		{
			"doubleSided":true,
			"name":"camera",
			"normalTexture":{
				"index":0
			},
			"pbrMetallicRoughness":{
				"baseColorTexture":{
					"index":1
				},
				"metallicFactor":0,
				"roughnessFactor":0.5
			}
		}
	],
	"meshes":[
		{
			"name":"Plane.005",
			"primitives":[
				{
					"attributes":{
						"POSITION":0,
						"NORMAL":1,
						"TEXCOORD_0":2
					},
					"indices":3,
					"material":0
				}
			]
		}
	],
	"textures":[
		{
			"sampler":0,
			"source":0
		},
		{
			"sampler":0,
			"source":1
		}
	],
	"images":[
		{
			"mimeType":"image/png",
			"name":"camera_Normal",
			"uri":"camera_Normal.png"
		},
		{
			"mimeType":"image/png",
			"name":"camera_BaseColor",
			"uri":"camera_BaseColor.png"
		}
	],
	"accessors":[
		{
			"bufferView":0,
			"componentType":5126,
			"count":425,
			"max":[
				1.6952190399169922,
				0.9533786773681641,
				5.786543846130371
			],
			"min":[
				-1.6952195167541504,
				-4.155320644378662,
				-0.8704432845115662
			],
			"type":"VEC3"
		},
		{
			"bufferView":1,
			"componentType":5126,
			"count":425,
			"type":"VEC3"
		},
		{
			"bufferView":2,
			"componentType":5126,
			"count":425,
			"type":"VEC2"
		},
		{
			"bufferView":3,
			"componentType":5123,
			"count":1470,
			"type":"SCALAR"
		}
	],
	"bufferViews":[
		{
			"buffer":0,
			"byteLength":5100,
			"byteOffset":0,
			"target":34962
		},
		{
			"buffer":0,
			"byteLength":5100,
			"byteOffset":5100,
			"target":34962
		},
		{
			"buffer":0,
			"byteLength":3400,
			"byteOffset":10200,
			"target":34962
		},
		{
			"buffer":0,
			"byteLength":2940,
			"byteOffset":13600,
			"target":34963
		}
	],
	"samplers":[
		{
			"magFilter":9729,
			"minFilter":9987
		}
	],
	"buffers":[
		{
			"byteLength":16540,
			"uri":"camera_recorder.bin"
		}
	]
}
