{
	"asset":{
		"generator":"Khronos glTF Blender I/O v4.4.56",
		"version":"2.0"
	},
	"scene":0,
	"scenes":[
		{
			"name":"Scene",
			"nodes":[
				0
			]
		}
	],
	"nodes":[
		{
			"mesh":0,
			"name":"Plane.003",
			"translation":[
				0,
				2.2938132286071777,
				-2.5304107666015625
			]
		}
	],
	"materials":[
		{
			"doubleSided":true,
			"name":"camera",
			"normalTexture":{
				"index":0
			},
			"pbrMetallicRoughness":{
				"baseColorTexture":{
					"index":1
				},
				"metallicFactor":0,
				"roughnessFactor":0.5
			}
		}
	],
	"meshes":[
		{
			"name":"Plane.003",
			"primitives":[
				{
					"attributes":{
						"POSITION":0,
						"NORMAL":1,
						"TEXCOORD_0":2
					},
					"indices":3,
					"material":0
				}
			]
		}
	],
	"textures":[
		{
			"sampler":0,
			"source":0
		},
		{
			"sampler":0,
			"source":1
		}
	],
	"images":[
		{
			"mimeType":"image/png",
			"name":"camera_Normal",
			"uri":"camera_Normal.png"
		},
		{
			"mimeType":"image/png",
			"name":"camera_BaseColor",
			"uri":"camera_BaseColor.png"
		}
	],
	"accessors":[
		{
			"bufferView":0,
			"componentType":5126,
			"count":458,
			"max":[
				1.5792088508605957,
				1.5792094469070435,
				4.274559020996094
			],
			"min":[
				-1.5792088508605957,
				-1.5792087316513062,
				-2.384185791015625e-07
			],
			"type":"VEC3"
		},
		{
			"bufferView":1,
			"componentType":5126,
			"count":458,
			"type":"VEC3"
		},
		{
			"bufferView":2,
			"componentType":5126,
			"count":458,
			"type":"VEC2"
		},
		{
			"bufferView":3,
			"componentType":5123,
			"count":1620,
			"type":"SCALAR"
		}
	],
	"bufferViews":[
		{
			"buffer":0,
			"byteLength":5496,
			"byteOffset":0,
			"target":34962
		},
		{
			"buffer":0,
			"byteLength":5496,
			"byteOffset":5496,
			"target":34962
		},
		{
			"buffer":0,
			"byteLength":3664,
			"byteOffset":10992,
			"target":34962
		},
		{
			"buffer":0,
			"byteLength":3240,
			"byteOffset":14656,
			"target":34963
		}
	],
	"samplers":[
		{
			"magFilter":9729,
			"minFilter":9987
		}
	],
	"buffers":[
		{
			"byteLength":17896,
			"uri":"camera_uchwyt.bin"
		}
	]
}
